<?xml version="1.0" standalone="no"?>
<!DOCTYPE svg PUBLIC "-//W3C//DTD SVG 1.1//EN" "http://www.w3.org/Graphics/SVG/1.1/DTD/svg11.dtd" >
<svg>
<metadata>
Created by FontForge 20090914 at Sun Apr  5 07:40:42 2020
 By www-data
Generated in 2013 by FontLab Studio. Copyright info pending.
</metadata>
<defs>
<font id="CircularStd-Book" horiz-adv-x="1146" >
  <font-face 
    font-family="CircularStd-Book"
    font-weight="450"
    font-stretch="normal"
    units-per-em="2048"
    panose-1="2 11 6 4 2 1 1 2 1 2"
    ascent="1657"
    descent="-391"
    x-height="984.999"
    cap-height="1452"
    bbox="-94 -475.014 3045 1962"
    underline-thickness="163"
    underline-position="-398"
    unicode-range="U+000D-U+FEFF"
  />
<missing-glyph horiz-adv-x="1150" 
d="M326 162h499v1128h-499v-1128zM164 0v1452h823v-1452h-823z" />
    <glyph glyph-name="f_f" unicode="ff" horiz-adv-x="1349" 
d="M1220 1309c-38.667 0 -73.3281 -12.6689 -103.995 -38.002s-46.334 -68.666 -47.001 -129.999v-156h238v-174h-238v-811h-199v811h-448v-811h-199v811h-182v174h182v166c0 105.333 30.667 188 92 248s138.666 90 231.999 90c58.667 0 97 -7 115 -21v-172
c-20.667 8 -50.334 12 -89.001 12c-39.333 0 -74.333 -12.333 -105 -37c-30.667 -25.333 -46 -68.666 -46 -129.999v-156h448v166c0 105.333 30.667 188 92 248s138.666 90 231.999 90c58.667 0 97 -7 115 -21v-172c-20.667 8.66699 -50.334 13 -89.001 13z" />
    <glyph glyph-name="f_f_i" unicode="ffi" horiz-adv-x="1884" 
d="M1487 1362c0 38 13.3311 70.6689 39.998 98.002s59.334 41 98.001 41s71.334 -13.333 98.001 -40s40 -59.334 40 -98.001s-13.667 -71.334 -41 -98.001s-60 -40 -98 -40s-70.333 13.333 -97 40s-40 59 -40 97zM222.998 985.002l0.00585938 165.998
c0 105.333 30.667 188 92 248s138.666 90 231.999 90c58.667 0 97 -7 115 -21v-172c-20.667 8 -50.334 12 -89.001 12c-39.333 0 -74.333 -12.333 -105 -37c-30.667 -25.333 -46 -68.666 -46 -129.999v-156h448v166c0 105.333 30.667 188 92 248s138.666 90 231.999 90
c58.667 0 97 -7 115 -21v-172c-20.667 8 -50.334 12 -89.001 12s-73.334 -12.333 -104.001 -37c-30.667 -25.333 -46.334 -68.666 -47.001 -129.999v-156h651v-985h-190v811h-461v-811h-199v811h-448v-811h-199v811h-182v174h182z" />
    <glyph glyph-name="f_f_l" unicode="ffl" horiz-adv-x="1884" 
d="M223 985l0.00585938 165.998c0 105.333 30.667 188 92 248s138.666 90 231.999 90c58.667 0 97 -7 115 -21v-172c-20.667 8 -50.334 12 -89.001 12c-39.333 0 -74.333 -12.333 -105 -37c-30.667 -25.333 -46 -68.666 -46 -129.999v-156h448v166
c0 105.333 30.667 188 92 248s138.666 90 231.999 90c58.667 0 97 -7 115 -21v-172c-20.667 8 -50.334 12 -89.001 12s-73.334 -12.333 -104.001 -37c-30.667 -25.333 -46.334 -68.666 -47.001 -129.999v-156h461v498h190v-1483h-190v811h-461v-811h-199v811h-448v-811h-199
v811h-182v174h182z" />
    <glyph glyph-name="f_i" unicode="fi" horiz-adv-x="1236" 
d="M840 1362c0 38 13.3311 70.6689 39.998 98.002s59.334 41 98.001 41s71.334 -13.333 98.001 -40s40 -59.334 40 -98.001s-13.667 -71.334 -41 -98.001s-60 -40 -98 -40s-70.333 13.333 -97 40s-40 59 -40 97zM546.998 1489c58.667 0 97.001 -7 115.001 -21v-172
c-20.667 8 -50.334 12 -89.001 12c-39.333 0 -74.333 -12 -105 -36c-30.667 -24.667 -46 -67.667 -46 -129v-158h651v-985h-190v811h-461v-811h-199v811h-182v174h182v166c0 105.333 30.667 188 92 248c62 60 139.333 90 232 90z" />
    <glyph glyph-name="f_l" unicode="fl" horiz-adv-x="1232" 
d="M573 1309c-39.333 0 -74.3311 -12.668 -104.998 -38.001s-46 -68.666 -46 -129.999v-156h455v498h192v-1483h-192v811h-455v-811h-199v811h-182v174h182v166c0 105.333 30.667 188 92 248s138.666 90 231.999 90c58.667 0 97 -7 115 -21v-172
c-20.667 8.66699 -50.334 13 -89.001 13z" />
    <glyph glyph-name=".notdef" horiz-adv-x="1150" 
d="M326 162h499v1128h-499v-1128zM164 0v1452h823v-1452h-823z" />
    <glyph glyph-name=".null" horiz-adv-x="0" 
 />
    <glyph glyph-name=".null" horiz-adv-x="0" 
 />
    <glyph glyph-name="uni000D" unicode="&#xd;" horiz-adv-x="512" 
 />
    <glyph glyph-name="space" unicode=" " horiz-adv-x="512" 
 />
    <glyph glyph-name="exclam" unicode="!" horiz-adv-x="636" 
d="M184 123c0 36.667 12.998 68.334 38.998 95.001s57.333 40 94 40s68.334 -13.333 95.001 -40s40.334 -58.334 41.001 -95.001c0 -36.667 -13.333 -68 -40 -94c-26 -26 -57.667 -39 -95 -39s-69 13 -95 39s-39 57.333 -39 94zM437.998 1452l-51 -1036h-137l-53 1036h241z
" />
    <glyph glyph-name="quotedbl" unicode="&#x22;" horiz-adv-x="765" 
d="M436 1227c0 36.667 11.667 66.667 35 90s53 35 89 35s65.667 -11.667 89 -35s35 -53.333 35 -90c0 -10.667 -1.33301 -23 -4 -37l-86 -385h-70l-84 383c-2.66699 14 -4 27 -4 39zM82 1227c0 36.667 11.667 66.667 35 90s53 35 89 35s65.667 -11.667 89 -35
s35 -53.333 35 -90c0 -10.667 -1.33301 -23 -4 -37l-86 -385h-70l-84 383c-2.66699 14 -4 27 -4 39z" />
    <glyph glyph-name="numbersign" unicode="#" horiz-adv-x="1511" 
d="M637 829l-70 -327h291l70 327h-291zM203 829v156h295l73 342h172l-73 -342h291l73 342h172l-73 -342h276v-156h-309l-70 -327h279v-156h-314l-73 -346h-172l73 346h-291l-73 -346h-172l73 346h-258v156h293l70 327h-262z" />
    <glyph glyph-name="dollar" unicode="$" horiz-adv-x="1218" 
d="M360 973c0 -100 62.999 -162.333 188.999 -187v390c-59.333 -10.667 -105.666 -34.667 -138.999 -72s-50 -81 -50 -131zM902.999 349c0 47.333 -16.333 88.6689 -49 124.002s-81 60.666 -145 75.999v-395c64 12 112.333 35.667 145 71s49 76.666 49 123.999z
M708.999 -239.997l-160.002 -0.000976562v213c-132.667 14 -237 60.333 -313 139s-120.667 167.667 -134 267l195 61c6 -70.667 30.333 -132.667 73 -186s102.334 -86.666 179.001 -99.999v428l-51 10c-106.667 22 -190 65 -250 129c-60 63.333 -90 144.333 -90 243
s36.333 185 109 259c73.333 74 167.333 117.667 282 131v215h160v-217c113.333 -15.333 200.333 -54.666 261 -117.999s101.334 -135.333 122.001 -216l-185 -68c-6.66699 45.333 -27 89 -61 131s-79.667 71.333 -137 88v-419l30 -7c112.667 -22 201.667 -67.667 267 -137
s98 -151.333 98 -246s-34.667 -179.334 -104 -254.001c-69.333 -74 -166.333 -118.333 -291 -133v-213z" />
    <glyph glyph-name="percent" unicode="%" horiz-adv-x="1673" 
d="M465 0h-189l955 1327h184zM924 306c0 89.333 32.332 165.331 96.999 227.998s141.334 94.334 230.001 95.001c88.667 0 165.667 -31.333 231 -94c65.333 -63.333 98.333 -139.666 99 -228.999c0 -89.333 -32.667 -165.333 -98 -228
c-64.667 -62.667 -141.667 -94 -231 -94s-166.333 31.333 -231 94s-97 138.667 -97 228zM1094 306.998c0 -46.667 15.001 -85.334 45.001 -116.001s67.667 -46 113 -46s82.666 15.333 111.999 46c30 30.667 45 69.334 45 116.001s-15 85 -45 115s-67.667 45 -113 45
c-46 0 -83.667 -15 -113 -45s-44 -68.333 -44 -115zM113 1019c0 89.333 32.332 165.333 96.999 228s141.334 94 230.001 94c89.333 0 166.666 -31.333 231.999 -94s98 -138.667 98 -228s-32.667 -165.333 -98 -228c-65.333 -63.333 -142.666 -95 -231.999 -95
s-166 31.333 -230 94c-64.667 62.667 -97 139 -97 229zM282.999 1020c0 -46.667 15 -85.334 45 -116.001c29.333 -30.667 66.666 -46 111.999 -46s83 15.333 113 46s45 69.334 45 116.001s-15 85 -45 115s-67.667 45 -113 45s-82.666 -15 -111.999 -45
s-44.333 -68.333 -45 -115z" />
    <glyph glyph-name="ampersand" unicode="&#x26;" horiz-adv-x="1427" 
d="M418 1130c0 -56.667 36.667 -123.332 110 -199.999l45 -49l99 73c72.667 53.333 108.667 113.666 108 180.999c0 49.333 -17.333 91 -52 125s-77 51 -127 51s-93 -16 -129 -48s-54 -76.333 -54 -133zM350 362.002c0 -52 20.001 -98.666 60.001 -139.999
s88.667 -62 146 -62c56.667 0 105.667 13.667 147 41s85.666 66.666 132.999 117.999l6 9l-295 309l-74 -55c-82 -62.667 -123 -136 -123 -220zM143.001 337.003c0.666992 93.333 21.6709 169.333 63.0039 228s105.666 121 192.999 187l21 16l-27 29
c-34 35.333 -60.333 64.333 -79 87s-39.334 56.667 -62.001 102s-33.667 90 -33 134c0 110.667 38 198.667 114 264c75.333 65.333 165.666 98 270.999 98s194 -32 266 -96c72 -65.333 108.333 -153 109 -263c0 -110 -68.333 -215.333 -205 -316l-74 -55l271 -281l323 360
v-264l-196 -227l329 -340h-272l-184 193c-130 -144.667 -263 -217 -399 -217s-241.333 36.667 -316 110c-74.667 74 -112.334 157.667 -113.001 251z" />
    <glyph glyph-name="quotesingle" unicode="'" horiz-adv-x="411" 
d="M82 1227c0 36.667 11.667 66.667 35 90s53 35 89 35s65.667 -11.667 89 -35s35 -53.333 35 -90c0 -10.667 -1.33301 -23 -4 -37l-86 -385h-70l-84 383c-2.66699 14 -4 27 -4 39z" />
    <glyph glyph-name="parenleft" unicode="(" horiz-adv-x="618" 
d="M113 649c0 386.667 129.667 712.331 389 976.998l116 -102c-226.667 -254 -340 -545.667 -340 -875s113.333 -620.666 340 -873.999l-116 -103c-259.333 264.667 -389 590.334 -389 977.001z" />
    <glyph glyph-name="parenright" unicode=")" horiz-adv-x="618" 
d="M506 649c0 -386.667 -129.667 -712.331 -389 -976.998l-117 103c226.667 254 340 545.667 340 875s-113.333 620.666 -340 873.999l117 102c259.333 -264.667 389 -590.334 389 -977.001z" />
    <glyph glyph-name="asterisk" unicode="*" horiz-adv-x="901" 
d="M530 1452v-274l252 86l47 -148l-254 -84l168 -215l-125 -94l-169 223l-160 -221l-125 94l162 213l-254 84l47 148l250 -88v276h161z" />
    <glyph glyph-name="plus" unicode="+" horiz-adv-x="1161" 
d="M113 670h383v399h168v-399h385v-162h-385v-404h-168v404h-383v162z" />
    <glyph glyph-name="comma" unicode="," horiz-adv-x="602" 
d="M143 127c0 39.333 14.332 72.6699 42.999 100.003s65.334 41 110.001 41s83 -17 115 -51s48 -81.667 48 -143c0 -122.667 -31.333 -217.334 -94 -284.001s-132.334 -105.334 -209.001 -116.001v107c49.333 10.667 89.333 37.667 120 81s47.334 90 50.001 140
c-9.33301 -6.66699 -29 -10 -59 -10s-58.333 12.667 -85 38c-26 25.333 -39 57.666 -39 96.999z" />
    <glyph glyph-name="hyphen" unicode="-" horiz-adv-x="739" 
d="M647 504h-555v168h555v-168z" />
    <glyph glyph-name="period" unicode="." horiz-adv-x="571" 
d="M143 131c0 39.333 13.667 73 41 101c26.667 28 60 42 100 42s74 -14 102 -42s42 -61.667 42 -101s-14 -72.666 -42 -99.999s-61.667 -41 -101 -41s-73 13.667 -101 41c-27.333 27.333 -41 60.666 -41 99.999z" />
    <glyph glyph-name="slash" unicode="/" horiz-adv-x="888" 
d="M889 1452l-703 -1452h-186l702 1452h187z" />
    <glyph glyph-name="zero" unicode="0" horiz-adv-x="1257" 
d="M102 664c0 203.333 39.667 363.666 119 480.999c94 142 229.667 213 407 213s313.333 -71 408 -213c79.333 -117.333 119 -277.666 119 -480.999s-39.667 -364 -119 -482c-94 -142 -229.667 -213 -407 -213s-313.333 71 -408 213c-79.333 118 -119 278.667 -119 482z
M301 664c0 -204.667 39 -348.332 117 -430.999c54.667 -57.333 125 -86 211 -86s156.333 28.667 211 86c77.333 82 116 225.667 116 431s-38.667 348.666 -116 429.999c-54.667 57.333 -125 86 -211 86s-156.333 -28.667 -211 -86c-78 -82 -117 -225.333 -117 -430z" />
    <glyph glyph-name="one" unicode="1" horiz-adv-x="722" 
d="M569 0h-196v936h-322v141c90 1.33301 166 25 228 71c61.333 46 99.333 105.667 114 179h176v-1327z" />
    <glyph glyph-name="two" unicode="2" horiz-adv-x="1083" 
d="M86 928c0 118.667 41.665 220.002 124.998 304.002s194.333 126 333 126s248 -39.333 328 -118s120.333 -175.334 121 -290.001c0 -168 -83.333 -304.333 -250 -409l-262 -168c-94 -60 -148 -122.333 -162 -187h682v-186h-929c2.66699 112 28 210.333 76 295
c48.667 84.667 128.334 162.334 239.001 233.001l221 144c121.333 78 182.333 170 183 276c0 65.333 -22 120.666 -66 165.999c-43.333 45.333 -105.666 68 -186.999 68s-144 -25.333 -188 -76s-65.667 -116.334 -65 -197.001c0 -12 1.33301 -31.667 4 -59l-201 24
c-1.33301 12 -2 30 -2 54z" />
    <glyph glyph-name="three" unicode="3" horiz-adv-x="1132" 
d="M119 1143l-0.000976562 184.003h901v-180l-379 -350c108 -0.666992 203.333 -36.334 286 -107.001s124 -167.334 124 -290.001s-43 -225.334 -129 -308.001c-85.333 -83.333 -202 -125 -350 -125s-266 40.667 -354 122s-135.333 180 -142 296l196 45
c4 -86 33.667 -155.333 89 -208s125.333 -79 210 -79s152 23.667 202 71c50 48 75 109.333 75 184s-26.667 133 -80 175s-116.666 63.333 -189.999 64c-40 -0.666992 -79 -7.66699 -117 -21l-99 166l392 361h-635z" />
    <glyph glyph-name="four" unicode="4" horiz-adv-x="1175" 
d="M723 485v650l-467 -650h467zM72 299v231l569 797h277v-842h227v-186h-227v-299h-195v299h-651z" />
    <glyph glyph-name="five" unicode="5" horiz-adv-x="1122" 
d="M995 1327l0.00195312 -184h-567l-98 -381c58.667 65.333 151.334 98 278.001 98s232.334 -39.667 317.001 -119c84 -79.333 126 -185 126 -317c0.666992 -132 -44.333 -241 -135 -327c-90.667 -86.667 -206.334 -130 -347.001 -130
c-140.667 0.666992 -256.334 39 -347.001 115s-140.667 168.667 -150 278l192 58c5.33301 -82 35.666 -148.333 90.999 -199s124 -76 206 -76s150.333 24.667 205 74s82 116 82 200c0 83.333 -27.333 149 -82 197s-127.334 72 -218.001 72s-167 -32 -229 -96l-196 78
l172 659h700z" />
    <glyph glyph-name="six" unicode="6" horiz-adv-x="1187" 
d="M338 424c0 -84.667 28.665 -152.667 85.998 -204s125.333 -77 204 -77s145.334 25.333 200.001 76s82.334 118.667 83.001 204c0 85.333 -27.667 153.333 -83 204c-56 50 -124 75 -204 75s-147.667 -25.333 -203 -76s-83 -118 -83 -202zM658.998 874
c135.333 0 244.997 -39.999 328.997 -119.999s126 -190 126 -330c0 -139.333 -47.667 -250 -143 -332s-212.666 -123 -351.999 -123s-260 51.667 -362 155s-153 256.666 -153 459.999c0 240 64.333 429 193 567s292.334 207 491.001 207c122 0 217.667 -24.667 287 -74
l-61 -164c-65.333 38 -144.666 57.333 -237.999 58c-135.333 0 -245 -44.667 -329 -134s-130 -203.333 -138 -342c30 49.333 75.333 90.333 136 123s132 49 214 49z" />
    <glyph glyph-name="seven" unicode="7" horiz-adv-x="989" 
d="M979 1327v-192.003c-34 -27.333 -67.333 -56.666 -100 -87.999s-76 -81.666 -130 -150.999s-101.667 -143.333 -143 -222c-41.333 -78 -80 -176.667 -116 -296s-60 -245.333 -72 -378h-207c16 208.667 59.333 393.334 130 554.001s143 286.667 217 378
c73.333 91.333 131 154 173 188l27 23h-748v184h969z" />
    <glyph glyph-name="eight" unicode="8" 
d="M573 -31c-148.667 0 -265.999 35.9961 -351.999 107.996s-129 163 -129 273c0 78 23.667 146 71 204s107.666 99.333 180.999 124c-62.667 23.333 -114.667 63.333 -156 120c-40.667 56.667 -61 120.334 -61 191.001c0 108 42.333 196.333 127 265
c85.333 69.333 192 104 320 104s234.333 -34.667 319 -104s127 -157.666 127 -264.999c0 -69.333 -20.667 -132.666 -62 -189.999s-93 -97.666 -155 -120.999c74 -23.333 134.333 -64.333 181 -123s70.334 -127 71.001 -205c0.666992 -110.667 -42.333 -202 -129 -274
s-204.334 -107.667 -353.001 -107zM573.001 142.996c86 -0.666992 154 20.333 204 63s75 96.667 75 162s-25 119.333 -75 162s-118 64 -204 64s-153.667 -21.667 -203 -65s-74.333 -97 -75 -161c0.666992 -64 25.667 -117.667 75 -161c49.333 -42.667 117 -64 203 -64z
M573.001 763.996c70.667 0 129.666 19.666 176.999 58.999c46.667 39.333 70 90.333 70 153s-22.667 114 -68 154c-45.333 41.333 -105 62 -179 62s-133.667 -20.667 -179 -62s-67.333 -92.666 -66 -153.999c0 -62 23 -113 69 -153c46.667 -39.333 105.334 -59 176.001 -59z
" />
    <glyph glyph-name="nine" unicode="9" horiz-adv-x="1189" 
d="M858 901c0 83.333 -28.6689 151.001 -86.002 203.001s-124.666 78 -201.999 78s-144 -25.667 -200 -77s-84.333 -119.333 -85 -204c0 -84.667 28 -152.334 84 -203.001c55.333 -50.667 122.333 -76 201 -76s146.334 26 203.001 78c56.667 50.667 85 117.667 85 201z
M423.998 150.001c151.333 0 265.002 43.3311 341.002 129.998s116 200.334 120 341.001c-26 -48 -68.667 -88.333 -128 -121s-131.333 -49 -216 -49c-122.667 0 -230 39.667 -322 119c-91.333 80 -137 188.333 -137 325s48 248 144 334s213 129 351 129
s257.667 -52 359 -156s151.666 -255.333 150.999 -454c-0.666992 -248.667 -56.334 -440.667 -167.001 -576s-276 -203 -496 -203c-52 0.666992 -108 8.33398 -168 23.001s-106.333 33 -139 55l65 166c69.333 -42 150 -63 242 -63z" />
    <glyph glyph-name="colon" unicode=":" horiz-adv-x="593" 
d="M154 852c0 39.333 13.667 73 41 101s60.666 42 99.999 42s73 -14 101 -42s42 -61.667 42 -101s-14 -72.666 -42 -99.999s-61.667 -41 -101 -41s-72.666 13.667 -99.999 41s-41 60.666 -41 99.999zM156 131c0 39.333 13.667 73 41 101s60.666 42 99.999 42s73 -14 101 -42
s42 -61.667 42 -101s-14 -72.666 -42 -99.999s-61.667 -41 -101 -41s-72.666 13.667 -99.999 41s-41 60.666 -41 99.999z" />
    <glyph glyph-name="semicolon" unicode=";" horiz-adv-x="608" 
d="M156 852c0 39.333 13.667 73 41 101s60.666 42 99.999 42s73 -14 101 -42s42 -61.667 42 -101s-14 -72.666 -42 -99.999s-61.667 -41 -101 -41s-72.666 13.667 -99.999 41s-41 60.666 -41 99.999zM154 123c0 38 13.666 69.667 40.999 95s62.333 38 105 38
s79.334 -16 110.001 -48c30 -32 45 -77.333 45 -136c0 -116 -29.667 -206 -89 -270s-126 -100.333 -200 -109v100c46.667 11.333 85 37 115 77s45.667 84.667 47 134c-10.667 -6.66699 -29.667 -10 -57 -10s-54 12 -80 36c-24.667 24 -37 55 -37 93z" />
    <glyph glyph-name="less" unicode="&#x3c;" horiz-adv-x="987" 
d="M72 500v174l843 422v-195l-634 -313l634 -314v-194z" />
    <glyph glyph-name="equal" unicode="=" horiz-adv-x="1214" 
d="M1081 309h-948v162h948v-162zM1081 709h-948v157h948v-157z" />
    <glyph glyph-name="greater" unicode="&#x3e;" horiz-adv-x="987" 
d="M915 674v-174l-843 -420v194l639 314l-639 313v195z" />
    <glyph glyph-name="question" unicode="?" horiz-adv-x="1044" 
d="M356 123c0 36.667 12.998 68.334 38.998 95.001s57.333 40 94 40s68.334 -13.333 95.001 -40s40.334 -58.334 41.001 -95.001c0 -36.667 -13.333 -68 -40 -94c-26 -26 -57.667 -39 -95 -39s-69 13 -95 39s-39 57.333 -39 94zM398.998 487
c0 136.667 56.667 243.334 170 320.001l90 61c72.667 49.333 109 116.333 109 201c0 65.333 -21 120.666 -63 165.999s-103.667 68 -185 68s-143.333 -26 -186 -78c-44 -52 -66 -113.667 -66 -185c0 -40.667 5 -74 15 -100l-199 25c-8 28.667 -12 69 -12 121
s15 108.333 45 169c30 61.333 80.333 114.666 151 159.999s156 68 256 68c136.667 0 245.667 -41 327 -123s122 -178.333 122 -289c0 -143.333 -69.667 -262 -209 -356l-94 -64c-60 -40.667 -90 -106 -90 -196c0 -12.667 0.666992 -25.667 2 -39h-181
c-1.33301 16.667 -2 40.334 -2 71.001z" />
    <glyph glyph-name="at" unicode="@" horiz-adv-x="1691" 
d="M871 950c-62.667 0 -117.001 -30.333 -163.001 -91s-69 -130.667 -69 -210c0 -148.667 58 -223 174 -223c69.333 0 126.333 31.333 171 94s68.334 142 71.001 238c0 128 -61.333 192 -184 192zM1231 281c-50.667 0.666992 -94.3311 11.666 -130.998 32.999
s-60.667 54 -72 98c-62.667 -90.667 -142 -136 -238 -136s-173.333 32 -232 96c-58 64 -87 149 -87 255c0 135.333 40.333 248.666 121 339.999s177 137 289 137c48 0 92.667 -11.667 134 -35s69.666 -56.666 84.999 -99.999l18 108h162l-111 -514
c-4 -20.667 -6 -39.667 -6 -57c0 -56 26 -84 78 -84c57.333 0 108.666 39.333 153.999 118s67.666 169 66.999 271c0 151.333 -52.667 276.333 -158 375c-106 98 -247 147 -423 147c-176.667 0 -324.334 -60.333 -443.001 -181c-118.667 -121.333 -178 -276 -178 -464
s58.333 -340.667 175 -458s275.334 -176.333 476.001 -177c160 0 300 48 420 144l84 -111c-58.667 -54.667 -134.667 -98.667 -228 -132s-185.333 -50 -276 -50c-240 0 -436.333 72 -589 216c-153.333 144 -230 332 -230 564s77.333 423 232 573s339.334 225 554.001 225
s392 -63.333 532 -190c140 -128 210 -287.667 210 -479c0 -151.333 -38 -277.666 -114 -378.999s-167.667 -152.333 -275 -153z" />
    <glyph glyph-name="A" unicode="A" horiz-adv-x="1427" 
d="M709 1243l-248 -651h500zM1190 0l-158 406h-643l-153 -406h-216l578 1452h231l578 -1452h-217z" />
    <glyph glyph-name="B" unicode="B" horiz-adv-x="1232" 
d="M385 176l278.999 -0.000976562c82.667 0 148.667 21.333 198 64s74 99.334 74 170.001c0 72 -22.667 129.333 -68 172s-110.666 63.667 -195.999 63h-287v-469zM384.999 816.999l250 -0.00195312c79.333 0 142.333 21.667 189 65s69.667 99.333 69 168
c0 68.667 -24 123.334 -72 164.001s-112.667 61.334 -194 62.001h-242v-459zM183.999 1452l472.998 0.00292969c135.333 0 242.333 -36.333 321 -109s118 -167.334 118 -284.001c0 -75.333 -20 -140.333 -60 -195s-92.333 -94.334 -157 -119.001
c80.667 -20.667 144.334 -63.334 191.001 -128.001s70.334 -138.667 71.001 -222c0 -114 -41.667 -208.333 -125 -283s-191.333 -112 -324 -112h-508v1452z" />
    <glyph glyph-name="C" unicode="C" horiz-adv-x="1536" 
d="M813 -31c-198 0 -367.667 68.3359 -509 205.003s-212 321 -212 553c0 155.333 35.333 291.666 106 408.999s160.334 204.666 269.001 261.999c108 56.667 223.333 85 346 85c164 0 302.333 -41.333 415 -124s187.334 -195 224.001 -337l-186 -66
c-27.333 109.333 -80 193.666 -158 252.999s-176.333 89 -295 89c-142 0 -263.667 -50 -365 -150s-151.666 -240.333 -150.999 -421c0 -180 50.667 -320.667 152 -422s222.666 -151.666 363.999 -150.999c118.667 0 217.667 31.667 297 95s134.666 147.666 165.999 252.999
l178 -66c-39.333 -140.667 -115.333 -253.667 -228 -339s-250.334 -128 -413.001 -128z" />
    <glyph glyph-name="D" unicode="D" horiz-adv-x="1474" 
d="M688 0l-504 0.000976562v1452h508c195.333 0 359.333 -64.667 492 -194c132 -129.333 198 -307.333 198 -534s-66.667 -404.334 -200 -533.001c-134 -127.333 -298.667 -191 -494 -191zM385 178.001h297c142 0 259.667 47 353 141c94 94 141 229 141 405
s-46 311.333 -138 406c-92 95.333 -209.333 143.333 -352 144h-301v-1096z" />
    <glyph glyph-name="E" unicode="E" horiz-adv-x="1189" 
d="M1067 0h-883v1452h883v-186h-682v-447h619v-188h-619v-445h682v-186z" />
    <glyph glyph-name="F" unicode="F" horiz-adv-x="1128" 
d="M385 0h-201v1452h883v-186h-682v-467h619v-189h-619v-610z" />
    <glyph glyph-name="G" unicode="G" horiz-adv-x="1566" 
d="M1442 0l-162.001 0.000976562l-18 205c-34.667 -64 -92.667 -119.333 -174 -166s-181.333 -70 -300 -70s-230.334 28.333 -335.001 85c-105.333 56.667 -191.666 143.667 -258.999 261s-101.333 254.666 -102 411.999c0 157.333 35.333 294.666 106 411.999
s160 204 268 260c107.333 56 222.333 84 345 84c155.333 0 291 -40 407 -120s194.667 -186.333 236 -319l-182 -77c-32.667 106 -89.667 187.667 -171 245s-178 86 -290 86c-140.667 0 -261.667 -50 -363 -150s-151.666 -240.667 -150.999 -422
c0 -182 49.333 -323.333 148 -424s218 -150.667 358 -150c208 0 347.667 85.333 419 256c17.333 40.667 27 81.334 29 122.001h-503v181h694v-711z" />
    <glyph glyph-name="H" unicode="H" horiz-adv-x="1511" 
d="M1327 0h-201v645h-741v-645h-201v1452h201v-621h741v621h201v-1452z" />
    <glyph glyph-name="I" unicode="I" horiz-adv-x="573" 
d="M389 0h-205v1452h205v-1452z" />
    <glyph glyph-name="J" unicode="J" horiz-adv-x="1093" 
d="M41 432v93.999l201 45v-137c0 -92.667 22.667 -162.334 68 -209.001c45.333 -46 105.333 -69 180 -69c75.333 0 134 23.333 176 70s63 111.334 63 194.001v1032h201v-1018c0 -131.333 -40 -241.666 -120 -330.999s-188 -134 -324 -134s-244 42 -324 126
c-80.667 84 -121 196.333 -121 337z" />
    <glyph glyph-name="K" unicode="K" horiz-adv-x="1368" 
d="M385 0h-201v1452h201v-747l680 747h264l-604 -647l612 -805h-254l-491 659l-207 -221v-438z" />
    <glyph glyph-name="L" unicode="L" horiz-adv-x="1122" 
d="M1071 0h-887v1452h201v-1264h686v-188z" />
    <glyph glyph-name="M" unicode="M" horiz-adv-x="1937" 
d="M1753 0h-199v1130l-495 -1130h-185l-491 1130v-1130h-199v1452h273l512 -1182l516 1182h268v-1452z" />
    <glyph glyph-name="N" unicode="N" horiz-adv-x="1562" 
d="M1378 0h-209l-784 1184v-1184h-201v1452h269l725 -1114v1114h200v-1452z" />
    <glyph glyph-name="O" unicode="O" horiz-adv-x="1642" 
d="M92 727c0 116.667 20.668 223.667 62.001 321c77.333 180 210.333 308 399 384c86 34 175.333 51 268 51c190.667 0 357.667 -65.333 501 -196c69.333 -62 124.666 -141.333 165.999 -238s62 -204 62 -322c0 -155.333 -35.667 -292 -107 -410
c-72 -117.333 -162.667 -204.666 -272 -261.999s-226 -86 -350 -86s-240.667 28.667 -350 86c-108.667 58 -199 145.667 -271 263s-108 253.666 -108 408.999zM297.001 727c0 -180 51.335 -320.666 154.002 -421.999c103.333 -100.667 227 -151 371 -151
s267.333 50.667 370 152s154 241.666 154 420.999c0 180 -51.333 320.333 -154 421c-102.667 100 -226.334 150 -371.001 150s-268.334 -50 -371.001 -150s-153.667 -240.333 -153 -421z" />
    <glyph glyph-name="P" unicode="P" horiz-adv-x="1222" 
d="M713 594h-328v-594h-201v1452h529c132.667 0 240.334 -41 323.001 -123s124.334 -184.667 125.001 -308c-0.666992 -123.333 -42.334 -225.333 -125.001 -306s-190.334 -121 -323.001 -121zM385 774h291c86 0 154.333 22.333 205 67c50 44.667 75 105 75 181
s-25.333 136.667 -76 182s-118.667 68 -204 68h-291v-498z" />
    <glyph glyph-name="Q" unicode="Q" horiz-adv-x="1642" 
d="M297 727c0 -180 51.334 -320.668 154.001 -422.001s226 -151.666 370 -150.999c92.667 0 177.334 21 254.001 63l-252 283l140 121l254 -287c86 104 129 240.667 129 410s-51.333 304 -154 404s-226.334 150 -371.001 150s-268.334 -50 -371.001 -150
s-153.667 -240.333 -153 -421zM92.001 726.999c0 116.667 20.668 223.668 62.001 321.001c77.333 180 210.333 308 399 384c86 34 175.333 51 268 51c190.667 0 357.667 -65.333 501 -196c69.333 -62 124.666 -141.333 165.999 -238s62 -204 62 -322
c0 -217.333 -68 -396.333 -204 -537l170 -190l-138 -121l-176 195c-114.667 -69.333 -238 -104 -370 -104s-252.333 28.333 -361 85c-108.667 58 -199 145.667 -271 263s-108 253.666 -108 408.999z" />
    <glyph glyph-name="R" unicode="R" horiz-adv-x="1267" 
d="M387 774h307c82 0 148.333 22.333 199 67s76 105 76 181s-25.333 136.667 -76 182s-117 68 -199 68h-307v-498zM387 594v-594h-203v1452h547c134 0 241.667 -41.333 323 -124s122 -181 122 -295s-31.333 -208.333 -94 -283s-149 -122 -259 -142l346 -608h-233l-332 594
h-217z" />
    <glyph glyph-name="S" unicode="S" horiz-adv-x="1214" 
d="M631 1307c-86 0 -155.667 -23.332 -209 -69.999s-80 -100.334 -80 -161.001c0 -119.333 62 -193.333 186 -222l217 -47c120.667 -26 213.667 -75 279 -147s98 -162.667 98 -272s-46.333 -206.666 -139 -291.999c-92.667 -84.667 -217 -127 -373 -127
s-279.667 42.667 -371 128c-92 85.333 -145.667 186.666 -161 303.999l192 62c8 -87.333 42 -161 102 -221s140 -90 240 -90c99.333 0 175.333 21.667 228 65c52 44 78 96.333 78 157c0 124.667 -72.667 202.667 -218 234l-206 45c-108 23.333 -194 69 -258 137
s-96 157.333 -96 268c0 110 46.667 208.333 140 295s210 130 350 130s250 -36.333 330 -109c79.333 -72.667 129.333 -156.667 150 -252l-180 -63c-9.33301 62.667 -40 119.667 -92 171s-121 77 -207 77z" />
    <glyph glyph-name="T" unicode="T" horiz-adv-x="1212" 
d="M1192 1266h-485v-1266h-201v1266h-486v186h1172v-186z" />
    <glyph glyph-name="U" unicode="U" horiz-adv-x="1372" 
d="M686 -31c-153.333 -0.666992 -278.669 45.666 -376.002 138.999s-146 222.666 -146 387.999v956h198v-950c0 -110.667 28.333 -196 85 -256s136.334 -90 239.001 -90s182 30 238 90s84 145.333 84 256v950h200v-956c0 -165.333 -48.667 -294.666 -146 -387.999
s-222.666 -139.666 -375.999 -138.999z" />
    <glyph glyph-name="V" unicode="V" horiz-adv-x="1345" 
d="M672 258l442 1194h211l-559 -1452h-199l-547 1452h213z" />
    <glyph glyph-name="W" unicode="W" horiz-adv-x="2056" 
d="M1505 303l314 1149h206l-413 -1452h-207l-379 1178l-375 -1178h-200l-420 1452h207l319 -1137l365 1137h211z" />
    <glyph glyph-name="X" unicode="X" horiz-adv-x="1263" 
d="M1243 1452l-493 -725l487 -727h-240l-366 567l-375 -567h-236l496 727l-491 725h241l367 -569l373 569h237z" />
    <glyph glyph-name="Y" unicode="Y" horiz-adv-x="1265" 
d="M733 0h-201v621l-512 831h242l377 -647l377 647h229l-512 -831v-621z" />
    <glyph glyph-name="Z" unicode="Z" horiz-adv-x="1294" 
d="M1212 0h-1120v201l866 1065h-845v186h1089v-195l-870 -1069h880v-188z" />
    <glyph glyph-name="bracketleft" unicode="[" horiz-adv-x="589" 
d="M580 -303h-396v1911h396v-156h-228v-1602h228v-153z" />
    <glyph glyph-name="backslash" unicode="\" horiz-adv-x="888" 
d="M698 0l-698 1452h190l699 -1452h-191z" />
    <glyph glyph-name="bracketright" unicode="]" horiz-adv-x="589" 
d="M406 -303h-396v153h228v1602h-228v156h396v-1911z" />
    <glyph glyph-name="asciicircum" unicode="^" horiz-adv-x="1067" 
d="M1016 725h-203l-278 528l-281 -528h-203l398 729h169z" />
    <glyph glyph-name="underscore" unicode="_" horiz-adv-x="1110" 
d="M1079 -162h-1048v162h1048v-162z" />
    <glyph glyph-name="grave" unicode="`" horiz-adv-x="557" 
d="M328 1112l-258 299h241l176 -299h-159z" />
    <glyph glyph-name="a" unicode="a" horiz-adv-x="1071" 
d="M459 131c86 0 155 23.333 207 70s77.667 120.334 77 221.001v45l-301 -45c-44 -6.66699 -78.667 -22.334 -104 -47.001s-38.333 -57 -39 -97c0 -40 14.667 -74.667 44 -104c29.333 -28.667 68 -43 116 -43zM419 -31c-88.667 0 -163.667 29 -225 87s-92 128.333 -92 211
s27.333 149.667 82 201s127 83 217 95l267 39c50.667 6.66699 76 33.667 76 81s-18 87.333 -54 120s-88 49 -156 49s-121 -18 -159 -54s-60.667 -84.333 -68 -145l-184 43c9.33301 93.333 52.333 170 129 230s168 90 274 90c140 0 243.333 -34 310 -102
s100 -154.333 100 -259v-493c0 -58.667 4 -112.667 12 -162h-188c-6.66699 40.667 -10 85 -10 133c-27.333 -44 -67.333 -82.333 -120 -115s-123 -49 -211 -49z" />
    <glyph glyph-name="b" unicode="b" horiz-adv-x="1214" 
d="M936 498c0 106.667 -26.334 191 -79.001 253s-122.667 93 -210 93s-158.333 -31.333 -213 -94s-82 -146.667 -82 -252s27.333 -190.333 82 -255s125.334 -97 212.001 -97s156.667 32 210 96s80 149.333 80 256zM353.999 0h-189.999v1483h190v-637
c26 48 67.333 88 124 120s124 48 202 48c143.333 0 254.666 -48.667 333.999 -146s119 -221 119 -371c0 -151.333 -41 -276.333 -123 -375s-195.333 -148 -340 -148s-250 56.333 -316 169v-143z" />
    <glyph glyph-name="c" unicode="c" horiz-adv-x="1085" 
d="M573 838c-80 0 -149.002 -29.998 -207.002 -89.998s-87 -144.333 -87 -253s29 -193.667 87 -255s128.667 -92 212 -92c84 0 147.333 20 190 60c42.667 41.333 71.334 88.666 86.001 141.999l170 -74c-27.333 -82 -79 -153.667 -155 -215s-172.333 -92 -289 -92
c-143.333 0 -262.333 50 -357 150c-94 100 -141 225.667 -141 377s47 275.666 141 372.999c94 98 206.667 147 338 147s234.333 -30.667 309 -92s123.334 -135.333 146.001 -222l-174 -73c-15.333 56.667 -44 105.667 -86 147s-103 62 -183 62z" />
    <glyph glyph-name="d" unicode="d" horiz-adv-x="1204" 
d="M854 133l-0.00195312 16.999c-26 -50.667 -65.333 -92.667 -118 -126s-115 -50.333 -187 -51c-140.667 0.666992 -253.667 50.334 -339 149.001s-128 221.334 -128 368.001s43.667 270.667 131 372c87.333 100 199.333 150 336 150c80.667 0 146.334 -16 197.001 -48
s85.334 -71.333 104.001 -118v637h190v-1301c0 -66.667 3.66699 -127.334 11 -182.001h-187c-6.66699 38 -10 82.333 -10 133zM568.998 841.999c-87.333 0 -157.669 -32.001 -211.002 -96.001s-79.666 -147.667 -78.999 -251s26.334 -187.666 77.001 -252.999
s120 -98 208 -98s158 33.333 210 100s78 151.667 78 255s-25.333 186.333 -76 249s-119.667 94 -207 94z" />
    <glyph glyph-name="e" unicode="e" horiz-adv-x="1110" 
d="M580 -31c-138.667 0.666992 -256.001 48.333 -352.001 143s-144 220 -144 376s46.333 282.667 139 380c92.667 98 203.334 147.333 332.001 148c148.667 0 264.667 -46.667 348 -140s125 -218.666 125 -375.999c0 -24.667 -1.33301 -45.334 -4 -62.001h-741
c1.33301 -87.333 30.333 -159 87 -215s126.667 -84 210 -84c140 0 232 66.333 276 199l166 -57c-28.667 -91.333 -82 -166.333 -160 -225s-172 -87.667 -282 -87zM562.999 845.999c-80.667 0 -145.667 -25.001 -195 -75.001s-75.666 -109 -78.999 -177h538
c-2 74.667 -26.333 135.334 -73 182.001s-110.334 70 -191.001 70z" />
    <glyph glyph-name="f" unicode="f" horiz-adv-x="702" 
d="M659 811l-236.998 -0.000976562v-811h-199v811h-182v174h182v166c0 105.333 30.667 188 92 248s138.666 90 231.999 90c58.667 0 97 -7 115 -21v-172c-20.667 8 -50.334 12 -89.001 12c-39.333 0 -74.333 -12.333 -105 -37c-30.667 -25.333 -46 -68.666 -46 -129.999
v-156h237v-174z" />
    <glyph glyph-name="g" unicode="g" horiz-adv-x="1183" 
d="M856 524c0 93.333 -26.001 169.333 -78.001 228s-120 88 -204 88s-152 -28.667 -204 -86s-78.333 -134 -79 -230c0.666992 -96 26.334 -172.667 77.001 -230c50.667 -56.667 118.667 -85 204 -85s154 29 206 87s78 134 78 228zM546.999 -252
c200.667 0 301.002 106.667 301.002 320v141c-24.667 -48 -63.334 -87 -116.001 -117s-114.334 -45 -185.001 -45c-131.333 0 -239.666 44.667 -324.999 134s-128 202.666 -128 339.999s42.333 252 127 344c84.667 92.667 197.667 139 339 139s238 -52 290 -156v137h190
v-911c0 -135.333 -35.333 -248.666 -106 -339.999c-36 -48 -87.333 -85.667 -154 -113s-144.334 -41 -233.001 -41c-120.667 0 -223.667 34.667 -309 104s-134 157 -146 263l187 43c6 -69.333 33.667 -127 83 -173s111 -69 185 -69z" />
    <glyph glyph-name="h" unicode="h" horiz-adv-x="1150" 
d="M356 0h-192.001v1483h192v-613c65.333 96 160 144 284 144s216 -36.333 276 -109c60.667 -72.667 91.334 -166 92.001 -280v-625h-193v592c0 165.333 -76.333 248 -229 248c-70.667 0 -126 -24 -166 -72s-61.333 -110.667 -64 -188v-580z" />
    <glyph glyph-name="i" unicode="i" horiz-adv-x="518" 
d="M121 1358c0 38 13.333 70.6689 40 98.002s59 41 97 41s70.667 -13.333 98 -40s41 -59.334 41 -98.001s-13.667 -71.334 -41 -98.001s-60 -40 -98 -40s-70.333 13.333 -97 40s-40 59 -40 97zM354 0.00195312h-190v985h190v-985z" />
    <glyph glyph-name="j" unicode="j" horiz-adv-x="520" 
d="M121 1362c0 38 13.333 70.6689 40 98.002s59 41 97 41s70.667 -13.333 98 -40s41 -59.334 41 -98.001s-13.667 -71.334 -41 -98.001s-60 -40 -98 -40s-70.333 13.333 -97 40s-40 59 -40 97zM164 -105.998l-0.000976562 1091h192v-1100c0 -90 -24.667 -163.333 -74 -220
s-115.333 -85 -198 -85c-48 0 -86.333 4.66699 -115 14v162c20.667 -4 41.334 -6 62.001 -6c88.667 0.666992 133 48.667 133 144z" />
    <glyph glyph-name="k" unicode="k" horiz-adv-x="1075" 
d="M354 0h-190v1483h190v-934l426 436h267l-420 -416l428 -569h-242l-321 434l-138 -137v-297z" />
    <glyph glyph-name="l" unicode="l" horiz-adv-x="520" 
d="M356 0h-192v1483h192v-1483z" />
    <glyph glyph-name="m" unicode="m" horiz-adv-x="1755" 
d="M354 0h-189.997v985h184v-131c30 52 72.333 91.667 127 119s113 41 175 41s119.667 -15.667 173 -47s93 -78 119 -140c68 124 178 186.333 330 187c94 0 174 -32 240 -96s99.333 -157 100 -279v-639h-191v618c0 68 -17.333 122.667 -52 164
c-35.333 41.333 -87 62 -155 62s-123 -23.667 -165 -71s-63.333 -106.333 -64 -177v-596h-192v618c-0.666992 68 -18.334 122.667 -53.001 164s-86.334 62 -155.001 62s-124.334 -23.333 -167.001 -70s-64 -106.667 -64 -180v-594z" />
    <glyph glyph-name="n" unicode="n" horiz-adv-x="1150" 
d="M356 569l-0.000976562 -569h-192v985h188v-141c65.333 113.333 166.333 170 303 170c113.333 0 200.333 -36.333 261 -109s91.334 -166 92.001 -280v-625h-193v592c0 165.333 -76.333 248 -229 248c-73.333 0 -130 -25.667 -170 -77s-60 -116 -60 -194z" />
    <glyph glyph-name="o" unicode="o" horiz-adv-x="1171" 
d="M586 1016c146 0 266.334 -49.334 361.001 -148.001c95.333 -98.667 143 -223.667 143 -375s-47.333 -276.333 -142 -375s-215.334 -148 -362.001 -148s-267.334 49.333 -362.001 148s-142 223.334 -142 374.001s47.333 276 142 376
c94.667 98.667 215.334 148 362.001 148zM586.001 140.999c86 0 158.667 31 218 93c59.333 61.333 89 147.333 89 258s-29.667 197 -89 259s-132 93 -218 93s-158.667 -31 -218 -93s-89 -148 -89 -258s29.667 -196.333 89 -259s132 -93.667 218 -93z" />
    <glyph glyph-name="p" unicode="p" horiz-adv-x="1214" 
d="M936 492c0 101.333 -26.332 184.001 -78.999 248.001s-123 96.667 -211 98c-88 0 -159 -32.667 -213 -98s-81 -148 -81 -248c0 -101.333 27 -184.333 81 -249s124.667 -97 212 -97s157.666 32 210.999 96c53.333 65.333 80 148.666 80 249.999zM354.001 -388.999
l-189.999 0.000976562v1374h186v-154c28.667 52 71.667 94.333 129 127s124.333 49.334 201 50.001c142 0 253 -48.667 333 -146s120 -220.333 120 -369s-41.333 -272.334 -124 -371.001s-194.334 -148.334 -335.001 -149.001c-72.667 0 -137 15 -193 45
s-98.333 68.333 -127 115v-522z" />
    <glyph glyph-name="q" unicode="q" horiz-adv-x="1189" 
d="M279 496c0.666992 -102.667 27 -187.002 79 -253.002s121.333 -99 208 -99s157 32.667 211 98c54 66.667 81 151.334 81 254.001s-26.667 185.334 -80 248.001s-124 94.667 -212 96c-88 0 -158 -31.667 -210 -95s-77.667 -146.333 -77 -249zM1047 -389.002
l-190.999 -0.000976562v528c-26 -50.667 -66 -91 -120 -121s-116.333 -45 -187 -45c-138 0 -250.333 50.333 -337 151s-130 224 -130 370s42 268.333 126 367s196.333 148.334 337 149.001c79.333 0 145.666 -17.333 198.999 -52s92 -76 116 -124v151h187v-1374z" />
    <glyph glyph-name="r" unicode="r" horiz-adv-x="751" 
d="M627 797c-180 0 -270.333 -101 -271 -303v-494h-192v985h188v-172c60 125.333 158.333 188 295 188c22 0 43.333 -2 64 -6v-204c-28.667 4 -56.667 6 -84 6z" />
    <glyph glyph-name="s" unicode="s" horiz-adv-x="925" 
d="M464 133c60 0 104.668 12.6729 134.001 38.0059c30 25.333 45 56.333 45 93c0 65.333 -42.333 107.666 -127 126.999l-168 37c-76 16 -136 48.667 -180 98s-66 112.666 -66 189.999s34.667 146.666 104 207.999s151.666 92 246.999 92
c162.667 0 277.334 -61.667 344.001 -185c13.333 -26 23.333 -52.333 30 -79l-170 -64c-5.33301 34.667 -18 65 -38 91c-38 48.667 -93.333 73 -166 73c-48 0 -87.333 -13 -118 -39s-46 -56.667 -46 -92c0 -62.667 37.333 -102.334 112 -119.001l160 -35
c87.333 -19.333 154.666 -54.333 201.999 -105s71 -114.334 71 -191.001c0 -76 -32 -145.333 -96 -208s-154.333 -94 -271 -94c-117.333 0 -210.333 30.333 -279 91c-68 61.333 -106.667 126.666 -116 195.999l174 61c6.66699 -53.333 29.667 -97.333 69 -132
s89 -52 149 -52z" />
    <glyph glyph-name="t" unicode="t" horiz-adv-x="727" 
d="M422 299c0 -90 40.668 -135 122.001 -135c38.667 0 69 2.66699 91 8v-164c-32.667 -12 -76.334 -18 -131.001 -18c-84.667 0 -151.667 24.667 -201 74s-74 118 -74 206v541h-188v174h53c50.667 0 88.667 14 114 42s38 64.667 38 110v159h176v-311h213v-174h-213v-512z
" />
    <glyph glyph-name="u" unicode="u" horiz-adv-x="1159" 
d="M522 -31c-112 0 -201.334 37.3311 -268.001 111.998s-100 169.334 -100 284.001v620h192v-592c0 -74 18 -135 54 -183s92.333 -71.667 169 -71c76.667 0 134.667 23 174 69s59.333 107 60 183v594h192v-803c0 -64 3.66699 -124.667 11 -182h-185
c-5.33301 30 -8 69.667 -8 119c-26 -49.333 -65.667 -86.666 -119 -111.999s-110.666 -38 -171.999 -38z" />
    <glyph glyph-name="v" unicode="v" horiz-adv-x="1028" 
d="M1008 985l-394 -985h-194l-400 985h218l280 -760l283 760h207z" />
    <glyph glyph-name="w" unicode="w" horiz-adv-x="1624" 
d="M719 985h199l256 -741l217 741h202l-319 -985h-199l-262 750l-256 -750h-203l-323 985h211l221 -741z" />
    <glyph glyph-name="x" unicode="x" horiz-adv-x="1005" 
d="M20 0l367 502l-354 483h233l242 -346l237 346h228l-350 -483c20.667 -26 81.667 -109.333 183 -250s161 -224.667 179 -252h-231l-254 362l-250 -362h-230z" />
    <glyph glyph-name="y" unicode="y" horiz-adv-x="1071" 
d="M410 -412h-211l245 521l-424 876h222l307 -680l295 680h207z" />
    <glyph glyph-name="z" unicode="z" horiz-adv-x="954" 
d="M872 0h-790v168l541 643h-533v174h772v-168l-540 -643h550v-174z" />
    <glyph glyph-name="braceleft" unicode="{" horiz-adv-x="722" 
d="M92 563l-0.000976562 176c65.333 0.666992 119.333 17.667 162 51s63.667 85.333 63 156v281c0 254 123 381 369 381h27v-154h-27c-74 0 -126 -16.667 -156 -50s-45 -88.333 -45 -165v-336c0 -68 -18.667 -124 -56 -168s-89.666 -72 -156.999 -84
c66.667 -12 118.667 -40 156 -84s56.333 -100 57 -168v-333c0 -76.667 15 -131.667 45 -165s82 -50.333 156 -51h27v-153h-27c-246 0 -369 127 -369 381v278c0 70.667 -21 123 -63 157c-42.667 33.333 -96.667 50 -162 50z" />
    <glyph glyph-name="bar" unicode="|" horiz-adv-x="536" 
d="M352 -303h-168v1911h168v-1911z" />
    <glyph glyph-name="braceright" unicode="}" horiz-adv-x="722" 
d="M631 739l0.000976562 -176c-64.667 0 -118.334 -16.667 -161.001 -50s-64 -85.666 -64 -156.999v-278c0 -254 -123 -381 -369 -381h-27v153h27c74 0 126 16.667 156 50s45 88.666 45 165.999v333c0 68 18.667 124 56 168s89.666 72 156.999 84
c-66.667 12 -119 40 -157 84c-37.333 44 -56 100 -56 168v336c0 76.667 -15 131.667 -45 165s-82 50 -156 50h-27v154h27c246 0 369 -127 369 -381v-281c0 -70.667 21.333 -122.667 64 -156s96.334 -50.333 161.001 -51z" />
    <glyph glyph-name="asciitilde" unicode="~" horiz-adv-x="1167" 
d="M788 606c79.333 0 143.001 37.668 191.001 113.001l117 -94c-76.667 -126.667 -179.334 -190.334 -308.001 -191.001c-64 0 -130 18.333 -198 55l-94 52c-38 20.667 -75 30.667 -111 30c-74 0 -139.667 -38.667 -197 -116l-116 94c79.333 130 183 194.667 311 194
c66.667 0 131.667 -17.667 195 -53l94 -51c38 -22 76.667 -33 116 -33z" />
    <glyph glyph-name="uni00A0" unicode="&#xa0;" horiz-adv-x="512" 
 />
    <glyph glyph-name="exclamdown" unicode="&#xa1;" horiz-adv-x="567" 
d="M150 881c0 36.667 12.6699 68.335 38.0029 95.002s56.666 40 93.999 40s69.333 -13.333 96 -40s40 -58.334 40 -95.001s-13.333 -68.334 -40 -95.001s-58.334 -39.334 -95.001 -38.001c-36.667 0 -68.334 12.667 -95.001 38c-25.333 26.667 -38 58.334 -38 95.001z
M352.003 590.001l51 -1034h-241l53 1034h137z" />
    <glyph glyph-name="cent" unicode="&#xa2;" horiz-adv-x="1110" 
d="M293 672c0 -79.333 18 -145.667 54 -199s83.333 -89.333 142 -108v612c-58.667 -19.333 -106 -55 -142 -107s-54 -118 -54 -198zM645 -0.000976562l-155.999 -0.00195312v193c-114 20.667 -207 75 -279 163s-108 194 -108 318c0 122.667 36 227.334 108 314.001
s165 140.334 279 161.001v180h156v-176c96.667 -10.667 175 -43 235 -97s99.667 -117.333 119 -190l-165 -67c-12 43.333 -33.333 82.333 -64 117s-72.334 57.667 -125.001 69v-629c102.667 20.667 169 81.667 199 183l164 -68c-23.333 -69.333 -66 -131 -128 -185
s-140.333 -86.667 -235 -98v-188z" />
    <glyph glyph-name="sterling" unicode="&#xa3;" horiz-adv-x="1214" 
d="M145 735l144.002 -0.000976562c-40.667 92.667 -61.334 173.334 -62.001 242.001c0 110 39 201 117 273s174.333 108 289 108c143.333 0 248 -36.333 314 -109s102 -158 108 -256l-201 -35c-1.33301 74 -21.333 129.667 -60 167c-38.667 38 -88.667 57 -150 57
s-112.666 -18 -153.999 -54s-62 -84.667 -62 -146c0 -60.667 22.667 -143 68 -247h397v-176h-344c2.66699 -24.667 4 -43 4 -55c0 -70.667 -17 -134.667 -51 -192s-82 -102 -144 -134h416c65.333 0 114.666 20.667 147.999 62s49.666 93 48.999 155l192 -28
c0 -108.667 -30.333 -197 -91 -265s-143.667 -102 -249 -102h-690v195c68 28.667 122.667 69 164 121c40.667 52.667 61 107.667 61 165c0 30 -2.66699 56 -8 78h-205v176z" />
    <glyph glyph-name="currency" unicode="&#xa4;" horiz-adv-x="1191" 
d="M604 758c-76 0 -139.334 -25.332 -190.001 -75.999s-76 -115.334 -76 -194.001s25.667 -143.334 77 -194.001s114.333 -75.667 189 -75c74.667 0 137.334 25.333 188.001 76c49.333 50 74 114.333 74 193s-24.667 143.334 -74 194.001c-50 50.667 -112.667 76 -188 76z
M167.999 491.001c0 88.667 25.335 170.667 76.002 246l-154 158l123 121l154 -160c74 48 152.333 72 235 72s159 -21.333 229 -64l148 152l123 -121l-144 -150c56 -78 84 -164 84 -258s-27 -177 -81 -249l141 -146l-121 -121l-143 148
c-70.667 -45.333 -149.334 -68 -236.001 -68s-167.334 25.333 -242.001 76l-149 -156l-121 121l150 156c-48 73.333 -72 154.333 -72 243z" />
    <glyph glyph-name="yen" unicode="&#xa5;" horiz-adv-x="1191" 
d="M1051 317h-344v-317h-199v317h-346v148h346v164h-346v145h239l-350 553h234l321 -534l305 534h230l-334 -553h244v-145h-344v-164h344v-148z" />
    <glyph glyph-name="brokenbar" unicode="&#xa6;" horiz-adv-x="536" 
d="M184 514h168v-817h-168v817zM184 1608h168v-817h-168v817z" />
    <glyph glyph-name="section" unicode="&#xa7;" horiz-adv-x="1173" 
d="M803 459c0 74.667 -43.667 134.666 -131 179.999l-205 111c-26 -10.667 -49 -32 -69 -64s-29.667 -65.333 -29 -100c0 -75.333 43.667 -135.333 131 -180l205 -111c24.667 10.667 47 31.334 67 62.001s30.333 64.667 31 102zM991 507.999
c0 -69.333 -17.668 -128.005 -53.001 -176.005c-35.333 -46.667 -75 -79.667 -119 -99c56 -35.333 100 -79.666 132 -132.999s48 -107.666 48 -162.999c0 -112 -40.667 -203 -122 -273c-82 -69.333 -184.333 -104 -307 -104s-218 34.333 -286 103
c-68.667 68.667 -104.667 161.334 -108 278.001l182 36c0 -78 19.333 -140.333 58 -187s92.667 -69.667 162 -69c69.333 -0.666992 123.666 16.333 162.999 51s59 86.667 59 156s-40 124.666 -120 165.999l-213 111c-91.333 48.667 -161.666 98.334 -210.999 149.001
s-74 111.334 -74 182.001s18 130 54 178c36 47.333 76 79 120 95c-57.333 35.333 -102 79.666 -134 132.999s-48 108.666 -48 165.999c0 110.667 41 200.667 123 270s183.667 104 305 104s217.333 -35.667 288 -107c70.667 -72 106.334 -162.333 107.001 -271l-184 -37
c0 78 -19 139.667 -57 185c-38.667 45.333 -92 68.333 -160 69c-68 0 -122.667 -17.667 -164 -53s-61.666 -82.666 -60.999 -141.999c0 -75.333 41 -134 123 -176l211 -110c92.667 -49.333 163.667 -99.666 213 -150.999s73.666 -111.666 72.999 -180.999z" />
    <glyph glyph-name="dieresis" unicode="&#xa8;" horiz-adv-x="776" 
d="M461 1271c0 33.333 11.334 61.666 34.001 84.999s50.667 35 84 35s61.666 -11.667 84.999 -35c22.667 -23.333 34 -51.666 34 -84.999s-11.333 -61.333 -34 -84s-51 -34 -85 -34c-33.333 0 -61.333 11.333 -84 34s-34 50.667 -34 84zM78.001 1271
c0 33.333 11.334 61.666 34.001 84.999s50.667 35 84 35s61.666 -11.667 84.999 -35s35 -51.666 35 -84.999s-12 -61.333 -36 -84c-22.667 -22.667 -50.667 -34 -84 -34s-61.333 11.333 -84 34s-34 50.667 -34 84z" />
    <glyph glyph-name="copyright" unicode="&#xa9;" horiz-adv-x="1681" 
d="M838 1012c-65.333 0 -121.669 -24.667 -169.002 -74s-71 -118.333 -71 -207s23.667 -158 71 -208s105.666 -74.667 174.999 -74c116 0 190.333 55 223 165l139 -61c-23.333 -66.667 -65.666 -125 -126.999 -175c-62 -50 -145.667 -75 -251 -75s-196.666 41 -273.999 123
s-116 184.333 -116 307s38.333 224 115 304s168.334 120 275.001 120s190.667 -25.333 252 -76c60.667 -50.667 100.667 -110.667 120 -180l-143 -59c-11.333 46.667 -34.333 86.667 -69 120s-84.667 50 -150 50zM91.9971 727c0 208.667 72.668 386.999 218.001 534.999
s321.333 221.667 528 221c206.667 0 383.667 -74 531 -222c146.667 -148.667 220 -327 220 -535s-73.333 -386 -220 -534s-323.334 -222.333 -530.001 -223c-206.667 0 -383 74 -529 222c-145.333 148.667 -218 327.334 -218 536.001zM251.998 726.999
c0 -172 56.668 -316.333 170.001 -433s252 -175 416 -175s302.667 58.333 416 175s169.666 261 168.999 433c0 172 -56.667 316 -170 432c-112.667 116 -251 174 -415 174s-302.667 -58 -416 -174s-170 -260 -170 -432z" />
    <glyph glyph-name="ordfeminine" unicode="&#xaa;" horiz-adv-x="876" 
d="M395 735c122.667 0 184.331 63.666 184.998 190.999v30l-195 -30c-64 -9.33301 -96 -41.666 -96 -96.999c0.666992 -26 10.334 -48.333 29.001 -67s44.334 -27.667 77.001 -27zM370.997 611.999c-70.667 0 -127.67 20.6689 -171.003 62.002s-65 90.666 -65 147.999
c-0.666992 57.333 19 104.666 59 141.999s90.667 60 152 68l180 25c36 5.33301 54 23.333 54 54s-11.667 57 -35 79s-57.666 33 -102.999 33s-80.666 -12.333 -105.999 -37s-40.333 -56.667 -45 -96l-141 32c6.66699 64 36.334 118 89.001 162s124 66 214 66
s159 -24.333 207 -73s71.667 -110.334 71 -185.001v-347c0 -53.333 2.66699 -90.666 8 -111.999h-145c-5.33301 22 -8 52 -8 90c-44 -74 -115.667 -111 -215 -111z" />
    <glyph glyph-name="guillemotleft" unicode="&#xab;" horiz-adv-x="964" 
d="M924 203h-191l-272 391l272 391h191l-269 -391zM524 203h-190l-273 391l273 391h190l-268 -391z" />
    <glyph glyph-name="logicalnot" unicode="&#xac;" horiz-adv-x="1173" 
d="M1040 305h-172v400h-776v167h948v-567z" />
    <glyph glyph-name="uni00AD" unicode="&#xad;" horiz-adv-x="739" 
d="M647 504h-555v168h555v-168z" />
    <glyph glyph-name="registered" unicode="&#xae;" horiz-adv-x="1681" 
d="M743 629v-307h-155v823h284c79.333 0 145.666 -25 198.999 -75s80 -107.333 80 -172s-16.667 -119 -50 -163s-76.666 -74.667 -129.999 -92l184 -321h-178l-172 307h-62zM743 764h107c46.667 0 82 10.667 106 32s36.333 51 37 89c0 83.333 -47.667 125 -143 125h-107
v-246zM252 727c0 -172 56.668 -316.333 170.001 -433s252 -175 416 -175s302.667 58.333 416 175s169.666 261 168.999 433c0 172 -56.667 316 -170 432c-112.667 116 -251 174 -415 174s-302.667 -58 -416 -174s-170 -260 -170 -432zM92.001 727
c0 208.667 72.668 386.999 218.001 534.999s321.333 221.667 528 221c206.667 0 383.667 -74 531 -222c146.667 -148.667 220 -327 220 -535s-73.333 -386 -220 -534s-323.334 -222.333 -530.001 -223c-206.667 0 -383 74 -529 222
c-145.333 148.667 -218 327.334 -218 536.001z" />
    <glyph glyph-name="macron" unicode="&#xaf;" horiz-adv-x="702" 
d="M631 1182h-559v166h559v-166z" />
    <glyph glyph-name="degree" unicode="&#xb0;" horiz-adv-x="759" 
d="M51 1027c0 89.333 32.334 165.333 97.001 228c64 63.333 140.667 95 230 95s166.666 -31.333 231.999 -94s98 -139 98 -229c0 -89.333 -32.667 -165.333 -98 -228s-142.333 -94 -231 -94s-165.667 31.333 -231 94c-64.667 62.667 -97 138.667 -97 228zM221.001 1028
c0 -46.667 15 -85.334 45 -116.001s67.667 -46 113 -46s83 15.333 113 46s45 69.334 45 116.001s-15 85 -45 115s-67.667 45 -113 45s-83 -15 -113 -45s-45 -68.333 -45 -115z" />
    <glyph glyph-name="plusminus" unicode="&#xb1;" horiz-adv-x="1161" 
d="M133 266h895v-162h-895v162zM133 791h363v278h168v-278h364v-158h-364v-275h-168v275h-363v158z" />
    <glyph glyph-name="twosuperior" unicode="&#xb2;" horiz-adv-x="796" 
d="M131 1227c0 66.667 24.668 123.333 74.001 170c48.667 46 113.667 69 195 69s146.666 -22.667 195.999 -68s74 -101 74 -167c0 -90 -48 -165 -144 -225l-147 -93c-36.667 -24.667 -58 -49.667 -64 -75h359v-133h-549v26c0 126.667 58 225.667 174 297l123 76
c58.667 35.333 88 78.333 88 129c0 28.667 -10 53 -30 73s-47.333 30 -82 30s-62.667 -11.333 -84 -34c-21.333 -21.333 -32 -45 -32 -71s2.33301 -48.667 7 -68h-152c-4 20.667 -6 42 -6 64z" />
    <glyph glyph-name="threesuperior" unicode="&#xb3;" horiz-adv-x="843" 
d="M150 1319l0.000976562 133.001h555v-129l-205 -164c62.667 -5.33301 115 -27.333 157 -66c42 -38 63 -91 63 -159s-27.333 -126 -82 -174c-55.333 -48 -125.666 -72 -210.999 -72s-154 20.667 -206 62s-84.667 91 -98 149l137 55c6.66699 -39.333 24.667 -71 54 -95
s64.666 -36 105.999 -36s75.333 10.667 102 32c26 21.333 39 50 39 86s-13.667 63.333 -41 82c-42.667 29.333 -94.334 35.666 -155.001 18.999l-60 115l195 162h-350z" />
    <glyph glyph-name="acute" unicode="&#xb4;" horiz-adv-x="561" 
d="M492 1411l-259 -299h-161l178 299h242z" />
    <glyph glyph-name="mu" unicode="&#xb5;" horiz-adv-x="1169" 
d="M532 -31c-62.667 0 -121.333 13.666 -176 40.999v-399h-192v1374h192v-592c0 -74 18 -135 54 -183s92.667 -71.667 170 -71c76.667 0 134.667 23 174 69s59 107 59 183v594h193v-803c0 -78 3.33301 -138.667 10 -182h-185c-5.33301 30 -8 69.667 -8 119
c-26 -49.333 -65.667 -86.666 -119 -111.999c-52 -25.333 -109.333 -38 -172 -38z" />
    <glyph glyph-name="paragraph" unicode="&#xb6;" horiz-adv-x="1282" 
d="M672 1286v-1698h-170v1069h-33c-108 0 -201.333 37.667 -280 113c-78 75.333 -117 172 -117 290s44 213 132 285s198.333 107.667 331 107h696v-166h-199v-1698h-170v1698h-190z" />
    <glyph glyph-name="periodcentered" unicode="&#xb7;" horiz-adv-x="571" 
d="M143 582c0 39.333 13.667 73 41 101c26.667 28 60 42 100 42s74 -14 102 -42s42 -61.667 42 -101c0 -38.667 -14 -72 -42 -100s-61.667 -42 -101 -42s-73 13.667 -101 41c-27.333 28 -41 61.667 -41 101z" />
    <glyph glyph-name="cedilla" unicode="&#xb8;" horiz-adv-x="602" 
d="M530 -263c0 -51.333 -20.334 -94.667 -61.001 -130s-105 -53 -193 -53s-158 31.333 -210 94l75 92c42 -46.667 91.333 -70 148 -70c27.333 0 50.333 6 69 18s27.667 28 27 48c0 20.667 -8.33301 37 -25 49s-37 18 -61 18s-45 -3.33301 -63 -10l-68 80l98 156h146
l-80 -123c58.667 0 106.334 -15.333 143.001 -46s55 -71.667 55 -123z" />
    <glyph glyph-name="onesuperior" unicode="&#xb9;" horiz-adv-x="600" 
d="M436 705h-157v501h-177v107c49.333 1.33301 91.333 15.333 126 42s55.667 59 63 97h145v-747z" />
    <glyph glyph-name="ordmasculine" unicode="&#xba;" horiz-adv-x="991" 
d="M496 1350c104 0 189.667 -34.666 257 -103.999s101 -157.666 101 -264.999c0 -106.667 -33.667 -194.667 -101 -264c-67.333 -70 -153 -105 -257 -105s-189.667 34.667 -257 104s-101.333 157.666 -102 264.999s33 195.666 101 264.999s154 104 258 104zM291 981.001
c-0.666992 -72.667 19 -129.334 59 -170.001s88.333 -61 145 -61s104.667 20.333 144 61s59 97.334 59 170.001s-19.333 129 -58 169s-86.667 60 -144 60s-106 -20 -146 -60s-59.667 -96.333 -59 -169z" />
    <glyph glyph-name="guillemotright" unicode="&#xbb;" horiz-adv-x="964" 
d="M231 203h-190l268 391l-268 391h190l273 -391zM631 203h-191l269 391l-269 391h191l272 -391z" />
    <glyph glyph-name="onequarter" unicode="&#xbc;" horiz-adv-x="1597" 
d="M1206 281v284l-227 -284h227zM827 147v150l363 451h174v-467h131v-134h-131v-147h-158v147h-379zM354 0h-188l954 1327h185zM446 580h-157.001v501h-176v107c49.333 1.33301 91.333 15.333 126 42s55.334 59 62.001 97h145v-747z" />
    <glyph glyph-name="onehalf" unicode="&#xbd;" horiz-adv-x="1595" 
d="M1224 762c81.333 0 146.669 -23.001 196.002 -69.001s73.666 -101.667 72.999 -167c0 -90 -47.667 -165 -143 -225l-148 -92c-36.667 -24.667 -57.667 -50 -63 -76h358v-133h-549v27c0 126.667 58 225.667 174 297l123 75c58.667 35.333 88 78.333 88 129
c0 28.667 -9.66699 53 -29 73c-20 20 -47.333 30 -82 30s-62.667 -11 -84 -33c-21.333 -21.333 -32 -45.333 -32 -72s2 -49 6 -67h-151c-4 20.667 -6.33301 41.667 -7 63c0 66.667 24.667 123.334 74 170.001s114.666 70 195.999 70zM446.003 579.999h-157.001v501h-176v107
c49.333 1.33301 91.333 15.333 126 42s55.334 59 62.001 97h145v-747zM352.002 -0.000976562h-188l954 1327h185z" />
    <glyph glyph-name="threequarters" unicode="&#xbe;" horiz-adv-x="1740" 
d="M1350 281v284l-228 -284h228zM971 147v150l362 451h174v-467h131v-134h-131v-147h-157v147h-379zM139 1194v133.001h555v-129l-205 -164c62 -5.33301 114.333 -27.333 157 -66s64 -92 64 -160s-27.333 -125.667 -82 -173c-55.333 -48 -125.666 -72 -210.999 -72
c-85.333 -0.666992 -154 19.666 -206 60.999s-84.667 91.333 -98 150l137 55c6.66699 -39.333 24.667 -71 54 -95s64.666 -36 105.999 -36s75.333 10.667 102 32c26 21.333 39 50 39 86s-13.667 63.333 -41 82s-55.333 28 -84 28s-52.667 -2.66699 -72 -8l-59 114l194 162
h-350zM535 0.000976562h-189l954 1327h185z" />
    <glyph glyph-name="questiondown" unicode="&#xbf;" horiz-adv-x="1044" 
d="M655 883c0 -36.667 -13 -68.333 -39 -95s-57.333 -40 -94 -40s-68.334 13.333 -95.001 40s-40 58 -40 94c0 37.333 13.333 69 40 95s58.334 39 95.001 39s68 -13 94 -39s39 -57.333 39 -94zM614 520.001c0 -136.667 -56.667 -243.005 -170 -319.005l-90 -62
c-72.667 -49.333 -108.667 -116 -108 -200c0 -65.333 21 -120.666 63 -165.999s103.333 -68 184 -68s143 26 187 78s65.667 113.333 65 184c0 40.667 -4.66699 74.334 -14 101.001l199 -25c8 -28.667 12 -69 12 -121s-15 -108.667 -45 -170s-80.333 -114.666 -151 -159.999
s-156.334 -67.666 -257.001 -66.999c-136.667 0 -245.667 41 -327 123s-121.666 178.333 -120.999 289c0 143.333 69.667 262 209 356l94 63c60 40.667 90 106.334 90 197.001c0 16.667 -0.666992 29.667 -2 39h180c1.33301 -16.667 2 -40.667 2 -72z" />
    <glyph glyph-name="Agrave" unicode="&#xc0;" horiz-adv-x="1427" 
d="M616 1554l-282 244h264l209 -244h-191zM709 1243l-248 -651h500zM1190 0l-158 406h-643l-153 -406h-216l578 1452h231l578 -1452h-217z" />
    <glyph glyph-name="Aacute" unicode="&#xc1;" horiz-adv-x="1427" 
d="M1087 1798l-280 -244h-193l207 244h266zM709 1243l-248 -651h500zM1190 0l-158 406h-643l-153 -406h-216l578 1452h231l578 -1452h-217z" />
    <glyph glyph-name="Acircumflex" unicode="&#xc2;" horiz-adv-x="1427" 
d="M539 1554h-187l230 244h245l240 -244h-188l-174 132zM709 1243l-248 -651h500zM1190 0l-158 406h-643l-153 -406h-216l578 1452h231l578 -1452h-217z" />
    <glyph glyph-name="Atilde" unicode="&#xc3;" horiz-adv-x="1427" 
d="M1036 1804l-0.00195312 -31.999c0 -74 -18 -130.333 -54 -169c-36 -39.333 -81.667 -59 -137 -59s-105.666 15.667 -150.999 47l-30 21c-31.333 19.333 -56.666 28.666 -75.999 27.999c-48 0 -72 -30 -72 -90h-139v33c0 74 18.333 130.333 55 169s81.667 58 135 58
s106 -15.667 158 -47l31 -18c34 -19.333 60 -29 78 -29c44 0 65.667 24 65 72v16h137zM708.998 1243l-248 -651h500zM1190 0.000976562l-158 406h-643l-153 -406h-216l578 1452h231l578 -1452h-217z" />
    <glyph glyph-name="Adieresis" unicode="&#xc4;" horiz-adv-x="1427" 
d="M709 1243l-248 -651h500zM1190 0l-158 406h-643l-153 -406h-216l578 1452h231l578 -1452h-217zM887 1677c0 34 11.668 62.667 35.001 86s52 35 86 35s62.667 -11.667 86 -35c22.667 -23.333 34 -52 34 -86s-11.333 -62.667 -34 -86s-51.334 -35 -86.001 -35
c-34 0 -62.667 11.667 -86 35s-35 52 -35 86zM291.001 1677c0 34 11.668 62.667 35.001 86s52 35 86 35s62.667 -11.667 86 -35c22.667 -23.333 34 -52 34 -86s-11.333 -62.667 -34 -86s-51.334 -35 -86.001 -35c-34 0 -62.667 11.667 -86 35s-35 52 -35 86z" />
    <glyph glyph-name="Aring" unicode="&#xc5;" horiz-adv-x="1427" 
d="M459 1547c0 74 25 135.667 75 185s109 73.333 177 72c68 0 126.667 -24 176 -72s74 -108.667 74 -182s-32.333 -135.333 -97 -186l543 -1364h-217l-158 406h-643l-153 -406h-216l541 1360c-68 50.667 -102 113 -102 187zM602 1555c0 -28.667 10 -53 30 -73s45 -30 75 -30
s55 10 75 30s30.333 44.333 31 73c0 29.333 -10.667 54.666 -32 75.999c-20.667 21.333 -45.667 32 -75 32s-54 -10.667 -74 -32s-30 -46.666 -30 -75.999zM709 1243l-248 -651h500z" />
    <glyph glyph-name="AE" unicode="&#xc6;" horiz-adv-x="2101" 
d="M1096 582v704l-455 -704h455zM1978 0h-882v401h-570l-258 -401h-258l967 1452h1001v-186h-682v-447h619v-188h-619v-445h682v-186z" />
    <glyph glyph-name="Ccedilla" unicode="&#xc7;" horiz-adv-x="1536" 
d="M813 1483c164 0 302.329 -41.333 414.996 -124s187.334 -195 224.001 -337l-186 -66c-27.333 109.333 -80 193.666 -158 252.999s-176.333 89 -295 89c-142 0 -263.667 -50 -365 -150s-151.666 -240.333 -150.999 -421c0 -180 50.667 -320.667 152 -422
s222.666 -151.666 363.999 -150.999c116 0 214.333 32 295 96s136.667 148 168 252l178 -66c-37.333 -126.667 -104.666 -231.667 -201.999 -315s-215 -132.666 -353 -147.999l-43 -67c58.667 0 106.334 -15.333 143.001 -46s55 -71.667 55 -123s-20 -94.666 -60 -129.999
c-41.333 -35.333 -106 -53 -194 -53s-158 31.333 -210 94l76 92c42 -46.667 91 -70 147 -70c27.333 0 50.333 6 69 18s28 28 28 48c0 20.667 -8.33301 37 -25 49s-37 18 -61 18s-45.333 -3.33301 -64 -10l-68 80l62 98c-186 12.667 -342.667 87 -470 223
s-191.333 313.667 -192 533c0 155.333 35.333 291.666 106 408.999s160.334 204.666 269.001 261.999c108 56.667 223.333 85 346 85z" />
    <glyph glyph-name="Egrave" unicode="&#xc8;" horiz-adv-x="1189" 
d="M588 1554l-283 244h264l209 -244h-190zM1067 0h-883v1452h883v-186h-682v-447h619v-188h-619v-445h682v-186z" />
    <glyph glyph-name="Eacute" unicode="&#xc9;" horiz-adv-x="1189" 
d="M952 1798l-280 -244h-193l207 244h266zM1067 0h-883v1452h883v-186h-682v-447h619v-188h-619v-445h682v-186z" />
    <glyph glyph-name="Ecircumflex" unicode="&#xca;" horiz-adv-x="1189" 
d="M455 1554h-187l230 244h245l240 -244h-188l-174 132zM1067 0h-883v1452h883v-186h-682v-447h619v-188h-619v-445h682v-186z" />
    <glyph glyph-name="Edieresis" unicode="&#xcb;" horiz-adv-x="1189" 
d="M1067 0h-883v1452h883v-186h-682v-447h619v-188h-619v-445h682v-186zM745 1677c0 34 11.667 62.667 35 86s52 35 86 35s62.667 -11.667 86 -35s35 -52 35 -86s-11.667 -62.667 -35 -86s-52 -35 -86 -35s-62.667 11.667 -86 35s-35 52 -35 86zM272 1677
c0 34 11.667 62.667 35 86s52 35 86 35s62.667 -11.667 86 -35s35 -52 35 -86s-11.667 -62.667 -35 -86s-52 -35 -86 -35s-62.667 11.667 -86 35s-35 52 -35 86z" />
    <glyph glyph-name="Igrave" unicode="&#xcc;" horiz-adv-x="573" 
d="M190 1554l-282 244h264l209 -244h-191zM389 0h-205v1452h205v-1452z" />
    <glyph glyph-name="Iacute" unicode="&#xcd;" horiz-adv-x="573" 
d="M666 1798l-281 -244h-192l206 244h267zM389 0h-205v1452h205v-1452z" />
    <glyph glyph-name="Icircumflex" unicode="&#xce;" horiz-adv-x="573" 
d="M129 1554h-186l229 244h246l239 -244h-188l-174 132zM389 0h-205v1452h205v-1452z" />
    <glyph glyph-name="Idieresis" unicode="&#xcf;" horiz-adv-x="573" 
d="M389 0h-205v1452h205v-1452zM336 1676c0 30.667 10.666 56.666 31.999 77.999s47.333 32 78 32s56.334 -10.333 77.001 -31c21.333 -20.667 32 -46.667 32 -78s-10.667 -57.666 -32 -78.999s-47 -32 -77 -32c-30.667 0 -56.667 10.667 -78 32s-32 47.333 -32 78z
M22.999 1677c0 31.333 10.333 57.334 31 78.001c21.333 20.667 47.333 31 78 31s56.667 -10.667 78 -32s32 -47.333 32 -78s-11 -56.667 -33 -78s-48 -32 -78 -32s-55.667 10.667 -77 32c-20.667 21.333 -31 47.666 -31 78.999z" />
    <glyph glyph-name="Eth" unicode="&#xd0;" horiz-adv-x="1482" 
d="M393 178h297c142 0 259.667 47 353 141c94 94 141 229 141 405s-46 311.333 -138 406c-92 95.333 -209.333 143.333 -352 144h-301v-440h250v-168h-250v-488zM696 0h-503v666h-156v168h156v618h507c195.333 0 359.333 -64.667 492 -194s199 -307.333 199 -534
s-67 -404 -201 -532s-298.667 -192 -494 -192z" />
    <glyph glyph-name="Ntilde" unicode="&#xd1;" horiz-adv-x="1562" 
d="M1112 1804v-31.999c0 -74 -18 -130.333 -54 -169c-36 -39.333 -82 -59 -138 -59s-106 15.667 -150 47l-31 21c-31.333 19.333 -56.333 28.666 -75 27.999c-48 0 -72 -30 -72 -90h-139v33c0 74 18.333 130.333 55 169s81.667 58 135 58s106 -15.667 158 -47l30 -18
c32.667 -19.333 58.667 -29 78 -29c44 0 66 24 66 72v16h137zM1378 0.000976562h-209l-784 1184v-1184h-201v1452h269l725 -1114v1114h200v-1452z" />
    <glyph glyph-name="Ograve" unicode="&#xd2;" horiz-adv-x="1642" 
d="M739 1554l-282 244h264l209 -244h-191zM92 727c0 116.667 20.668 223.667 62.001 321c77.333 180 210.333 308 399 384c86 34 175.333 51 268 51c190.667 0 357.667 -65.333 501 -196c69.333 -62 124.666 -141.333 165.999 -238s62 -204 62 -322
c0 -155.333 -35.667 -292 -107 -410c-72 -117.333 -162.667 -204.666 -272 -261.999s-226 -86 -350 -86s-240.667 28.667 -350 86c-108.667 58 -199 145.667 -271 263s-108 253.666 -108 408.999zM297.001 727c0 -180 51.335 -320.666 154.002 -421.999
c103.333 -100.667 227 -151 371 -151s267.333 50.667 370 152s154 241.666 154 420.999c0 180 -51.333 320.333 -154 421c-102.667 100 -226.334 150 -371.001 150s-268.334 -50 -371.001 -150s-153.667 -240.333 -153 -421z" />
    <glyph glyph-name="Oacute" unicode="&#xd3;" horiz-adv-x="1642" 
d="M1182 1798l-281 -244h-192l206 244h267zM92 727c0 116.667 20.668 223.667 62.001 321c77.333 180 210.333 308 399 384c86 34 175.333 51 268 51c190.667 0 357.667 -65.333 501 -196c69.333 -62 124.666 -141.333 165.999 -238s62 -204 62 -322
c0 -155.333 -35.667 -292 -107 -410c-72 -117.333 -162.667 -204.666 -272 -261.999s-226 -86 -350 -86s-240.667 28.667 -350 86c-108.667 58 -199 145.667 -271 263s-108 253.666 -108 408.999zM297.001 727c0 -180 51.335 -320.666 154.002 -421.999
c103.333 -100.667 227 -151 371 -151s267.333 50.667 370 152s154 241.666 154 420.999c0 180 -51.333 320.333 -154 421c-102.667 100 -226.334 150 -371.001 150s-268.334 -50 -371.001 -150s-153.667 -240.333 -153 -421z" />
    <glyph glyph-name="Ocircumflex" unicode="&#xd4;" horiz-adv-x="1642" 
d="M651 1554h-186l229 244h246l240 -244h-189l-174 132zM92 727c0 116.667 20.668 223.667 62.001 321c77.333 180 210.333 308 399 384c86 34 175.333 51 268 51c190.667 0 357.667 -65.333 501 -196c69.333 -62 124.666 -141.333 165.999 -238s62 -204 62 -322
c0 -155.333 -35.667 -292 -107 -410c-72 -117.333 -162.667 -204.666 -272 -261.999s-226 -86 -350 -86s-240.667 28.667 -350 86c-108.667 58 -199 145.667 -271 263s-108 253.666 -108 408.999zM297.001 727c0 -180 51.335 -320.666 154.002 -421.999
c103.333 -100.667 227 -151 371 -151s267.333 50.667 370 152s154 241.666 154 420.999c0 180 -51.333 320.333 -154 421c-102.667 100 -226.334 150 -371.001 150s-268.334 -50 -371.001 -150s-153.667 -240.333 -153 -421z" />
    <glyph glyph-name="Otilde" unicode="&#xd5;" horiz-adv-x="1642" 
d="M1159 1806l-0.00195312 -31.999c0 -74 -18 -130.333 -54 -169c-36 -39.333 -81.667 -59 -137 -59s-105.666 15.667 -150.999 47l-31 21c-31.333 19.333 -56.333 28.666 -75 27.999c-48 0 -72 -30 -72 -90h-139v33c0 74 18.333 130.333 55 169s81.667 58 135 58
s106 -15.667 158 -47l31 -18c32.667 -19.333 58.334 -29 77.001 -29c44 0 66 24 66 72v16h137zM91.998 727.001c0 116.667 20.668 223.667 62.001 321c77.333 180 210.333 308 399 384c86 34 175.333 51 268 51c190.667 0 357.667 -65.333 501 -196
c69.333 -62 124.666 -141.333 165.999 -238s62 -204 62 -322c0 -155.333 -35.667 -292 -107 -410c-72 -117.333 -162.667 -204.666 -272 -261.999s-226 -86 -350 -86s-240.667 28.667 -350 86c-108.667 58 -199 145.667 -271 263s-108 253.666 -108 408.999z
M296.999 727.001c0 -180 51.335 -320.666 154.002 -421.999c103.333 -100.667 227 -151 371 -151s267.333 50.667 370 152s154 241.666 154 420.999c0 180 -51.333 320.333 -154 421c-102.667 100 -226.334 150 -371.001 150s-268.334 -50 -371.001 -150
s-153.667 -240.333 -153 -421z" />
    <glyph glyph-name="Odieresis" unicode="&#xd6;" horiz-adv-x="1642" 
d="M92 727c0 116.667 20.668 223.667 62.001 321c77.333 180 210.333 308 399 384c86 34 175.333 51 268 51c190.667 0 357.667 -65.333 501 -196c69.333 -62 124.666 -141.333 165.999 -238s62 -204 62 -322c0 -155.333 -35.667 -292 -107 -410
c-72 -117.333 -162.667 -204.666 -272 -261.999s-226 -86 -350 -86s-240.667 28.667 -350 86c-108.667 58 -199 145.667 -271 263s-108 253.666 -108 408.999zM297.001 727c0 -180 51.335 -320.666 154.002 -421.999c103.333 -100.667 227 -151 371 -151
s267.333 50.667 370 152s154 241.666 154 420.999c0 180 -51.333 320.333 -154 421c-102.667 100 -226.334 150 -371.001 150s-268.334 -50 -371.001 -150s-153.667 -240.333 -153 -421zM1020 1677c0 34 11.667 62.667 35 86s52 35 86 35s62.667 -11.667 86 -35
s35 -52 35 -86s-11.667 -62.667 -35 -86s-52 -35 -86 -35s-62.667 11.667 -86 35s-35 52 -35 86zM383.003 1677c0 34 11.667 62.667 35 86s52 35 86 35s62.667 -11.667 86 -35s35 -52 35 -86s-11.667 -62.667 -35 -86s-52 -35 -86 -35s-62.667 11.667 -86 35s-35 52 -35 86z
" />
    <glyph glyph-name="multiply" unicode="&#xd7;" horiz-adv-x="1085" 
d="M889 113l-348 358l-344 -356l-115 114l346 361l-344 356l117 117l342 -356l342 356l116 -115l-346 -358l349 -361z" />
    <glyph glyph-name="Oslash" unicode="&#xd8;" horiz-adv-x="1642" 
d="M1346 727c0 148.667 -39.001 274.334 -117.001 377.001l-680 -879c79.333 -48 170 -71.667 272 -71c144.667 0 268.334 50.667 371.001 152s154 241.666 154 420.999zM296.999 744c0 -168.667 40.333 -302.667 121 -402l680 879c-83.333 52 -175.666 77.667 -276.999 77
c-144.667 0 -268.334 -50 -371.001 -150s-153.667 -234.667 -153 -404zM91.999 727c0 116.667 20.667 223.666 62 320.999c77.333 180 210.333 308 399 384c86 34 175.333 51 268 51c142 0 272.333 -37.667 391 -113l148 189l139 -107l-149 -192
c134 -140.667 200.667 -318.334 200 -533.001c0 -155.333 -35.667 -292 -107 -410c-72 -117.333 -162.667 -204.666 -272 -261.999c-110 -57.333 -231 -86 -363 -86s-256.667 36.333 -374 109l-139 -182l-143 104l145 188c-136.667 140.667 -205 320.334 -205 539.001z" />
    <glyph glyph-name="Ugrave" unicode="&#xd9;" horiz-adv-x="1372" 
d="M637 1554l-283 244h264l209 -244h-190zM686 -31c-153.333 -0.666992 -278.669 45.666 -376.002 138.999s-146 222.666 -146 387.999v956h198v-950c0 -110.667 28.333 -196 85 -256s136.334 -90 239.001 -90s182 30 238 90s84 145.333 84 256v950h200v-956
c0 -165.333 -48.667 -294.666 -146 -387.999s-222.666 -139.666 -375.999 -138.999z" />
    <glyph glyph-name="Uacute" unicode="&#xda;" horiz-adv-x="1372" 
d="M1012 1798l-281 -244h-192l206 244h267zM686 -31c-153.333 -0.666992 -278.669 45.666 -376.002 138.999s-146 222.666 -146 387.999v956h198v-950c0 -110.667 28.333 -196 85 -256s136.334 -90 239.001 -90s182 30 238 90s84 145.333 84 256v950h200v-956
c0 -165.333 -48.667 -294.666 -146 -387.999s-222.666 -139.666 -375.999 -138.999z" />
    <glyph glyph-name="Ucircumflex" unicode="&#xdb;" horiz-adv-x="1372" 
d="M516 1554h-186l229 244h246l239 -244h-188l-174 132zM686 -31c-153.333 -0.666992 -278.669 45.666 -376.002 138.999s-146 222.666 -146 387.999v956h198v-950c0 -110.667 28.333 -196 85 -256s136.334 -90 239.001 -90s182 30 238 90s84 145.333 84 256v950h200v-956
c0 -165.333 -48.667 -294.666 -146 -387.999s-222.666 -139.666 -375.999 -138.999z" />
    <glyph glyph-name="Udieresis" unicode="&#xdc;" horiz-adv-x="1372" 
d="M686 -31c-153.333 -0.666992 -278.669 45.666 -376.002 138.999s-146 222.666 -146 387.999v956h198v-950c0 -110.667 28.333 -196 85 -256s136.334 -90 239.001 -90s182 30 238 90s84 145.333 84 256v950h200v-956c0 -165.333 -48.667 -294.666 -146 -387.999
s-222.666 -139.666 -375.999 -138.999zM792.997 1677c0 34 11.333 62.667 34 86c23.333 23.333 52 35 86 35s62.667 -11.667 86 -35s35 -52 35 -86s-11.667 -62.667 -35 -86s-52 -35 -86 -35s-62.667 11.667 -86 35c-22.667 23.333 -34 52 -34 86zM339.997 1677
c0 34 11.667 62.667 35 86s52 35 86 35s62.667 -11.667 86 -35s35 -52 35 -86s-11.667 -62.667 -35 -86s-52 -35 -86 -35s-62.667 11.667 -86 35s-35 52 -35 86z" />
    <glyph glyph-name="Yacute" unicode="&#xdd;" horiz-adv-x="1265" 
d="M956 1798l-280 -244h-193l207 244h266zM733 0h-201v621l-512 831h242l377 -647l377 647h229l-512 -831v-621z" />
    <glyph glyph-name="Thorn" unicode="&#xde;" horiz-adv-x="1212" 
d="M705 322h-320.001v-322h-201v1452h201v-281h317c134 -0.666992 244 -41 330 -121s129 -181.333 129 -304c0.666992 -122.667 -41.666 -224 -126.999 -304s-195 -120 -329 -120zM384.999 500h295c86 0 153.667 22 203 66c48.667 44 73 104 73 180s-24.333 136.333 -73 181
c-49.333 44.667 -117 66.667 -203 66h-295v-493z" />
    <glyph glyph-name="germandbls" unicode="&#xdf;" horiz-adv-x="1161" 
d="M731 711c0 -30.667 7.33301 -52.002 22 -64.002s38.667 -26.333 72 -43l72 -35c62 -30 113 -71 153 -123s60 -114 60 -186s-29 -138.667 -87 -200c-58 -60.667 -141.667 -91 -251 -91s-192 30.333 -248 91s-84 126.667 -84 198l170 45c0 -42 13.333 -81.667 40 -119
s65.667 -55.666 117 -54.999c51.333 0 89.666 12.667 114.999 38s38 53 38 83c0 65.333 -35.667 115 -107 149l-70 33c-104.667 46.667 -170 100.667 -196 162c-12 28.667 -18.333 61.334 -19 98.001c0 91.333 43 165 129 221l66 43c78 49.333 117 107.333 117 174
c0 52 -20 95.333 -60 130s-96.333 52.334 -169 53.001c-71.333 0 -131.666 -27.333 -180.999 -82s-74 -132 -74 -232v-999h-192v1010c0 146 42.667 261.333 128 346s191 127 317 127c126 0.666992 228.333 -32.333 307 -99s118 -149 118 -247
c0 -126.667 -60 -227.667 -180 -303l-59 -37c-42.667 -26.667 -64 -55.334 -64 -86.001z" />
    <glyph glyph-name="agrave" unicode="&#xe0;" horiz-adv-x="1071" 
d="M481 1112l-258 299h242l176 -299h-160zM459 131c86 0 155 23.333 207 70s77.667 120.334 77 221.001v45l-301 -45c-44 -6.66699 -78.667 -22.334 -104 -47.001s-38.333 -57 -39 -97c0 -40 14.667 -74.667 44 -104c29.333 -28.667 68 -43 116 -43zM419 -31
c-88.667 0 -163.667 29 -225 87s-92 128.333 -92 211s27.333 149.667 82 201s127 83 217 95l267 39c50.667 6.66699 76 33.667 76 81s-18 87.333 -54 120s-88 49 -156 49s-121 -18 -159 -54s-60.667 -84.333 -68 -145l-184 43c9.33301 93.333 52.333 170 129 230
s168 90 274 90c140 0 243.333 -34 310 -102s100 -154.333 100 -259v-493c0 -58.667 4 -112.667 12 -162h-188c-6.66699 40.667 -10 85 -10 133c-27.333 -44 -67.333 -82.333 -120 -115s-123 -49 -211 -49z" />
    <glyph glyph-name="aacute" unicode="&#xe1;" horiz-adv-x="1071" 
d="M870 1411l-258 -299h-161l178 299h241zM459 131c86 0 155 23.333 207 70s77.667 120.334 77 221.001v45l-301 -45c-44 -6.66699 -78.667 -22.334 -104 -47.001s-38.333 -57 -39 -97c0 -40 14.667 -74.667 44 -104c29.333 -28.667 68 -43 116 -43zM419 -31
c-88.667 0 -163.667 29 -225 87s-92 128.333 -92 211s27.333 149.667 82 201s127 83 217 95l267 39c50.667 6.66699 76 33.667 76 81s-18 87.333 -54 120s-88 49 -156 49s-121 -18 -159 -54s-60.667 -84.333 -68 -145l-184 43c9.33301 93.333 52.333 170 129 230
s168 90 274 90c140 0 243.333 -34 310 -102s100 -154.333 100 -259v-493c0 -58.667 4 -112.667 12 -162h-188c-6.66699 40.667 -10 85 -10 133c-27.333 -44 -67.333 -82.333 -120 -115s-123 -49 -211 -49z" />
    <glyph glyph-name="acircumflex" unicode="&#xe2;" horiz-adv-x="1071" 
d="M399 1116h-178l213 285h219l213 -285h-180l-143 166zM459 131c86 0 155 23.333 207 70s77.667 120.334 77 221.001v45l-301 -45c-44 -6.66699 -78.667 -22.334 -104 -47.001s-38.333 -57 -39 -97c0 -40 14.667 -74.667 44 -104c29.333 -28.667 68 -43 116 -43zM419 -31
c-88.667 0 -163.667 29 -225 87s-92 128.333 -92 211s27.333 149.667 82 201s127 83 217 95l267 39c50.667 6.66699 76 33.667 76 81s-18 87.333 -54 120s-88 49 -156 49s-121 -18 -159 -54s-60.667 -84.333 -68 -145l-184 43c9.33301 93.333 52.333 170 129 230
s168 90 274 90c140 0 243.333 -34 310 -102s100 -154.333 100 -259v-493c0 -58.667 4 -112.667 12 -162h-188c-6.66699 40.667 -10 85 -10 133c-27.333 -44 -67.333 -82.333 -120 -115s-123 -49 -211 -49z" />
    <glyph glyph-name="atilde" unicode="&#xe3;" horiz-adv-x="1071" 
d="M864 1386l0.000976562 -30c0 -72.667 -18.333 -128 -55 -166s-80.334 -57 -131.001 -57s-100 15 -148 45l-28 18c-31.333 19.333 -56.666 29 -75.999 29c-39.333 0 -59 -29.333 -59 -88h-148v30c0 72.667 18.667 128 56 166c36.667 38 81 57 133 57
s101.667 -14.667 149 -44l29 -19c31.333 -19.333 55.666 -29 72.999 -29c39.333 0 59.333 29.333 60 88h145zM459.001 131c86 0 155 23.333 207 70s77.667 120.334 77 221.001v45l-301 -45c-44 -6.66699 -78.667 -22.334 -104 -47.001s-38.333 -57 -39 -97
c0 -40 14.667 -74.667 44 -104c29.333 -28.667 68 -43 116 -43zM419.001 -31c-88.667 0 -163.667 29 -225 87s-92 128.333 -92 211s27.333 149.667 82 201s127 83 217 95l267 39c50.667 6.66699 76 33.667 76 81s-18 87.333 -54 120s-88 49 -156 49s-121 -18 -159 -54
s-60.667 -84.333 -68 -145l-184 43c9.33301 93.333 52.333 170 129 230s168 90 274 90c140 0 243.333 -34 310 -102s100 -154.333 100 -259v-493c0 -58.667 4 -112.667 12 -162h-188c-6.66699 40.667 -10 85 -10 133c-27.333 -44 -67.333 -82.333 -120 -115
s-123 -49 -211 -49z" />
    <glyph glyph-name="adieresis" unicode="&#xe4;" horiz-adv-x="1071" 
d="M608 1271c0 33.333 11.333 61.666 34 84.999s50.667 35 84 35s61.666 -11.667 84.999 -35s35 -51.666 35 -84.999s-11.667 -61.333 -35 -84s-51.666 -34 -84.999 -34s-61.333 11.333 -84 34s-34 50.667 -34 84zM225 1271c0 33.333 11.333 61.666 34 84.999
s50.667 35 84 35s61.666 -11.667 84.999 -35s35 -51.666 35 -84.999s-11.667 -61.333 -35 -84s-51.666 -34 -84.999 -34s-61.333 11.333 -84 34s-34 50.667 -34 84zM459 131c86 0 155 23.333 207 70s77.667 120.334 77 221.001v45l-301 -45
c-44 -6.66699 -78.667 -22.334 -104 -47.001s-38.333 -57 -39 -97c0 -40 14.667 -74.667 44 -104c29.333 -28.667 68 -43 116 -43zM419 -31c-88.667 0 -163.667 29 -225 87s-92 128.333 -92 211s27.333 149.667 82 201s127 83 217 95l267 39c50.667 6.66699 76 33.667 76 81
s-18 87.333 -54 120s-88 49 -156 49s-121 -18 -159 -54s-60.667 -84.333 -68 -145l-184 43c9.33301 93.333 52.333 170 129 230s168 90 274 90c140 0 243.333 -34 310 -102s100 -154.333 100 -259v-493c0 -58.667 4 -112.667 12 -162h-188c-6.66699 40.667 -10 85 -10 133
c-27.333 -44 -67.333 -82.333 -120 -115s-123 -49 -211 -49z" />
    <glyph glyph-name="aring" unicode="&#xe5;" horiz-adv-x="1071" 
d="M633 1313c0 27.333 -9.66699 51.002 -29 71.002s-43 29.667 -71 29c-27.333 0 -50.333 -10 -69 -30c-18.667 -20.667 -28 -44.334 -28 -71.001s9.33301 -49.667 28 -69s42 -29 70 -29s51.333 9.66699 70 29c19.333 19.333 29 42.666 29 69.999zM764 1314
c0 -62 -22.667 -115 -68 -159c-45.333 -43.333 -98.666 -65 -159.999 -65s-115 22 -161 66c-45.333 44 -68 96.667 -68 158c0 62 22.667 115 68 159c45.333 43.333 99 65 161 65c61.333 0 114.666 -22 159.999 -66s68 -96.667 68 -158zM459 131.002c86 0 155 23.333 207 70
s77.667 120.334 77 221.001v45l-301 -45c-44 -6.66699 -78.667 -22.334 -104 -47.001s-38.333 -57 -39 -97c0 -40 14.667 -74.667 44 -104c29.333 -28.667 68 -43 116 -43zM419 -30.998c-88.667 0 -163.667 29 -225 87s-92 128.333 -92 211s27.333 149.667 82 201
s127 83 217 95l267 39c50.667 6.66699 76 33.667 76 81s-18 87.333 -54 120s-88 49 -156 49s-121 -18 -159 -54s-60.667 -84.333 -68 -145l-184 43c9.33301 93.333 52.333 170 129 230s168 90 274 90c140 0 243.333 -34 310 -102s100 -154.333 100 -259v-493
c0 -58.667 4 -112.667 12 -162h-188c-6.66699 40.667 -10 85 -10 133c-27.333 -44 -67.333 -82.333 -120 -115s-123 -49 -211 -49z" />
    <glyph glyph-name="ae" unicode="&#xe6;" horiz-adv-x="1789" 
d="M1242 846c-80 0 -144.668 -25.001 -194.001 -75.001s-75.666 -109 -78.999 -177h538c-3.33301 74.667 -28.333 135.334 -75 182.001s-110 70 -190 70zM468.999 130.999c79.333 0 148.333 23.667 207 71s88 120 88 218v47l-322 -45c-95.333 -13.333 -143 -64 -143 -152
c0 -38 15.333 -70.667 46 -98s72 -41 124 -41zM1275 -31.001c-190 0 -331.668 71.0029 -425.001 213.003c-78 -142 -209.667 -213 -395 -213c-108 0 -193.667 28.667 -257 86c-64 57.333 -96 127.666 -96 210.999s27.333 150.666 82 201.999s127 83 217 95l285 39
c52 8 78 35 78 81s-19.667 86 -59 120s-93.666 51 -162.999 51s-124.666 -18.333 -165.999 -55s-65.666 -82.334 -72.999 -137.001l-180 34c8 93.333 54 170 138 230s176.667 90 278 90c162.667 0 279.334 -54.667 350.001 -164c94 109.333 212.333 164 355 164
s255.667 -46.667 339 -140s125 -218.666 125 -375.999c0 -27.333 -1.33301 -48 -4 -62h-741c1.33301 -86 30.666 -157.333 87.999 -214s127 -85 209 -85c138.667 0 230 66.333 274 199l168 -57c-28.667 -90 -83.334 -164.333 -164.001 -223
s-168.334 -88.334 -263.001 -89.001z" />
    <glyph glyph-name="ccedilla" unicode="&#xe7;" horiz-adv-x="1085" 
d="M82 504c0 144 47.332 265.001 141.999 363.001c94.667 99.333 207.334 149 338.001 149s233.334 -30.667 308.001 -92s123.334 -135.333 146.001 -222l-174 -73c-15.333 57.333 -44 106.333 -86 147c-42 41.333 -102.667 62 -182 62s-148.333 -30.667 -207 -92
s-88 -145.333 -88 -252s29 -191 87 -253s128 -93 210 -93c82.667 0 146 20.667 190 62s73.333 88 88 140l170 -74c-24.667 -72 -67.334 -136.667 -128.001 -194s-138.667 -93 -234 -107l-48 -71c58.667 0 106.667 -15.333 144 -46s55.666 -71.667 54.999 -123
c0 -51.333 -20 -94 -60 -128s-105 -51 -195 -51s-160 30 -210 90l76 92c42 -46.667 91 -70 147 -70c27.333 0 50.333 6 69 18s28 28 28 48c0 20.667 -8.33301 37 -25 49s-37 18 -61 18s-45.333 -3.33301 -64 -10l-67 80l65 102
c-126.667 15.333 -230.667 71.666 -312 168.999s-122 218 -122 362z" />
    <glyph glyph-name="egrave" unicode="&#xe8;" horiz-adv-x="1110" 
d="M512 1112l-258 299h242l176 -299h-160zM580 -31c-138.667 0.666992 -256.001 48.333 -352.001 143s-144 220 -144 376s46.333 282.667 139 380c92.667 98 203.334 147.333 332.001 148c148.667 0 264.667 -46.667 348 -140s125 -218.666 125 -375.999
c0 -24.667 -1.33301 -45.334 -4 -62.001h-741c1.33301 -87.333 30.333 -159 87 -215s126.667 -84 210 -84c140 0 232 66.333 276 199l166 -57c-28.667 -91.333 -82 -166.333 -160 -225s-172 -87.667 -282 -87zM562.999 845.999c-80.667 0 -145.667 -25.001 -195 -75.001
s-75.666 -109 -78.999 -177h538c-2 74.667 -26.333 135.334 -73 182.001s-110.334 70 -191.001 70z" />
    <glyph glyph-name="eacute" unicode="&#xe9;" horiz-adv-x="1110" 
d="M891 1411l-258 -299h-162l178 299h242zM580 -31c-138.667 0.666992 -256.001 48.333 -352.001 143s-144 220 -144 376s46.333 282.667 139 380c92.667 98 203.334 147.333 332.001 148c148.667 0 264.667 -46.667 348 -140s125 -218.666 125 -375.999
c0 -24.667 -1.33301 -45.334 -4 -62.001h-741c1.33301 -87.333 30.333 -159 87 -215s126.667 -84 210 -84c140 0 232 66.333 276 199l166 -57c-28.667 -91.333 -82 -166.333 -160 -225s-172 -87.667 -282 -87zM562.999 845.999c-80.667 0 -145.667 -25.001 -195 -75.001
s-75.666 -109 -78.999 -177h538c-2 74.667 -26.333 135.334 -73 182.001s-110.334 70 -191.001 70z" />
    <glyph glyph-name="ecircumflex" unicode="&#xea;" horiz-adv-x="1110" 
d="M428 1116h-178l213 285h219l213 -285h-180l-144 166zM580 -31c-138.667 0.666992 -256.001 48.333 -352.001 143s-144 220 -144 376s46.333 282.667 139 380c92.667 98 203.334 147.333 332.001 148c148.667 0 264.667 -46.667 348 -140s125 -218.666 125 -375.999
c0 -24.667 -1.33301 -45.334 -4 -62.001h-741c1.33301 -87.333 30.333 -159 87 -215s126.667 -84 210 -84c140 0 232 66.333 276 199l166 -57c-28.667 -91.333 -82 -166.333 -160 -225s-172 -87.667 -282 -87zM562.999 845.999c-80.667 0 -145.667 -25.001 -195 -75.001
s-75.666 -109 -78.999 -177h538c-2 74.667 -26.333 135.334 -73 182.001s-110.334 70 -191.001 70z" />
    <glyph glyph-name="edieresis" unicode="&#xeb;" horiz-adv-x="1110" 
d="M641 1271c0 33.333 11.333 61.666 34 84.999s50.667 35 84 35s61.666 -11.667 84.999 -35s35 -51.666 35 -84.999s-11.667 -61.333 -35 -84s-51.666 -34 -84.999 -34s-61.333 11.333 -84 34s-34 50.667 -34 84zM258 1271c0 33.333 11.333 61.666 34 84.999
s50.667 35 84 35s61.666 -11.667 84.999 -35s35 -51.666 35 -84.999s-11.667 -61.333 -35 -84s-51.666 -34 -84.999 -34s-61.333 11.333 -84 34s-34 50.667 -34 84zM580 -31c-138.667 0.666992 -256.001 48.333 -352.001 143s-144 220 -144 376s46.333 282.667 139 380
c92.667 98 203.334 147.333 332.001 148c148.667 0 264.667 -46.667 348 -140s125 -218.666 125 -375.999c0 -24.667 -1.33301 -45.334 -4 -62.001h-741c1.33301 -87.333 30.333 -159 87 -215s126.667 -84 210 -84c140 0 232 66.333 276 199l166 -57
c-28.667 -91.333 -82 -166.333 -160 -225s-172 -87.667 -282 -87zM562.999 845.999c-80.667 0 -145.667 -25.001 -195 -75.001s-75.666 -109 -78.999 -177h538c-2 74.667 -26.333 135.334 -73 182.001s-110.334 70 -191.001 70z" />
    <glyph glyph-name="igrave" unicode="&#xec;" horiz-adv-x="518" 
d="M354 0h-190v985h190v-985zM190 1112l-258 299h242l176 -299h-160z" />
    <glyph glyph-name="iacute" unicode="&#xed;" horiz-adv-x="518" 
d="M354 0h-190v985h190v-985zM594 1411l-258 -299h-162l178 299h242z" />
    <glyph glyph-name="icircumflex" unicode="&#xee;" horiz-adv-x="518" 
d="M117 1116h-178l213 285h219l213 -285h-181l-143 166zM354 0h-190v985h190v-985z" />
    <glyph glyph-name="idieresis" unicode="&#xef;" horiz-adv-x="518" 
d="M354 0h-190v985h190v-985zM295 1272c0 31.333 10.665 57.667 31.998 79c20.667 20.667 46.334 31 77.001 31s56.667 -10.667 78 -32s32 -47 32 -77c0 -30.667 -10.667 -56.667 -32 -78s-47.666 -32 -78.999 -32s-57 10.333 -77 31s-30.333 46.667 -31 78zM5.99805 1272
c0 31.333 10.667 57.667 32 79c21.333 20.667 47 31 77 31s56 -10.667 78 -32s33 -47 33 -77c0 -30.667 -10.667 -56.667 -32 -78s-47.333 -32 -78 -32s-56.667 10.333 -78 31s-32 46.667 -32 78z" />
    <glyph glyph-name="eth" unicode="&#xf0;" horiz-adv-x="1167" 
d="M584 143c86 0 158.333 28.667 217 86s88 136.333 88 237c0 101.333 -29.333 180 -88 236s-131 84 -217 84s-158.667 -28.667 -218 -86c-60 -57.333 -90 -136 -90 -236s30 -178.333 90 -235c60 -57.333 132.667 -86 218 -86zM590 -29
c-149.333 0.666992 -271.333 47.6709 -366 141.004s-142 211.666 -142 354.999s47.333 259.666 142 348.999s206.334 134 335.001 134s223 -34 283 -102c-42 113.333 -111 211 -207 293l-268 -133l-60 129l193 96c-64 36.667 -140.667 68 -230 94l60 156
c125.333 -28.667 244 -81.334 356 -158.001l223 113l64 -129l-166 -82c187.333 -174.667 280.666 -405.334 279.999 -692.001c0 -164 -45.333 -299 -136 -405s-211 -159 -361 -159z" />
    <glyph glyph-name="ntilde" unicode="&#xf1;" horiz-adv-x="1150" 
d="M926 1386v-30c0 -72.667 -18.667 -128 -56 -166s-80.666 -57 -129.999 -57c-50.667 0 -100 15 -148 45l-29 18c-31.333 19.333 -56.666 29 -75.999 29c-39.333 0 -59 -29.333 -59 -88h-147v30c0 72.667 18.667 128 56 166s81.666 57 132.999 57
s100.666 -14.667 147.999 -44l29 -19c31.333 -19.333 56 -29 74 -29c39.333 0 59 29.333 59 88h146zM356 569l-0.000976562 -569h-192v985h188v-141c65.333 113.333 166.333 170 303 170c113.333 0 200.333 -36.333 261 -109s91.334 -166 92.001 -280v-625h-193v592
c0 165.333 -76.333 248 -229 248c-73.333 0 -130 -25.667 -170 -77s-60 -116 -60 -194z" />
    <glyph glyph-name="ograve" unicode="&#xf2;" horiz-adv-x="1171" 
d="M514 1112l-258 299h242l176 -299h-160zM586 1016c146 0 266.334 -49.334 361.001 -148.001c95.333 -98.667 143 -223.667 143 -375s-47.333 -276.333 -142 -375s-215.334 -148 -362.001 -148s-267.334 49.333 -362.001 148s-142 223.334 -142 374.001s47.333 276 142 376
c94.667 98.667 215.334 148 362.001 148zM586.001 140.999c86 0 158.667 31 218 93c59.333 61.333 89 147.333 89 258s-29.667 197 -89 259s-132 93 -218 93s-158.667 -31 -218 -93s-89 -148 -89 -258s29.667 -196.333 89 -259s132 -93.667 218 -93z" />
    <glyph glyph-name="oacute" unicode="&#xf3;" horiz-adv-x="1171" 
d="M891 1411l-258 -299h-162l178 299h242zM586 1016c146 0 266.334 -49.334 361.001 -148.001c95.333 -98.667 143 -223.667 143 -375s-47.333 -276.333 -142 -375s-215.334 -148 -362.001 -148s-267.334 49.333 -362.001 148s-142 223.334 -142 374.001s47.333 276 142 376
c94.667 98.667 215.334 148 362.001 148zM586.001 140.999c86 0 158.667 31 218 93c59.333 61.333 89 147.333 89 258s-29.667 197 -89 259s-132 93 -218 93s-158.667 -31 -218 -93s-89 -148 -89 -258s29.667 -196.333 89 -259s132 -93.667 218 -93z" />
    <glyph glyph-name="ocircumflex" unicode="&#xf4;" horiz-adv-x="1171" 
d="M442 1116h-178l213 285h219l213 -285h-180l-143 166zM586 1016c146 0 266.334 -49.334 361.001 -148.001c95.333 -98.667 143 -223.667 143 -375s-47.333 -276.333 -142 -375s-215.334 -148 -362.001 -148s-267.334 49.333 -362.001 148s-142 223.334 -142 374.001
s47.333 276 142 376c94.667 98.667 215.334 148 362.001 148zM586.001 140.999c86 0 158.667 31 218 93c59.333 61.333 89 147.333 89 258s-29.667 197 -89 259s-132 93 -218 93s-158.667 -31 -218 -93s-89 -148 -89 -258s29.667 -196.333 89 -259s132 -93.667 218 -93z" />
    <glyph glyph-name="otilde" unicode="&#xf5;" horiz-adv-x="1171" 
d="M911 1386v-30c0 -72.667 -18.333 -128 -55 -166c-36 -38 -79.333 -57 -130 -57s-100 15 -148 45l-29 18c-31.333 19.333 -56.666 29 -75.999 29c-39.333 0 -59 -29.333 -59 -88h-148v30c0 72.667 18.667 128 56 166s82 57 134 57c51.333 0 100.666 -14.667 147.999 -44
l29 -19c31.333 -19.333 56 -29 74 -29c39.333 0 59 29.333 59 88h145zM586 1016c146 0 266.334 -49.334 361.001 -148.001c95.333 -98.667 143 -223.667 143 -375s-47.333 -276.333 -142 -375s-215.334 -148 -362.001 -148s-267.334 49.333 -362.001 148
s-142 223.334 -142 374.001s47.333 276 142 376c94.667 98.667 215.334 148 362.001 148zM586.001 140.999c86 0 158.667 31 218 93c59.333 61.333 89 147.333 89 258s-29.667 197 -89 259s-132 93 -218 93s-158.667 -31 -218 -93s-89 -148 -89 -258
s29.667 -196.333 89 -259s132 -93.667 218 -93z" />
    <glyph glyph-name="odieresis" unicode="&#xf6;" horiz-adv-x="1171" 
d="M657 1271c0 33.333 11.333 61.666 34 84.999s50.667 35 84 35s61.666 -11.667 84.999 -35s35 -51.666 35 -84.999s-11.667 -61.333 -35 -84s-51.666 -34 -84.999 -34s-61.333 11.333 -84 34s-34 50.667 -34 84zM274 1271c0 33.333 11.333 61.666 34 84.999
s50.667 35 84 35s61.666 -11.667 84.999 -35s35 -51.666 35 -84.999s-11.667 -61.333 -35 -84s-51.666 -34 -84.999 -34s-61.333 11.333 -84 34s-34 50.667 -34 84zM586 1016c146 0 266.334 -49.334 361.001 -148.001c95.333 -98.667 143 -223.667 143 -375
s-47.333 -276.333 -142 -375s-215.334 -148 -362.001 -148s-267.334 49.333 -362.001 148s-142 223.334 -142 374.001s47.333 276 142 376c94.667 98.667 215.334 148 362.001 148zM586.001 140.999c86 0 158.667 31 218 93c59.333 61.333 89 147.333 89 258
s-29.667 197 -89 259s-132 93 -218 93s-158.667 -31 -218 -93s-89 -148 -89 -258s29.667 -196.333 89 -259s132 -93.667 218 -93z" />
    <glyph glyph-name="divide" unicode="&#xf7;" horiz-adv-x="1161" 
d="M113 504v170h936v-170h-936zM446 952c0 35.333 13.332 66 39.999 92s58 39 94 39s66.667 -13 92 -39c26 -26 39 -56.667 39 -92s-13 -66.333 -39 -93s-56.667 -40 -92 -40s-66.666 13.333 -93.999 40c-26.667 26.667 -40 57.667 -40 93zM445.999 225
c0 35.333 13.332 66 39.999 92s58 39 94 39s66.667 -13 92 -39c26 -26 39 -56.667 39 -92s-13 -66.333 -39 -93s-56.667 -40 -92 -40s-66.666 13.333 -93.999 40c-26.667 26.667 -40 57.667 -40 93z" />
    <glyph glyph-name="oslash" unicode="&#xf8;" horiz-adv-x="1171" 
d="M586 141c86 0 158.667 31 218 93s89 148.667 89 260c0 78 -16.333 145.333 -49 202l-402 -520c41.333 -23.333 89.333 -35 144 -35zM279 494c0 -76.667 16.999 -145.667 50.999 -207l401 520c-45.333 24.667 -93.666 37 -144.999 37c-86 0 -158.667 -31 -218 -93
s-89 -147.667 -89 -257zM585.999 1016c91.333 0 176.667 -22 256 -66l102 133l123 -98l-104 -135c84.667 -98 127 -219.667 127 -365c0 -146 -47.333 -268.333 -142 -367s-215.334 -148.334 -362.001 -149.001c-91.333 0 -176 21.333 -254 64l-101 -129l-122 98l100 131
c-84.667 98 -127 220.333 -127 367s47.333 269.334 142 368.001s215.334 148 362.001 148z" />
    <glyph glyph-name="ugrave" unicode="&#xf9;" horiz-adv-x="1159" 
d="M524 1112l-258 299h242l176 -299h-160zM522 -31c-112 0 -201.334 37.3311 -268.001 111.998s-100 169.334 -100 284.001v620h192v-592c0 -74 18 -135 54 -183s92.333 -71.667 169 -71c76.667 0 134.667 23 174 69s59.333 107 60 183v594h192v-803
c0 -64 3.66699 -124.667 11 -182h-185c-5.33301 30 -8 69.667 -8 119c-26 -49.333 -65.667 -86.666 -119 -111.999s-110.666 -38 -171.999 -38z" />
    <glyph glyph-name="uacute" unicode="&#xfa;" horiz-adv-x="1159" 
d="M866 1411l-258 -299h-162l179 299h241zM522 -31c-112 0 -201.334 37.3311 -268.001 111.998s-100 169.334 -100 284.001v620h192v-592c0 -74 18 -135 54 -183s92.333 -71.667 169 -71c76.667 0 134.667 23 174 69s59.333 107 60 183v594h192v-803
c0 -64 3.66699 -124.667 11 -182h-185c-5.33301 30 -8 69.667 -8 119c-26 -49.333 -65.667 -86.666 -119 -111.999s-110.666 -38 -171.999 -38z" />
    <glyph glyph-name="ucircumflex" unicode="&#xfb;" horiz-adv-x="1159" 
d="M430 1116h-178l213 285h219l213 -285h-180l-144 166zM522 -31c-112 0 -201.334 37.3311 -268.001 111.998s-100 169.334 -100 284.001v620h192v-592c0 -74 18 -135 54 -183s92.333 -71.667 169 -71c76.667 0 134.667 23 174 69s59.333 107 60 183v594h192v-803
c0 -64 3.66699 -124.667 11 -182h-185c-5.33301 30 -8 69.667 -8 119c-26 -49.333 -65.667 -86.666 -119 -111.999s-110.666 -38 -171.999 -38z" />
    <glyph glyph-name="udieresis" unicode="&#xfc;" horiz-adv-x="1159" 
d="M645 1271c0 33.333 11.333 61.666 34 84.999s50.667 35 84 35s61.666 -11.667 84.999 -35s35 -51.666 35 -84.999s-11.667 -61.333 -35 -84s-51.666 -34 -84.999 -34s-61.333 11.333 -84 34s-34 50.667 -34 84zM262 1271c0 33.333 11.333 61.666 34 84.999
s50.667 35 84 35s61.666 -11.667 84.999 -35s35 -51.666 35 -84.999s-11.667 -61.333 -35 -84s-51.666 -34 -84.999 -34s-61.333 11.333 -84 34s-34 50.667 -34 84zM522 -31c-112 0 -201.334 37.3311 -268.001 111.998s-100 169.334 -100 284.001v620h192v-592
c0 -74 18 -135 54 -183s92.333 -71.667 169 -71c76.667 0 134.667 23 174 69s59.333 107 60 183v594h192v-803c0 -64 3.66699 -124.667 11 -182h-185c-5.33301 30 -8 69.667 -8 119c-26 -49.333 -65.667 -86.666 -119 -111.999s-110.666 -38 -171.999 -38z" />
    <glyph glyph-name="yacute" unicode="&#xfd;" horiz-adv-x="1071" 
d="M838 1411l-258 -299h-162l178 299h242zM410 -412h-211l245 521l-424 876h222l307 -680l295 680h207z" />
    <glyph glyph-name="thorn" unicode="&#xfe;" horiz-adv-x="1214" 
d="M936 492c0 101.333 -26.332 184.001 -78.999 248.001s-123 96.667 -211 98c-88 0 -159 -32.667 -213 -98s-81 -148 -81 -248c0 -101.333 27 -184.333 81 -249s124.667 -97 212 -97s157.666 32 210.999 96c53.333 65.333 80 148.666 80 249.999zM354.001 -388.999
l-190 0.00195312v1872h192v-641c28.667 49.333 71.334 89.333 128.001 120s122 46 196 46c142 0 253 -48.667 333 -146s120 -220.333 120 -369s-41.333 -272.334 -124 -371.001s-194.334 -148.334 -335.001 -149.001c-72.667 0 -137 15 -193 45s-98.333 68.333 -127 115
v-522z" />
    <glyph glyph-name="ydieresis" unicode="&#xff;" horiz-adv-x="1071" 
d="M608 1271c0 33.333 11.333 61.666 34 84.999s50.667 35 84 35s61.666 -11.667 84.999 -35s35 -51.666 35 -84.999s-11.667 -61.333 -35 -84s-51.666 -34 -84.999 -34s-61.333 11.333 -84 34s-34 50.667 -34 84zM225 1271c0 33.333 11.333 61.666 34 84.999
s50.667 35 84 35s61.666 -11.667 84.999 -35s35 -51.666 35 -84.999s-11.667 -61.333 -35 -84s-51.666 -34 -84.999 -34s-61.333 11.333 -84 34s-34 50.667 -34 84zM410 -412h-211l245 521l-424 876h222l307 -680l295 680h207z" />
    <glyph glyph-name="dotlessi" unicode="&#x131;" horiz-adv-x="518" 
d="M354 0h-190v985h190v-985z" />
    <glyph glyph-name="Lslash" unicode="&#x141;" horiz-adv-x="1144" 
d="M1094 0h-887v592l-197 -86v178l197 86v682h201v-592l321 141v-178l-321 -143v-492h686v-188z" />
    <glyph glyph-name="lslash" unicode="&#x142;" horiz-adv-x="589" 
d="M385 0h-192v557l-183 -80v178l183 80v748h192v-662l195 86v-178l-195 -86v-643z" />
    <glyph glyph-name="OE" unicode="&#x152;" horiz-adv-x="2351" 
d="M2228 0l-882 0.000976562v190c-139.333 -147.333 -314.333 -221 -525 -221c-124 0 -240.667 28.667 -350 86c-108.667 57.333 -199 144.666 -271 261.999s-108 254 -108 410c0 116.667 20.667 223.667 62 321c77.333 180 210.333 308 399 384c86 34 175.333 51 268 51
c210 0 385 -73.667 525 -221v190h882v-186h-682v-447h619v-188h-619v-445h682v-186zM297 727.001c0 -180 51.335 -320.666 154.002 -421.999c103.333 -100.667 227 -151 371 -151s267.333 50.667 370 152s154 241.666 154 420.999c0 180 -51.333 320.333 -154 421
c-102.667 100 -226.334 150 -371.001 150s-268.334 -50 -371.001 -150s-153.667 -240.333 -153 -421z" />
    <glyph glyph-name="oe" unicode="&#x153;" horiz-adv-x="1918" 
d="M1411 -31c-188 0 -328.666 66.3301 -421.999 198.997c-95.333 -132.667 -229.666 -199 -402.999 -199c-146.667 0.666992 -267.334 50.334 -362.001 149.001s-142 223.334 -142 374.001s47.333 275.667 142 375c94.667 98.667 215.334 148.334 362.001 149.001
c173.333 0 307.666 -67 402.999 -201c44 62 99 111 165 147s136 54 210 54c148.667 0 264.667 -46.667 348 -140s125 -218.666 125 -375.999c0 -24.667 -1.33301 -45.334 -4 -62.001h-741c1.33301 -86 30.666 -157.333 87.999 -214s127 -85 209 -85
c140 0 232 66.333 276 199l166 -57c-28.667 -91.333 -82 -166.333 -160 -225s-164.667 -87.667 -260 -87zM1371 845.997c-79.333 0 -143.665 -25.001 -192.998 -75.001s-76 -109 -80 -177h538c-2.66699 74.667 -27.334 135.334 -74.001 182.001s-110.334 70 -191.001 70z
M586.002 140.996c86 0 158.667 31 218 93c59.333 61.333 89 147.333 89 258s-29.667 197 -89 259s-132 93 -218 93s-158.667 -31 -218 -93s-89 -148 -89 -258s29.667 -196.333 89 -259s132 -93.667 218 -93z" />
    <glyph glyph-name="Scaron" unicode="&#x160;" horiz-adv-x="1214" 
d="M272 1798h187l166 -131l174 131h188l-239 -244h-246zM631 1307c-86 0 -155.667 -23.332 -209 -69.999s-80 -100.334 -80 -161.001c0 -119.333 62 -193.333 186 -222l217 -47c120.667 -26 213.667 -75 279 -147s98 -162.667 98 -272s-46.333 -206.666 -139 -291.999
c-92.667 -84.667 -217 -127 -373 -127s-279.667 42.667 -371 128c-92 85.333 -145.667 186.666 -161 303.999l192 62c8 -87.333 42 -161 102 -221s140 -90 240 -90c99.333 0 175.333 21.667 228 65c52 44 78 96.333 78 157c0 124.667 -72.667 202.667 -218 234l-206 45
c-108 23.333 -194 69 -258 137s-96 157.333 -96 268c0 110 46.667 208.333 140 295s210 130 350 130s250 -36.333 330 -109c79.333 -72.667 129.333 -156.667 150 -252l-180 -63c-9.33301 62.667 -40 119.667 -92 171s-121 77 -207 77z" />
    <glyph glyph-name="scaron" unicode="&#x161;" horiz-adv-x="925" 
d="M141 1407h178l144 -166l143 166h180l-208 -291h-228zM464 133c60 0 104.668 12.6729 134.001 38.0059c30 25.333 45 56.333 45 93c0 65.333 -42.333 107.666 -127 126.999l-168 37c-76 16 -136 48.667 -180 98s-66 112.666 -66 189.999s34.667 146.666 104 207.999
s151.666 92 246.999 92c162.667 0 277.334 -61.667 344.001 -185c13.333 -26 23.333 -52.333 30 -79l-170 -64c-5.33301 34.667 -18 65 -38 91c-38 48.667 -93.333 73 -166 73c-48 0 -87.333 -13 -118 -39s-46 -56.667 -46 -92c0 -62.667 37.333 -102.334 112 -119.001
l160 -35c87.333 -19.333 154.666 -54.333 201.999 -105s71 -114.334 71 -191.001c0 -76 -32 -145.333 -96 -208s-154.333 -94 -271 -94c-117.333 0 -210.333 30.333 -279 91c-68 61.333 -106.667 126.666 -116 195.999l174 61c6.66699 -53.333 29.667 -97.333 69 -132
s89 -52 149 -52z" />
    <glyph glyph-name="Ydieresis" unicode="&#x178;" horiz-adv-x="1265" 
d="M733 0h-201v621l-512 831h242l377 -647l377 647h229l-512 -831v-621zM750 1677c0 34 11.333 62.667 34 86c23.333 23.333 52 35 86 35s62.667 -11.667 86 -35s35 -52 35 -86s-11.667 -62.667 -35 -86s-52 -35 -86 -35s-62.667 11.667 -86 35
c-22.667 23.333 -34 52 -34 86zM276 1677c0 34 11.667 62.667 35 86s52 35 86 35s62.667 -11.667 86 -35s35 -52 35 -86s-11.667 -62.667 -35 -86s-52 -35 -86 -35s-62.667 11.667 -86 35s-35 52 -35 86z" />
    <glyph glyph-name="Zcaron" unicode="&#x17d;" horiz-adv-x="1294" 
d="M305 1798h187l165 -131l174 131h189l-240 -244h-245zM1212 0h-1120v201l866 1065h-845v186h1089v-195l-870 -1069h880v-188z" />
    <glyph glyph-name="zcaron" unicode="&#x17e;" horiz-adv-x="954" 
d="M872 0h-790v168l541 643h-533v174h772v-168l-540 -643h550v-174zM160 1407h178l143 -166l144 166h180l-209 -291h-227z" />
    <glyph glyph-name="florin" unicode="&#x192;" horiz-adv-x="985" 
d="M178 815l0.000976562 170h260l47 232c19.333 98 60.333 172 123 222s128.667 75 198 75s125.666 -7 168.999 -21v-170c-32.667 9.33301 -70.667 14 -114 14s-82.333 -12.333 -117 -37s-59.334 -75 -74.001 -151l-33 -164h264v-170h-299l-168 -842
c-19.333 -98 -60.333 -172 -123 -222c-63.333 -50 -130.333 -75 -201 -75s-127.667 7 -171 21v170c34 -9.33301 72 -14 114 -14c106.667 0 172.334 62.667 197.001 188l153 774h-225z" />
    <glyph glyph-name="circumflex" unicode="&#x2c6;" horiz-adv-x="788" 
d="M250 1116h-178l213 285h219l213 -285h-180l-144 166z" />
    <glyph glyph-name="caron" unicode="&#x2c7;" horiz-adv-x="788" 
d="M72 1407h178l143 -166l144 166h180l-209 -291h-227z" />
    <glyph glyph-name="uni02C9" unicode="&#x2c9;" horiz-adv-x="702" 
d="M631 1182h-559v166h559v-166z" />
    <glyph glyph-name="breve" unicode="&#x2d8;" horiz-adv-x="741" 
d="M373 1116c-92.667 0 -165.669 28.999 -219.002 86.999s-80.666 126 -81.999 204h149c2.66699 -36.667 16.334 -68 41.001 -94s61 -39 109 -39c48.667 0 85 13.333 109 40s37.333 57.667 40 93h150c-1.33301 -79.333 -28 -147.666 -80 -204.999s-124.333 -86 -217 -86z
" />
    <glyph glyph-name="dotaccent" unicode="&#x2d9;" horiz-adv-x="356" 
d="M51 1262c0 35.333 12.667 65.333 38 90s55 37 89 37s63.667 -12.333 89 -37s38 -54.667 38 -90c0 -34.667 -12.667 -64.667 -38 -90s-55 -38 -89 -38s-63.667 12.667 -89 38c-25.333 24.667 -38 54.667 -38 90z" />
    <glyph glyph-name="ring" unicode="&#x2da;" horiz-adv-x="600" 
d="M397 1313c-0.666992 27.333 -10.333 51.002 -29 71.002s-42 29.667 -70 29c-28 0 -51.333 -10 -70 -30c-18.667 -20.667 -28 -44.334 -28 -71.001s9.33301 -49.667 28 -69s42 -29 70 -29s51.667 9.66699 71 29c18.667 19.333 28 42.666 28 69.999zM528.001 1314
c0 -62 -22.668 -115 -68.001 -159c-45.333 -43.333 -98.666 -65 -159.999 -65c-62 0 -115.667 22 -161 66c-44.667 44 -67 96.667 -67 158c0 62 22.333 115 67 159c45.333 43.333 99 65 161 65s115.667 -21.667 161 -65c44.667 -44 67 -97 67 -159z" />
    <glyph glyph-name="ogonek" unicode="&#x2db;" horiz-adv-x="477" 
d="M68 -236c0 117.333 69.334 207 208.001 269l130 -33c-116 -54.667 -174.333 -121 -175 -199c0 -32.667 10.667 -57 32 -73s45 -23.667 71 -23c26 0 50 2.66699 72 8v-139c-28.667 -10.667 -69.334 -16 -122.001 -16s-102 18.667 -148 56
c-45.333 37.333 -68 87.333 -68 150z" />
    <glyph glyph-name="tilde" unicode="&#x2dc;" horiz-adv-x="772" 
d="M709 1386v-30c0.666992 -72.667 -17.666 -128 -54.999 -166s-81.333 -57 -132 -57s-99.667 15 -147 45l-29 18c-31.333 19.333 -56.666 29 -75.999 29c-39.333 0 -59 -29.333 -59 -88h-148v30c0.666992 72.667 19.667 128 57 166s81.666 57 132.999 57
s100.666 -14.667 147.999 -44l29 -19c31.333 -19.333 56 -29 74 -29c39.333 0 59 29.333 59 88h146z" />
    <glyph glyph-name="hungarumlaut" unicode="&#x2dd;" horiz-adv-x="751" 
d="M680 1411l-205 -299h-135l125 299h215zM391 1411l-184 -299h-135l104 299h215z" />
    <glyph glyph-name="uni0394" unicode="&#x394;" horiz-adv-x="1355" 
d="M674 1223l-389 -1039h784zM0 0l569 1452h215l572 -1452h-1356z" />
    <glyph glyph-name="uni03A9" unicode="&#x3a9;" horiz-adv-x="1630" 
d="M815 1303c-136.667 -0.666992 -257 -46.334 -361 -137.001s-156.333 -209.667 -157 -357c0 -147.333 43.333 -267.666 130 -360.999s186.667 -152.666 300 -177.999v-270h-625v180h414c-114.667 42.667 -214 118.667 -298 228s-126 237.666 -126 384.999
c0 208.667 71 375.667 213 501s312 188 510 188s368 -62.667 510 -188s213 -292.333 213 -501c0 -147.333 -42 -276 -126 -386s-184 -185.667 -300 -227h416v-180h-625v270c113.333 24.667 213.333 83.667 300 177s130 214 130 362c-0.666992 148 -53 267.333 -157 358
s-224.333 136 -361 136z" />
    <glyph glyph-name="uni03BC" unicode="&#x3bc;" horiz-adv-x="1169" 
d="M532 -31c-62.667 0 -121.333 13.666 -176 40.999v-399h-192v1374h192v-592c0 -74 18 -135 54 -183s92.667 -71.667 170 -71c76.667 0 134.667 23 174 69s59 107 59 183v594h193v-803c0 -78 3.33301 -138.667 10 -182h-185c-5.33301 30 -8 69.667 -8 119
c-26 -49.333 -65.667 -86.666 -119 -111.999c-52 -25.333 -109.333 -38 -172 -38z" />
    <glyph glyph-name="pi" unicode="&#x3c0;" horiz-adv-x="1259" 
d="M791 229v587.999h-338v-817h-193v817h-168v168h1061v-168h-170v-567c0 -66.667 37 -100 111 -100c24.667 0 45.667 2.66699 63 8v-148c-39.333 -16.667 -81 -24.667 -125 -24c-79.333 0 -139.333 23.333 -180 70s-61 104.334 -61 173.001z" />
    <glyph glyph-name="uni2007" unicode="&#x2007;" horiz-adv-x="1257" 
 />
    <glyph glyph-name="uni2008" unicode="&#x2008;" horiz-adv-x="571" 
 />
    <glyph glyph-name="uni200B" unicode="&#x200b;" horiz-adv-x="0" 
 />
    <glyph glyph-name="endash" unicode="&#x2013;" horiz-adv-x="1314" 
d="M1182 504h-1049v168h1049v-168z" />
    <glyph glyph-name="emdash" unicode="&#x2014;" horiz-adv-x="2258" 
d="M2105 504h-1951v168h1951v-168z" />
    <glyph glyph-name="quoteleft" unicode="&#x2018;" horiz-adv-x="446" 
d="M365 1058c0 -36 -12.667 -66.002 -38 -90.002c-26 -24 -59 -36 -99 -36s-74.333 15 -103 45s-43 73 -43 129c0 110.667 28.333 196.334 85 257.001s119 94.334 187 101.001v-96c-44 -9.33301 -80 -34 -108 -74s-43 -81.667 -45 -125c9.33301 7.33301 27.333 11 54 11
s51.667 -11.333 75 -34s35 -52 35 -88z" />
    <glyph glyph-name="quoteright" unicode="&#x2019;" horiz-adv-x="458" 
d="M82 1339c0 36.667 13.334 67.667 40.001 93s60.667 38 102 38s77.333 -15.667 108 -47c30 -31.333 45 -75.666 45 -132.999c0 -114.667 -29 -203.334 -87 -266.001s-123.333 -98 -196 -106v98c45.333 9.33301 82.666 34 111.999 74s44.666 84.333 45.999 133
c-9.33301 -7.33301 -27.666 -11 -54.999 -11s-53.333 12 -78 36s-37 54.333 -37 91z" />
    <glyph glyph-name="quotesinglbase" unicode="&#x201a;" horiz-adv-x="458" 
d="M82 121c0 36.667 13.334 67.668 40.001 93.001s60.667 38 102 38s77.333 -15.667 108 -47c30 -31.333 45 -75.666 45 -132.999c0 -114.667 -29 -203.334 -87 -266.001s-123.333 -98.334 -196 -107.001v98c45.333 10 82.666 35 111.999 75s44.666 84 45.999 132
c-9.33301 -6.66699 -27.666 -10 -54.999 -10s-53.333 12 -78 36s-37 54.333 -37 91z" />
    <glyph glyph-name="quotedblleft" unicode="&#x201c;" horiz-adv-x="796" 
d="M365 1068c0 -36 -12.667 -66.002 -38 -90.002c-26 -24 -59 -36 -99 -36s-74.333 15 -103 45s-43 73 -43 129c0 110.667 28.333 196.334 85 257.001s119 94.667 187 102v-97c-44 -9.33301 -80 -33.666 -108 -72.999s-43 -81 -45 -125c9.33301 6.66699 27.333 10 54 10
s51.667 -11.333 75 -34s35 -52 35 -88zM715 1068c0 -36 -12.668 -66.002 -38.001 -90.002s-58 -36 -98 -36s-74.667 15 -104 45c-28.667 30 -43 73 -43 129c0 110.667 28.333 196.334 85 257.001s119.334 94.667 188.001 102v-97c-44 -9.33301 -80.333 -33.666 -109 -72.999
s-43.667 -81 -45 -125c9.33301 6.66699 27.333 10 54 10s51.667 -11.333 75 -34s35 -52 35 -88z" />
    <glyph glyph-name="quotedblright" unicode="&#x201d;" horiz-adv-x="796" 
d="M542 1217c-26.667 -0.666992 -51.666 10.333 -74.999 33s-35 52 -35 88s12.667 66 38 90s58 36 98 36s74.667 -15 104 -45s43.666 -73 42.999 -129c0 -109.333 -28 -194 -84 -254s-119 -94.667 -189 -104v96c44 9.33301 80.333 33.333 109 72s43.667 81 45 127
c-9.33301 -6.66699 -27.333 -10 -54 -10zM191.001 1217c-26 -0.666992 -50.666 10.333 -73.999 33s-35 52 -35 88s12.667 66 38 90s58 36 98 36s74.667 -15 104 -45s43.666 -73 42.999 -129c0 -109.333 -28 -194 -84 -254s-119 -94.667 -189 -104v96
c44 9.33301 80.333 33.333 109 72s43.667 81 45 127c-10.667 -6.66699 -29 -10 -55 -10z" />
    <glyph glyph-name="quotedblbase" unicode="&#x201e;" horiz-adv-x="796" 
d="M432 116c0 36 12.668 66 38.001 90s58 36 98 36s74.667 -15 104 -45s43.666 -73 42.999 -129c0 -109.333 -28 -194 -84 -254s-119 -95 -189 -105v96c44 10 80.333 34.333 109 73s43.667 80.667 45 126c-9.33301 -6.66699 -27.333 -10 -54 -10s-51.667 11.333 -75 34
s-35 52 -35 88zM82.001 116c0 36 12.668 66 38.001 90s58 36 98 36s74.667 -15 104 -45s43.666 -73 42.999 -129c0 -109.333 -28 -194 -84 -254s-119 -95 -189 -105v96c44 10 80.333 34.333 109 73s43.667 80.667 45 126c-10.667 -6.66699 -29 -10 -55 -10
s-50.667 11.333 -74 34s-35 52 -35 88z" />
    <glyph glyph-name="dagger" unicode="&#x2020;" horiz-adv-x="790" 
d="M479 332h-168v649h-260v166h260v305h168v-305h260v-166h-260v-649z" />
    <glyph glyph-name="daggerdbl" unicode="&#x2021;" horiz-adv-x="872" 
d="M92 471h260v510h-260v166h260v305h168v-305h260v-166h-260v-510h260v-166h-260v-305h-168v305h-260v166z" />
    <glyph glyph-name="bullet" unicode="&#x2022;" horiz-adv-x="1134" 
d="M143 593c0 116.667 41.333 216.667 124 300s182.667 125 300 125s217.333 -41.667 300 -125s124 -183.333 124 -300s-41.667 -216.667 -125 -300s-183 -125 -299 -125s-215.667 41.667 -299 125s-125 183.333 -125 300z" />
    <glyph glyph-name="ellipsis" unicode="&#x2026;" horiz-adv-x="1908" 
d="M449 121c0 -36.667 -12.667 -67.667 -38 -93c-24.667 -25.333 -55.667 -38 -93 -38s-69 12.667 -95 38s-39 56.333 -39 93s13 68 39 94s57.333 39 94 39s67.667 -13 93 -39s38.333 -57.333 39 -94zM1085 121c0.666992 -36.667 -11.6689 -67.667 -37.002 -93
s-56.666 -38 -93.999 -38s-68.666 12.667 -93.999 38c-26 25.333 -39 56.333 -39 93s13 68 39 94s57.333 39 94 39s67.667 -13 93 -39s38 -57.333 38 -94zM1724 121c0 -36.667 -12.667 -67.667 -38 -93s-56 -38 -92 -38c-37.333 0 -69 12.667 -95 38s-39 56.333 -39 93
s13 68 39 94s57.333 39 94 39s67.667 -13 93 -39s38 -57.333 38 -94z" />
    <glyph glyph-name="perthousand" unicode="&#x2030;" horiz-adv-x="2160" 
d="M924 306c0 89.333 32.333 165.331 97 227.998s145 94.334 241 95.001c96 0 173.667 -41 233 -123c59.333 82 137 123 233 123s176.667 -31.333 242 -94c65.333 -63.333 98 -139.666 98 -228.999s-32.667 -165.333 -98 -228s-146 -94 -242 -94s-173.667 40 -233 120
c-59.333 -80 -137 -120 -233 -120s-176.333 31.333 -241 94s-97 138.667 -97 228zM1581 306.998c0 -46.667 14.999 -85.334 44.999 -116.001s67.667 -46 113 -46c46 0 83.667 15.333 113 46s44 69.334 44 116.001s-15 85 -45 115s-67.667 45 -113 45
s-82.666 -15 -111.999 -45c-30 -30 -45 -68.333 -45 -115zM464.999 -0.00195312h-189l955 1327h184zM1094 306.998c0 -46.667 15.001 -85.334 45.001 -116.001s67.667 -46 113 -46s82.666 15.333 111.999 46c30 30.667 45 69.334 45 116.001s-15 85 -45 115
s-67.667 45 -113 45c-46 0 -83.667 -15 -113 -45s-44 -68.333 -44 -115zM113 1019c0 89.333 32.332 165.333 96.999 228s141.334 94 230.001 94c89.333 0 166.666 -31.333 231.999 -94s98 -138.667 98 -228s-32.667 -165.333 -98 -228
c-65.333 -63.333 -142.666 -95 -231.999 -95s-166 31.333 -230 94c-64.667 62.667 -97 139 -97 229zM282.999 1020c0 -46.667 15 -85.334 45 -116.001c29.333 -30.667 66.666 -46 111.999 -46s83 15.333 113 46s45 69.334 45 116.001s-15 85 -45 115s-67.667 45 -113 45
s-82.666 -15 -111.999 -45s-44.333 -68.333 -45 -115z" />
    <glyph glyph-name="guilsinglleft" unicode="&#x2039;" horiz-adv-x="565" 
d="M524 203h-190l-273 391l273 391h190l-268 -391z" />
    <glyph glyph-name="guilsinglright" unicode="&#x203a;" horiz-adv-x="565" 
d="M231 203h-190l268 391l-268 391h190l273 -391z" />
    <glyph glyph-name="uni2042" unicode="&#x2042;" horiz-adv-x="1710" 
d="M1370 639v-248l227 78l41 -133l-227 -74l152 -194l-113 -84l-154 200l-143 -198l-113 84l146 192l-230 74l43 133l226 -78v248h145zM485 639v-248l228 78l41 -133l-228 -74l152 -194l-113 -84l-153 200l-144 -198l-112 84l145 192l-229 74l43 133l225 -78v248h145z
M928 1452v-248l227 78l41 -133l-227 -74l151 -194l-112 -84l-154 200l-143 -198l-113 84l145 192l-229 74l43 133l225 -78v248h146z" />
    <glyph glyph-name="fraction" unicode="&#x2044;" horiz-adv-x="1138" 
d="M188 0h-188l954 1327h185z" />
    <glyph glyph-name="uni2051" unicode="&#x2051;" horiz-adv-x="866" 
d="M506 639v-248l227 78l41 -133l-227 -74l151 -194l-112 -84l-154 200l-143 -198l-113 84l146 192l-230 74l43 133l225 -78v248h146zM506 1452v-248l227 78l41 -133l-227 -74l151 -194l-112 -84l-154 200l-143 -198l-113 84l146 192l-230 74l43 133l225 -78v248h146z" />
    <glyph glyph-name="uni2070" unicode="&#x2070;" horiz-adv-x="872" 
d="M123 1078c0 114 24 204.001 72 270.001c55.333 78.667 135.666 118 240.999 118s186 -39.333 242 -118c48 -65.333 72 -155.333 72 -270s-24 -204.334 -72 -269.001c-56 -79.333 -136.667 -119 -242 -119s-185.666 39.667 -240.999 119c-48 65.333 -72 155 -72 269z
M283 1078c-0.666992 -168.667 50.333 -253 153 -253s154 84.333 154 253s-51.333 253 -154 253s-153.667 -84.333 -153 -253z" />
    <glyph glyph-name="uni2074" unicode="&#x2074;" horiz-adv-x="913" 
d="M502 985v285l-228 -285h228zM123 852v149l362 451h174v-467h132v-133h-132v-147h-157v147h-379z" />
    <glyph glyph-name="uni2075" unicode="&#x2075;" horiz-adv-x="827" 
d="M410 823c38.667 0 70.9971 10.999 96.9971 32.999c25.333 22 38 53 38 93s-12.667 71 -38 93c-26 22 -61.667 33 -107 33s-86.666 -18.333 -123.999 -55l-131 49l101 383h418v-135h-316l-47 -176c34 38 86.667 57 158 57s130.333 -22 177 -66s69.667 -103.667 69 -179
c0 -74 -26.667 -136.333 -80 -187c-52.667 -50.667 -119.667 -76 -201 -76s-148.666 18.667 -201.999 56c-52.667 38 -85.667 82.333 -99 133l135 61c9.33301 -35.333 27.333 -63.666 54 -84.999s59.334 -32 98.001 -32z" />
    <glyph glyph-name="uni2076" unicode="&#x2076;" horiz-adv-x="856" 
d="M293 952c0 -39.333 14 -70.667 42 -94s60.667 -35 98 -35s70 11.667 98 35s42 54.666 42 93.999c0 38.667 -14 70 -42 94s-60.667 36 -98 36s-70 -12 -98 -36c-28 -23.333 -42 -54.666 -42 -93.999zM733 955.999c0 -78.667 -28.666 -142.666 -85.999 -191.999
s-128.333 -74 -213 -74s-157.667 29.333 -219 88s-92 148.667 -92 270s37 221.666 111 300.999c74.667 80 170 119.667 286 119c73.333 0.666992 132 -12 176 -38l-37 -117c-39.333 18 -87 27 -143 27s-106.667 -18.667 -152 -56c-45.333 -36.667 -73 -90 -83 -160
c18 26 43.667 47.333 77 64s69.666 24.667 108.999 24c80.667 0 145 -22.667 193 -68s72.333 -108 73 -188z" />
    <glyph glyph-name="uni2077" unicode="&#x2077;" horiz-adv-x="854" 
d="M731 1452l-0.000976562 -141c-51.333 -36 -101.333 -86 -150 -150c-94 -124 -149 -276 -165 -456h-168c16.667 187.333 80 358.333 190 513c24.667 34.667 45.334 60 62.001 76l26 23h-403v135h608z" />
    <glyph glyph-name="uni2078" unicode="&#x2078;" horiz-adv-x="839" 
d="M420 690c-92.667 0 -165.331 20.667 -217.998 62s-79 94.333 -79 159c0 36.667 12.333 71 37 103s58.667 56.333 102 73c-35.333 15.333 -63.333 38 -84 68s-31 62 -31 96c0 63.333 25.667 115 77 155s116.666 60 195.999 60c80 0 145.333 -20 196 -60
s76 -91.667 76 -155c0 -34 -10 -66 -30 -96s-48 -52.667 -84 -68c44 -16.667 78 -41 102 -73s36.333 -66.333 37 -103c0 -64.667 -26.333 -117.667 -79 -159s-125.334 -62 -218.001 -62zM420.003 821c44 0 78 9.33203 102 27.999s35.667 43.334 35 74.001
c0 31.333 -12 56.333 -36 75c-23.333 18.667 -57 28 -101 28s-78 -9.66699 -102 -29s-36 -44.333 -36 -75s12 -55 36 -73c24 -18.667 58 -28 102 -28zM420.003 1149c35.333 0 63.666 9 84.999 27c21.333 18.667 32 42 32 70s-10.667 50.667 -32 68s-49.666 26 -84.999 26
s-63.666 -8.66699 -84.999 -26s-32 -40.333 -32 -69s10.667 -51.667 32 -69s49.666 -26.333 84.999 -27z" />
    <glyph glyph-name="uni2079" unicode="&#x2079;" horiz-adv-x="851" 
d="M559 1204c0 39.333 -13.668 71 -41.001 95s-60.333 36 -99 36c-38 0 -71 -11.667 -99 -35s-42 -55.333 -42 -96s14 -72.667 42 -96c26.667 -23.333 59.334 -35 98.001 -35s72 12 100 36c27.333 24 41 55.667 41 95zM341.999 823
c57.333 0.666992 108.668 18.332 154.001 52.999s71.666 87.334 78.999 158.001c-18 -26.667 -43.667 -48 -77 -64s-69.666 -24 -108.999 -24c-78 0 -141.667 23.333 -191 70s-74.333 108.667 -75 186c0 77.333 28.667 141.333 86 192c57.333 49.333 128.333 74 213 74
s157 -29.333 217 -88s90 -150 90 -274c-0.666992 -124 -37 -224.667 -109 -302c-72 -76 -166.667 -114 -284 -114c-73.333 0 -132 13 -176 39l37 121c39.333 -18 87.666 -27 144.999 -27z" />
    <glyph glyph-name="uni2080" unicode="&#x2080;" horiz-adv-x="872" 
d="M123 226c0 114 24 204.001 72 270.001c55.333 78.667 135.666 118 240.999 118s186 -39.333 242 -118c48 -65.333 72 -155.333 72 -270s-24 -204.334 -72 -269.001c-56 -79.333 -136.667 -119 -242 -119s-185.666 39.667 -240.999 119c-48 65.333 -72 155 -72 269z
M283 226.001c-0.666992 -168.667 50.333 -253 153 -253s154 84.333 154 253s-51.333 253 -154 253s-153.667 -84.333 -153 -253z" />
    <glyph glyph-name="uni2081" unicode="&#x2081;" horiz-adv-x="620" 
d="M436 -147h-157v501h-177v107c49.333 1.33301 91.333 15.333 126 42s55.667 59 63 97h145v-747z" />
    <glyph glyph-name="uni2082" unicode="&#x2082;" horiz-adv-x="796" 
d="M131 375c0 66.667 24.668 123.333 74.001 170c48.667 46 113.667 69 195 69s146.666 -22.667 195.999 -68s74 -101 74 -167c0 -90 -48 -165 -144 -225l-147 -93c-36.667 -24.667 -58 -49.667 -64 -75h359v-133h-549v26c0 126.667 58 225.667 174 297l123 76
c58.667 35.333 88 78.333 88 129c0 28.667 -10 53 -30 73s-47.333 30 -82 30s-62.667 -11.333 -84 -34c-21.333 -21.333 -32 -45 -32 -71s2.33301 -48.667 7 -68h-152c-4 20.667 -6 42 -6 64z" />
    <glyph glyph-name="uni2083" unicode="&#x2083;" horiz-adv-x="843" 
d="M150 469v133h555v-129l-205 -164c62.667 -5.33301 115 -27.333 157 -66c42 -38 63 -91 63 -159s-27.333 -126 -82 -174c-55.333 -48 -125.666 -72 -210.999 -72s-154 20.667 -206 62s-84.667 91 -98 149l137 55c6.66699 -39.333 24.667 -71 54 -95
s64.666 -36 105.999 -36s75.333 10.667 102 32c26 21.333 39 50 39 86s-13.667 63.333 -41 82c-28 18.667 -56 28 -84 28s-51.667 -2.66699 -71 -8l-60 114l195 162h-350z" />
    <glyph glyph-name="uni2084" unicode="&#x2084;" horiz-adv-x="913" 
d="M502 133v285l-228 -285h228zM123 0v150l362 450h174v-467h132v-133h-132v-147h-157v147h-379z" />
    <glyph glyph-name="uni2085" unicode="&#x2085;" horiz-adv-x="827" 
d="M410 -29c38.667 0 70.9971 11 96.9971 33c25.333 22 38 53 38 93s-12.667 71 -38 93c-26 22 -61.667 33 -107 33s-86.666 -18.333 -123.999 -55l-131 49l101 383h418v-135h-316l-47 -176c34 38 86.667 57 158 57s130.333 -22 177 -66s69.667 -103.667 69 -179
c0 -74 -26.667 -136.333 -80 -187c-52.667 -50.667 -119.667 -76 -201 -76s-148.666 18.667 -201.999 56s-86.333 81.666 -99 132.999l135 61c9.33301 -35.333 27.333 -63.666 54 -84.999s59.334 -32 98.001 -32z" />
    <glyph glyph-name="uni2086" unicode="&#x2086;" horiz-adv-x="856" 
d="M293 100c0 -39.333 14 -70.667 42 -94s60.667 -35 98 -35s70 11.667 98 35s42 54.666 42 93.999c0 38.667 -14 70 -42 94s-60.667 36 -98 36s-70 -12 -98 -36c-28 -23.333 -42 -54.666 -42 -93.999zM733 103.999c0 -78.667 -28.666 -142.666 -85.999 -191.999
s-128.333 -74 -213 -74s-157.667 29.333 -219 88s-92 148.667 -92 270s37 221.666 111 300.999c74.667 80 170 119.667 286 119c73.333 0.666992 132 -12 176 -38l-37 -117c-39.333 18 -87 27 -143 27s-106.667 -18.667 -152 -56c-45.333 -36.667 -73 -90 -83 -160
c18 26 43.667 47.333 77 64s69.666 24.667 108.999 24c80.667 0 145 -22.667 193 -68s72.333 -108 73 -188z" />
    <glyph glyph-name="uni2087" unicode="&#x2087;" horiz-adv-x="854" 
d="M731 600l-0.000976562 -141c-51.333 -36 -101.333 -86 -150 -150c-94 -124 -149 -276 -165 -456h-168c16.667 187.333 80 358.333 190 513c24.667 34.667 45.334 60 62.001 76l26 23h-403v135h608z" />
    <glyph glyph-name="uni2088" unicode="&#x2088;" horiz-adv-x="839" 
d="M420 -162c-92.667 0 -165.331 20.667 -217.998 62s-79 94.333 -79 159c0 36.667 12.333 71 37 103s58.667 56.667 102 74c-35.333 16 -63.333 38.667 -84 68s-31 61 -31 95c0 63.333 25.667 115 77 155s116.666 60 195.999 60c80 0 145.333 -20 196 -60
s76 -91.667 76 -155c0 -34 -10 -66 -30 -96s-48 -52.333 -84 -67c44 -16.667 78 -41 102 -73s36.333 -66.667 37 -104c0 -64.667 -26.333 -117.667 -79 -159s-125.334 -62 -218.001 -62zM420.003 -31c44 0 78 9.33203 102 27.999s35.667 43.334 35 74.001
c0 31.333 -12 56.333 -36 75c-23.333 18.667 -57 28 -101 28s-78 -9.66699 -102 -29s-36 -44.333 -36 -75s12 -55 36 -73c24 -18.667 58 -28 102 -28zM420.003 296.999c35.333 0 63.666 9 84.999 27c21.333 18.667 32 42 32 70s-10.667 50.667 -32 68s-49.666 26 -84.999 26
s-63.666 -8.66699 -84.999 -26s-32 -40.333 -32 -69s10.667 -51.667 32 -69s49.666 -26.333 84.999 -27z" />
    <glyph glyph-name="uni2089" unicode="&#x2089;" horiz-adv-x="851" 
d="M559 352c0 39.333 -13.668 70.999 -41.001 94.999s-60.333 36 -99 36s-72 -11.333 -100 -34c-27.333 -23.333 -41 -55.666 -41 -96.999s14 -73.333 42 -96c26.667 -23.333 59.334 -35 98.001 -35s72 12 100 36c27.333 24 41 55.667 41 95zM341.999 -29.001
c57.333 0.666992 108.668 18.332 154.001 52.999s71.666 87.334 78.999 158.001c-18 -26.667 -43.667 -48 -77 -64s-69.666 -24 -108.999 -24c-78 0 -141.667 23.333 -191 70s-74.333 108.667 -75 186c0 77.333 28.667 141.333 86 192c57.333 49.333 128.333 74 213 74
s157 -29.333 217 -88s90 -150 90 -274c-0.666992 -124 -37 -224.667 -109 -302c-72 -76 -166.667 -114 -284 -114c-73.333 0 -132 13 -176 39l37 121c39.333 -18 87.666 -27 144.999 -27z" />
    <glyph glyph-name="Euro" unicode="&#x20ac;" horiz-adv-x="1411" 
d="M133 578h162.003c-2.66699 30 -4 58.333 -4 85s1.33301 55 4 85h-162v159h193c46.667 143.333 129 254.333 247 333c119.333 78.667 249.666 118 390.999 118s257 -32 347 -96l-82 -158c-70 50.667 -155.667 76 -257 76s-190.333 -23.333 -267 -70
s-133.334 -114.334 -170.001 -203.001h600l-80 -159h-559c-10.667 -66 -10.667 -122.667 0 -170h485l-80 -164h-362c36.667 -87.333 92 -153.666 166 -198.999s157 -68 249 -68c130 0 232 37 306 111l100 -143c-113.333 -96.667 -243.333 -145 -390 -145
s-278.334 38.667 -395.001 116c-116 78 -197.667 187.333 -245 328h-197v164z" />
    <glyph glyph-name="uni2113" unicode="&#x2113;" horiz-adv-x="833" 
d="M569 1053c0 87.333 -26.667 131 -80 131c-57.333 0 -86 -48.667 -86 -146v-336c110.667 101.333 166 218.333 166 351zM211 1036c0 100 25.001 179.001 75.001 237.001c49.333 58 116.666 87 201.999 87s152.333 -27 201 -81s73 -132.333 73 -235s-31.667 -206 -95 -310
c-63.333 -104.667 -151.333 -191.667 -264 -261v-145c0 -104 46 -157.333 138 -160c76.667 0 138 19.667 184 59v-174c-9.33301 -13.333 -30.333 -27.333 -63 -42s-76 -21.667 -130 -21c-106.667 0 -186.667 30 -240 90s-80.333 139 -81 237v68
c-50.667 -16.667 -97 -28.334 -139 -35.001v180c42 10.667 88.333 28 139 52v454z" />
    <glyph glyph-name="trademark" unicode="&#x2122;" horiz-adv-x="1759" 
d="M1636 705h-147v477l-207 -477h-121l-200 471v-471h-156v747h203l219 -520l219 520h190v-747zM676 1313h-230v-608h-155v608h-230v139h615v-139z" />
    <glyph glyph-name="Omega" unicode="&#x2126;" horiz-adv-x="1630" 
d="M815 1303c-136.667 -0.666992 -257 -46.334 -361 -137.001s-156.333 -209.667 -157 -357c0 -147.333 43.333 -267.666 130 -360.999s186.667 -152.666 300 -177.999v-270h-625v180h414c-114.667 42.667 -214 118.667 -298 228s-126 237.666 -126 384.999
c0 208.667 71 375.667 213 501s312 188 510 188s368 -62.667 510 -188s213 -292.333 213 -501c0 -147.333 -42 -276 -126 -386s-184 -185.667 -300 -227h416v-180h-625v270c113.333 24.667 213.333 83.667 300 177s130 214 130 362c-0.666992 148 -53 267.333 -157 358
s-224.333 136 -361 136z" />
    <glyph glyph-name="uni2160" unicode="&#x2160;" horiz-adv-x="1036" 
d="M924 1327v-180h-308v-967h308v-180h-811v180h307v967h-307v180h811z" />
    <glyph glyph-name="uni2161" unicode="&#x2161;" horiz-adv-x="1576" 
d="M981 180v967h-385v-967h385zM1464 180v-180h-1351v180h286v967h-286v180h1351v-180h-286v-967h286z" />
    <glyph glyph-name="uni2162" unicode="&#x2162;" horiz-adv-x="2138" 
d="M596 1147v-967h375v967h-375zM1542 180v967h-375v-967h375zM2025 180v-180h-1912v180h286v967h-286v180h1912v-180h-286v-967h286z" />
    <glyph glyph-name="uni2163" unicode="&#x2163;" horiz-adv-x="2060" 
d="M1227 289l280 858h-559zM575 1147v-967h492l-328 967h-164zM1948 180v-180h-1835v180h266v967h-266v180h1833v-180h-236l-334 -967h572z" />
    <glyph glyph-name="uni2164" unicode="&#x2164;" horiz-adv-x="1644" 
d="M823 289l281 858h-559zM1532 1327v-180h-225l-334 -967h551v-180h-1401v180h541l-328 967h-223v180h1419z" />
    <glyph glyph-name="uni2165" unicode="&#x2165;" horiz-adv-x="2060" 
d="M834 289l280 858h-559zM1485 180v967h-168l-334 -967h502zM1948 180v-180h-1835v180h561l-328 967h-233v180h1833v-180h-265v-967h267z" />
    <glyph glyph-name="uni2166" unicode="&#x2166;" horiz-adv-x="2648" 
d="M831 289l281 858h-557zM1483 180v967h-168l-334 -967h502zM2052 180v967h-373v-967h373zM2535 180v-180h-2422v180h559l-326 967h-233v180h2422v-180h-286v-967h286z" />
    <glyph glyph-name="uni2167" unicode="&#x2167;" horiz-adv-x="3158" 
d="M823 289l271 858h-539zM1470 180v967h-172l-327 -967h499zM2218 1147v-967h354v967h-354zM1667 1147v-967h354v967h-354zM3045 180v-180h-2932v180h553l-320 967h-233v180h2932v-180h-276v-967h276z" />
    <glyph glyph-name="uni2168" unicode="&#x2168;" horiz-adv-x="1998" 
d="M1208 498l-223 -318h440zM977 1147l233 -344l236 344h-469zM575 1147v-967h189l338 469l-350 498h-177zM1886 180v-180h-1773v180h266v967h-266v180h1771v-180h-215l-348 -498l330 -469h235z" />
    <glyph glyph-name="uni2169" unicode="&#x2169;" horiz-adv-x="1570" 
d="M780 498l-223 -318h440zM549 1147l233 -344l236 344h-469zM1456 1327v-180h-215l-348 -498l330 -469h235v-180h-1345v180h223l338 469l-350 498h-211v180h1343z" />
    <glyph glyph-name="uni216C" unicode="&#x216c;" horiz-adv-x="1339" 
d="M1227 575v-575h-1114v180h266v967h-266v180h749v-180h-287v-967h455v395h197z" />
    <glyph glyph-name="uni216D" unicode="&#x216d;" horiz-adv-x="1478" 
d="M1366 473l0.000976562 -473.001h-197v137c-88.667 -110.667 -220.667 -166 -396 -166c-175.333 0.666992 -329.333 63.667 -462 189s-199 294 -199 506s66.333 380.333 199 505c132.667 126 286.334 189 461.001 189s305.667 -52.667 393 -158v129h197v-463h-197
c-10.667 96 -49.334 172 -116.001 228s-162.334 84 -287.001 84s-231 -44 -319 -132s-132 -215.333 -132 -382s44 -294 132 -382c88.667 -88 197 -132 325 -132s225.667 32.333 293 97c66.667 64.667 102.667 139.334 108 224.001h197z" />
    <glyph glyph-name="uni216E" unicode="&#x216e;" horiz-adv-x="1505" 
d="M586 180l176 -0.000976562c118.667 0 220 41.333 304 124s126 201.334 126 356.001s-41 274.667 -123 360c-82 84.667 -185.667 127 -311 127h-172v-967zM113 1327l657.001 -0.000976562c173.333 0 320.333 -58.667 441 -176s181 -280 181 -488
c0 -207.333 -60.667 -369.666 -182 -486.999c-122.667 -117.333 -273.334 -176 -452.001 -176h-645v180h276v967h-276v180z" />
    <glyph glyph-name="uni216F" unicode="&#x216f;" horiz-adv-x="2189" 
d="M2077 1327v-180h-271v-967h271v-180h-666v180h203v877l-449 -1057h-155l-445 1057v-877h213v-180h-665v180h260v967h-260v180h544l430 -1055l435 1055h555z" />
    <glyph glyph-name="arrowleft" unicode="&#x2190;" horiz-adv-x="2101" 
d="M453 674h1505v-170h-1505v-295l-453 379l453 381v-295z" />
    <glyph glyph-name="arrowup" unicode="&#x2191;" horiz-adv-x="919" 
d="M575 1137v-1440h-169v1440h-324l410 501l407 -501h-324z" />
    <glyph glyph-name="arrowright" unicode="&#x2192;" horiz-adv-x="2101" 
d="M1495 502h-1425v170h1425v350l516 -434l-516 -432v346z" />
    <glyph glyph-name="arrowdown" unicode="&#x2193;" horiz-adv-x="919" 
d="M344 184v1426h170v-1426h350l-434 -516l-432 516h346z" />
    <glyph glyph-name="uni2196" unicode="&#x2196;" horiz-adv-x="1789" 
d="M113 1452h598l-238 -240l1112 -1110l-121 -118l-1112 1108l-239 -242v602z" />
    <glyph glyph-name="uni2197" unicode="&#x2197;" horiz-adv-x="1583" 
d="M1378 1452v-602l-241 242l-1110 -1108l-121 118l1112 1110l-238 240h598z" />
    <glyph glyph-name="uni2198" unicode="&#x2198;" horiz-adv-x="1789" 
d="M1585 0h-598l238 240l-1112 1110l120 118l1110 -1110l242 244v-602z" />
    <glyph glyph-name="uni2199" unicode="&#x2199;" horiz-adv-x="1564" 
d="M92 0v602l240 -244l1112 1110l121 -118l-1112 -1110l237 -240h-598z" />
    <glyph glyph-name="uni21A9" unicode="&#x21a9;" horiz-adv-x="1705" 
d="M815 1190l-0.00292969 169.998h393c122.667 0 227.334 -41.333 314.001 -124s130.334 -185 131.001 -307c0 -122 -44.667 -223.333 -134 -304s-195.666 -121 -318.999 -121h-751v-295l-453 379l453 381v-295h741c80.667 0 150 23.333 208 70s87 109.334 87 188.001
s-28.667 141.334 -86 188.001s-129 70 -215 70h-369z" />
    <glyph glyph-name="uni21B0" unicode="&#x21b0;" horiz-adv-x="1587" 
d="M555 1188h848v-1188h-170v1018h-678v-295l-453 379l453 381v-295z" />
    <glyph glyph-name="uni21B1" unicode="&#x21b1;" horiz-adv-x="1474" 
d="M242 0h-170v1188h950v295l453 -381l-453 -379v295h-780v-1018z" />
    <glyph glyph-name="uni21B2" unicode="&#x21b2;" horiz-adv-x="1556" 
d="M1212 1452h170v-1188h-950v-295l-452 381l452 379v-295h780v1018z" />
    <glyph glyph-name="uni21B3" unicode="&#x21b3;" horiz-adv-x="1720" 
d="M1124 264h-950v1188h170v-1018h780v295l453 -379l-453 -381v295z" />
    <glyph glyph-name="uni21B4" unicode="&#x21b4;" horiz-adv-x="1667" 
d="M113 1282v170h1187v-1032h295l-381 -453l-378 453h294v862h-1017z" />
    <glyph glyph-name="uni21C6" unicode="&#x21c6;" horiz-adv-x="2265" 
d="M1700 264h-1546v170h1546v295l452 -381l-452 -379v295zM565 1192h1546v-170h-1546v-295l-452 379l452 381v-295z" />
    <glyph glyph-name="partialdiff" unicode="&#x2202;" horiz-adv-x="1251" 
d="M627 756c-106.667 0 -189.335 -30 -248.002 -90s-88 -135.333 -88 -226s30.333 -162 91 -214c60.667 -52.667 132.667 -79 216 -79c117.333 -0.666992 205.333 45 264 137s88 199.333 88 322c-35.333 48 -81.666 85 -138.999 111s-118.666 39 -183.999 39zM505.999 1307
c-104 0 -199.667 -21.3311 -287 -63.998l-65 152c101.333 58.667 217.666 88 348.999 88c214 0 379.667 -74.333 497 -223c42.667 -54.667 78.667 -129.334 108 -224.001c28.667 -94.667 43 -202.334 43 -323.001c0 -232 -48.333 -414 -145 -546s-236 -198 -418 -198
c-135.333 0 -251.333 42.333 -348 127c-97.333 84 -146 200 -146 348s48.667 265.333 146 352s221.333 130 372 130c149.333 0 261.333 -39 336 -117c-27.333 332 -174.666 498 -441.999 498z" />
    <glyph glyph-name="Delta" unicode="&#x2206;" horiz-adv-x="1355" 
d="M674 1223l-389 -1039h784zM0 0l569 1452h215l572 -1452h-1356z" />
    <glyph glyph-name="product" unicode="&#x220f;" horiz-adv-x="1406" 
d="M1223 0h-195v1274h-643v-1274h-201v1452h1039v-1452z" />
    <glyph glyph-name="summation" unicode="&#x2211;" horiz-adv-x="1161" 
d="M92 0v176l559 555l-559 545v176h1018v-184h-748l551 -537l-569 -547h766v-184h-1018z" />
    <glyph glyph-name="minus" unicode="&#x2212;" horiz-adv-x="1091" 
d="M979 508h-866v162h866v-162z" />
    <glyph glyph-name="uni2215" unicode="&#x2215;" horiz-adv-x="827" 
d="M827 1327l-641 -1327h-186l641 1327h186z" />
    <glyph glyph-name="uni2219" unicode="&#x2219;" horiz-adv-x="571" 
d="M143 582c0 39.333 13.667 73 41 101c26.667 28 60 42 100 42s74 -14 102 -42s42 -61.667 42 -101c0 -38.667 -14 -72 -42 -100s-61.667 -42 -101 -42s-73 13.667 -101 41c-27.333 28 -41 61.667 -41 101z" />
    <glyph glyph-name="radical" unicode="&#x221a;" horiz-adv-x="1361" 
d="M1434 1597h-244l-545 -1597h-186l-387 1083h221l260 -766l481 1461h400v-181z" />
    <glyph glyph-name="infinity" unicode="&#x221e;" horiz-adv-x="1640" 
d="M1196 410c52 0 95.333 16.999 130 50.999s52 77.667 52 131s-17.333 97.333 -52 132s-80.667 52 -138 52c-32.667 0 -65 -8.66699 -97 -26s-58.667 -37 -80 -59c-21.333 -21.333 -50.333 -53.666 -87 -96.999c50.667 -61.333 95.667 -107.333 135 -138s85 -46 137 -46z
M262 591.999c0 -53.333 17.333 -97 52 -131s81 -51 139 -51c79.333 0 167.333 59.333 264 178c-35.333 44 -64 77.333 -86 100c-58 58.667 -116.667 88 -176 88s-106.333 -17.333 -141 -52s-52 -78.667 -52 -132zM449 249.999c-102.667 0 -187.668 32.667 -255.001 98
c-68 65.333 -102 147.333 -102 246s34 180.667 102 246c68 66.667 153 100 255 100c132.667 0 257.334 -73 374.001 -219c122.667 146 245.667 219 369 219c102.667 0 187.667 -33 255 -99s101 -148.333 101 -247s-33.667 -180.667 -101 -246s-152.333 -98 -255 -98
c-135.333 0 -260.333 72.333 -375 217c-65.333 -74 -127 -128.667 -185 -164s-119 -53 -183 -53z" />
    <glyph glyph-name="integral" unicode="&#x222b;" horiz-adv-x="634" 
d="M223 -68l-0.00195312 1196c0 101.333 29 180.666 87 237.999s137.667 86 239 86h76v-176h-62c-47.333 0 -83.666 -13.667 -108.999 -41s-38 -67.666 -38 -120.999v-1198c0 -101.333 -28 -181 -84 -239s-134 -87 -234 -87h-88v177h64c45.333 0.666992 81.333 15 108 43
s40.334 68.667 41.001 122z" />
    <glyph glyph-name="approxequal" unicode="&#x2248;" horiz-adv-x="1165" 
d="M795 219c-65.333 0 -133.669 20.667 -205.002 62l-96 53c-44 23.333 -86.333 35 -127 35c-70.667 0 -133 -31 -187 -93l-108 97c80.667 116 178.334 174 293.001 174c62.667 0 132.667 -21.333 210 -64l95 -51c48 -27.333 95.667 -41 143 -41
c66.667 0 125.334 30 176.001 90l105 -92c-79.333 -113.333 -179 -170 -299 -170zM794.997 616c-65.333 0 -133.668 20.667 -205.001 62l-96 53c-44 23.333 -86.333 35 -127 35c-70.667 0 -133 -30.667 -187 -92l-108 96c80.667 116 178.334 174 293.001 174
c62.667 0 132.667 -21 210 -63l95 -52c48 -27.333 100.667 -41 158 -41s111 30.333 161 91l105 -93c-79.333 -113.333 -179 -170 -299 -170z" />
    <glyph glyph-name="notequal" unicode="&#x2260;" horiz-adv-x="1214" 
d="M1081 309h-577l-152 -205h-196l151 205h-174v162h293l174 238h-467v157h584l149 203h197l-150 -203h168v-157h-284l-174 -238h458v-162z" />
    <glyph glyph-name="lessequal" unicode="&#x2264;" horiz-adv-x="1110" 
d="M133 623v174l844 299v-172l-629 -213l629 -213v-172zM133 266h844v-162h-844v162z" />
    <glyph glyph-name="greaterequal" unicode="&#x2265;" horiz-adv-x="1110" 
d="M977 797v-174l-844 -297v172l629 213l-629 213v172zM133 266h844v-162h-844v162z" />
    <glyph glyph-name="dotmath" unicode="&#x22c5;" horiz-adv-x="571" 
d="M143 582c0 39.333 13.667 73 41 101c26.667 28 60 42 100 42s74 -14 102 -42s42 -61.667 42 -101c0 -38.667 -14 -72 -42 -100s-61.667 -42 -101 -42s-73 13.667 -101 41c-27.333 28 -41 61.667 -41 101z" />
    <glyph glyph-name="uni24C5" unicode="&#x24c5;" horiz-adv-x="1681" 
d="M913 616l-170 -0.000976562v-294h-155v823h325c79.333 0 145.666 -25.667 198.999 -77c53.333 -52 80 -114.667 80 -188s-26.667 -135.666 -80 -186.999s-119.666 -77 -198.999 -77zM743 751.999h143.999c44.667 0 80.334 11.333 107.001 34s40 54 40 94
c0 38.667 -13 70 -39 94s-62 36 -108 36h-144v-258zM91.999 726.999c0 208.667 72.668 386.999 218.001 534.999s321.333 221.667 528 221c206.667 0 383.667 -74 531 -222c146.667 -148.667 220 -327 220 -535s-73.333 -386 -220 -534s-323.334 -222.333 -530.001 -223
c-206.667 0 -383 74 -529 222c-145.333 148.667 -218 327.334 -218 536.001zM252 726.998c0 -172 56.668 -316.333 170.001 -433s252 -175 416 -175s302.667 58.333 416 175s169.666 261 168.999 433c0 172 -56.667 316 -170 432c-112.667 116 -251 174 -415 174
s-302.667 -58 -416 -174s-170 -260 -170 -432z" />
    <glyph glyph-name="filledbox" unicode="&#x25a0;" horiz-adv-x="1886" 
d="M225 0v1452h1436v-1452h-1436z" />
    <glyph glyph-name="H22073" unicode="&#x25a1;" horiz-adv-x="1886" 
d="M393 1296v-1142h1100v1142h-1100zM1661 0h-1436v1452h1436v-1452z" />
    <glyph glyph-name="triagup" unicode="&#x25b2;" horiz-adv-x="1714" 
d="M860 1483l854 -1483h-1714z" />
    <glyph glyph-name="uni25B3" unicode="&#x25b3;" horiz-adv-x="1714" 
d="M1425 154l-567 995l-571 -995h1138zM860 1483l854 -1483h-1714z" />
    <glyph glyph-name="lozenge" unicode="&#x25ca;" horiz-adv-x="1138" 
d="M72 725l413 727h168l414 -727l-414 -725h-168zM281 725l288 -496l287 496l-287 498z" />
    <glyph glyph-name="circle" unicode="&#x25cb;" horiz-adv-x="1701" 
d="M264 725c0 -166.667 56.667 -307.667 170 -423s252 -173 416 -173s302.667 57.667 416 173s170 256.333 170 423s-56.667 307.667 -170 423s-252 173 -416 173s-302.667 -57.667 -416 -173s-170 -256.333 -170 -423zM92 725c0 210 73.667 389 221 537
s326.333 222.333 537 223c210.667 0 390 -74 538 -222c148 -147.333 222 -326.333 222 -537s-74 -390 -222 -538s-327.333 -221.667 -538 -221c-210.667 0 -389.667 73.667 -537 221c-147.333 148 -221 327 -221 537z" />
    <glyph glyph-name="H18533" unicode="&#x25cf;" horiz-adv-x="1701" 
d="M92 725c0 210 73.667 389 221 537s326.333 222.333 537 223c210.667 0 390 -74 538 -222c148 -147.333 222 -326.333 222 -537s-74 -390 -222 -538s-327.333 -221.667 -538 -221c-210.667 0 -389.667 73.667 -537 221c-147.333 148 -221 327 -221 537z" />
    <glyph glyph-name="uni262E" unicode="&#x262e;" horiz-adv-x="1681" 
d="M434 281c87.333 -87.333 193.333 -139.333 318 -156v473zM920 125c121.333 16.667 227 68 317 154l-317 319v-473zM252 727c0 -113.333 26.667 -217 80 -311l420 420v491c-144 -20.667 -263.333 -87 -358 -199s-142 -245.667 -142 -401zM1423 727
c0 155.333 -47.667 289 -143 401s-215.333 178.333 -360 199v-491l421 -424c54.667 98 82 203 82 315zM92 726c0 209.333 72.668 388.001 218.001 536.001s321.333 221.667 528 221s383.667 -75 531 -223c146.667 -148 220 -326 220 -534s-73.333 -386 -220 -534
s-323.334 -222.333 -530.001 -223c-206.667 0 -383 74 -529 222c-145.333 147.333 -218 325.666 -218 534.999z" />
    <glyph glyph-name="uni2713" unicode="&#x2713;" horiz-adv-x="1986" 
d="M1935 1372l-1306 -1407l-578 645l123 117l463 -506l1175 1272z" />
    <glyph glyph-name="uni2715" unicode="&#x2715;" horiz-adv-x="1548" 
d="M1376 -10l-602 614l-602 -614l-121 121l602 616l-600 614l123 121l598 -612l598 612l123 -121l-602 -614l604 -616z" />
    <glyph glyph-name="uni2780" unicode="&#x2780;" horiz-adv-x="1681" 
d="M946 354h-158v502h-176v107c49.333 1.33301 91.333 15.333 126 42s55.667 59 63 97h145v-748zM92 727c0 208.667 72.668 386.999 218.001 534.999s321.333 221.667 528 221c206.667 0 383.667 -74 531 -222c146.667 -148.667 220 -327 220 -535s-73.333 -386 -220 -534
s-323.334 -222.333 -530.001 -223c-206.667 0 -383 74 -529 222c-145.333 148.667 -218 327.334 -218 536.001zM252.001 726.999c0 -172 56.668 -316.333 170.001 -433s252 -175 416 -175s302.667 58.333 416 175s169.666 261 168.999 433c0 172 -56.667 316 -170 432
c-112.667 116 -251 174 -415 174s-302.667 -58 -416 -174s-170 -260 -170 -432z" />
    <glyph glyph-name="uni2781" unicode="&#x2781;" horiz-adv-x="1681" 
d="M559 887c0 66.667 24.668 123.333 74.001 170c48.667 46 113.667 69 195 69s146.666 -22.667 195.999 -68s74 -101 74 -167c0 -90 -48 -165 -144 -225l-147 -93c-36.667 -24.667 -58 -49.667 -64 -75h359v-133h-549v26c0 126.667 58 225.667 174 297l123 76
c58.667 35.333 88 78.333 88 129c0 28.667 -10 53 -30 73s-47.333 30 -82 30s-62.667 -11.333 -84 -34c-21.333 -21.333 -32 -45 -32 -71s2.33301 -48.667 7 -68h-152c-4 20.667 -6 42 -6 64zM92.001 726.999c0 208.667 72.668 386.999 218.001 534.999
s321.333 221.667 528 221c206.667 0 383.667 -74 531 -222c146.667 -148.667 220 -327 220 -535s-73.333 -386 -220 -534s-323.334 -222.333 -530.001 -223c-206.667 0 -383 74 -529 222c-145.333 148.667 -218 327.334 -218 536.001zM252.002 726.998
c0 -172 56.668 -316.333 170.001 -433s252 -175 416 -175s302.667 58.333 416 175s169.666 261 168.999 433c0 172 -56.667 316 -170 432c-112.667 116 -251 174 -415 174s-302.667 -58 -416 -174s-170 -260 -170 -432z" />
    <glyph glyph-name="uni2782" unicode="&#x2782;" horiz-adv-x="1681" 
d="M551 967v133.001h555v-129l-205 -164c62 -6 114.333 -28.333 157 -67s64 -91.667 64 -159s-27.667 -125 -83 -173s-125.666 -72 -210.999 -72s-154 20.333 -206 61s-84.667 90.667 -98 150l138 55c6.66699 -39.333 24.667 -71 54 -95s64.666 -36 105.999 -36
s75.333 10.667 102 32c26 21.333 39 50 39 86s-13.667 63.333 -41 82c-43.333 29.333 -95.333 35.666 -156 18.999l-59 115l194 162h-350zM252 727.001c0 -172 56.668 -316.333 170.001 -433s252 -175 416 -175s302.667 58.333 416 175s169.666 261 168.999 433
c0 172 -56.667 316 -170 432c-112.667 116 -251 174 -415 174s-302.667 -58 -416 -174s-170 -260 -170 -432zM92.001 727.001c0 208.667 72.668 386.999 218.001 534.999s321.333 221.667 528 221c206.667 0 383.667 -74 531 -222c146.667 -148.667 220 -327 220 -535
s-73.333 -386 -220 -534s-323.334 -222.333 -530.001 -223c-206.667 0 -383 74 -529 222c-145.333 148.667 -218 327.334 -218 536.001z" />
    <glyph glyph-name="uni2783" unicode="&#x2783;" horiz-adv-x="1681" 
d="M860 645v285l-227 -285h227zM481 512v150l363 450h174v-467h131v-133h-131v-147h-158v147h-379zM92 727c0 208.667 72.668 386.999 218.001 534.999s321.333 221.667 528 221c206.667 0 383.667 -74 531 -222c146.667 -148.667 220 -327 220 -535s-73.333 -386 -220 -534
s-323.334 -222.333 -530.001 -223c-206.667 0 -383 74 -529 222c-145.333 148.667 -218 327.334 -218 536.001zM252.001 726.999c0 -172 56.668 -316.333 170.001 -433s252 -175 416 -175s302.667 58.333 416 175s169.666 261 168.999 433c0 172 -56.667 316 -170 432
c-112.667 116 -251 174 -415 174s-302.667 -58 -416 -174s-170 -260 -170 -432z" />
    <glyph glyph-name="uni2784" unicode="&#x2784;" horiz-adv-x="1681" 
d="M814 467c38.667 0 70.6611 11 95.9941 33s38 53 38 93s-12.667 71 -38 93s-60.666 33 -105.999 33s-86.666 -18.333 -123.999 -55l-131 49l100 383h418v-135h-315l-47 -177c34 38.667 86.333 58 157 58s129.334 -22.333 176.001 -67s70 -104.334 70 -179.001
s-26.667 -136.667 -80 -186c-53.333 -50.667 -120.666 -76 -201.999 -76s-148 18.667 -200 56c-53.333 37.333 -86.666 81.333 -99.999 132l136 62c9.33301 -35.333 27.333 -63.666 54 -84.999s59.334 -32 98.001 -32zM91.9941 727
c0 208.667 72.668 386.999 218.001 534.999s321.333 221.667 528 221c206.667 0 383.667 -74 531 -222c146.667 -148.667 220 -327 220 -535s-73.333 -386 -220 -534s-323.334 -222.333 -530.001 -223c-206.667 0 -383 74 -529 222
c-145.333 148.667 -218 327.334 -218 536.001zM251.995 726.999c0 -172 56.668 -316.333 170.001 -433s252 -175 416 -175s302.667 58.333 416 175s169.666 261 168.999 433c0 172 -56.667 316 -170 432c-112.667 116 -251 174 -415 174s-302.667 -58 -416 -174
s-170 -260 -170 -432z" />
    <glyph glyph-name="uni2785" unicode="&#x2785;" horiz-adv-x="1681" 
d="M678 602c0 -39.333 14 -70.666 42 -93.999s60.667 -35 98 -35s70 11.667 98 35s42 54.666 42 93.999s-14 70.666 -42 93.999s-60.667 35 -98 35s-70 -11.667 -98 -35s-42 -54.666 -42 -93.999zM819 340c-84.667 0 -157.668 29.333 -219.001 88s-92 148.667 -92 270
s37.333 221.333 112 300c74.667 80 169.667 120 285 120c73.333 0 132 -13 176 -39l-37 -116c-38.667 18 -86 27 -142 27s-106.667 -18.667 -152 -56c-45.333 -36.667 -73.333 -90 -84 -160c18.667 26 44.667 47.333 78 64s69.333 24.667 108 24
c80.667 0 145.334 -22.667 194.001 -68c48 -45.333 72 -108 72 -188c0 -78.667 -28.667 -142.667 -86 -192s-128.333 -74 -213 -74zM91.999 727c0 208.667 72.668 386.999 218.001 534.999s321.333 221.667 528 221c206.667 0 383.667 -74 531 -222
c146.667 -148.667 220 -327 220 -535s-73.333 -386 -220 -534s-323.334 -222.333 -530.001 -223c-206.667 0 -383 74 -529 222c-145.333 148.667 -218 327.334 -218 536.001zM252 726.999c0 -172 56.668 -316.333 170.001 -433s252 -175 416 -175s302.667 58.333 416 175
s169.666 261 168.999 433c0 172 -56.667 316 -170 432c-112.667 116 -251 174 -415 174s-302.667 -58 -416 -174s-170 -260 -170 -432z" />
    <glyph glyph-name="uni2786" unicode="&#x2786;" horiz-adv-x="1681" 
d="M1145 1092v-142.001c-53.333 -36.667 -104 -87 -152 -151c-92 -123.333 -146.667 -275 -164 -455h-167c16.667 187.333 80 358.333 190 513c24.667 34.667 45 60.334 61 77.001l27 22h-403v136h608zM92 726.999c0 208.667 72.668 386.999 218.001 534.999
s321.333 221.667 528 221c206.667 0 383.667 -74 531 -222c146.667 -148.667 220 -327 220 -535s-73.333 -386 -220 -534s-323.334 -222.333 -530.001 -223c-206.667 0 -383 74 -529 222c-145.333 148.667 -218 327.334 -218 536.001zM252.001 726.998
c0 -172 56.668 -316.333 170.001 -433s252 -175 416 -175s302.667 58.333 416 175s169.666 261 168.999 433c0 172 -56.667 316 -170 432c-112.667 116 -251 174 -415 174s-302.667 -58 -416 -174s-170 -260 -170 -432z" />
    <glyph glyph-name="uni2787" unicode="&#x2787;" horiz-adv-x="1681" 
d="M836 340c-92.667 0 -165.665 20.666 -218.998 61.999c-52.667 41.333 -78.667 94.333 -78 159c0 36.667 12 71.334 36 104.001c24.667 32 59 56 103 72c-35.333 15.333 -63.333 38 -84 68s-31 62 -31 96c0 63.333 25.667 115 77 155s116.666 60 195.999 60
c80 0 145.333 -20 196 -60s76 -91.667 76 -155c0 -34 -10.333 -66 -31 -96s-48.667 -52.667 -84 -68c44 -16.667 78.333 -41 103 -73s37 -66.333 37 -103c0 -64.667 -26.333 -117.667 -79 -159s-125.334 -62 -218.001 -62zM836.002 470.999c44 0 78 9.33398 102 28.001
c24 18 35.667 42.333 35 73c0 30.667 -12 55.667 -36 75c-23.333 19.333 -57 29 -101 29s-78 -9.66699 -102 -29s-36 -44.333 -36 -75s12 -55.334 36 -74.001s58 -27.667 102 -27zM836.002 799c35.333 0.666992 63.666 9.66699 84.999 27c20.667 17.333 31 40.333 31 69
s-10.333 51.667 -31 69c-21.333 17.333 -49.666 26 -84.999 26s-63.666 -8.66699 -84.999 -26s-32 -40.333 -32 -69s10.667 -51.667 32 -69s49.666 -26.333 84.999 -27zM92.002 727c0 208.667 72.668 386.999 218.001 534.999s321.333 221.667 528 221
c206.667 0 383.667 -74 531 -222c146.667 -148.667 220 -327 220 -535s-73.333 -386 -220 -534s-323.334 -222.333 -530.001 -223c-206.667 0 -383 74 -529 222c-145.333 148.667 -218 327.334 -218 536.001zM252.003 726.999c0 -172 56.668 -316.333 170.001 -433
s252 -175 416 -175s302.667 58.333 416 175s169.666 261 168.999 433c0 172 -56.667 316 -170 432c-112.667 116 -251 174 -415 174s-302.667 -58 -416 -174s-170 -260 -170 -432z" />
    <glyph glyph-name="uni2788" unicode="&#x2788;" horiz-adv-x="1681" 
d="M975 850c0 39.333 -13.667 71 -41 95s-60.333 36 -99 36c-38 0 -71 -11.667 -99 -35s-42 -55.333 -42 -96s13.667 -72.667 41 -96s60.333 -35 99 -35s72 12 100 36c27.333 24 41 55.667 41 95zM757 469c57.333 0 108.669 17.333 154.002 52s72 87.667 80 159
c-18 -26 -44 -47.333 -78 -64s-70 -24.667 -108 -24c-78 0 -142 23.333 -192 70s-75 108.667 -75 186s29 141.333 87 192c57.333 49.333 128.333 74 213 74s157 -29.333 217 -88s90 -150 90 -274s-36.333 -224.667 -109 -302c-72.667 -76 -167.334 -114 -284.001 -114
c-74 0 -133 13 -177 39l37 121c39.333 -18 87.666 -27 144.999 -27zM92.0029 727c0 208.667 72.668 386.999 218.001 534.999s321.333 221.667 528 221c206.667 0 383.667 -74 531 -222c146.667 -148.667 220 -327 220 -535s-73.333 -386 -220 -534
s-323.334 -222.333 -530.001 -223c-206.667 0 -383 74 -529 222c-145.333 148.667 -218 327.334 -218 536.001zM252.004 726.999c0 -172 56.668 -316.333 170.001 -433s252 -175 416 -175s302.667 58.333 416 175s169.666 261 168.999 433c0 172 -56.667 316 -170 432
c-112.667 116 -251 174 -415 174s-302.667 -58 -416 -174s-170 -260 -170 -432z" />
    <glyph glyph-name="uniE000" unicode="&#xe000;" horiz-adv-x="1667" 
d="M367 420v1032h1187v-170h-1017v-862h294l-378 -453l-381 453h295z" />
    <glyph glyph-name="uni21B5" unicode="&#xe001;" horiz-adv-x="2211" 
d="M1116 -31c-132.667 0 -257.001 32.334 -373.001 97.001l76 151c92.667 -52 191 -78 295 -78c164 0 302.667 57 416 171s170 252.333 170 415h-283l367 430l366 -430h-278c-1.33301 -210 -75.666 -388.333 -222.999 -535s-325 -220.334 -533 -221.001zM1116 1483
c132.667 0 257 -32.333 373 -97l-76 -151c-92.667 52 -191 78 -295 78c-164 0 -302.667 -57 -416 -171s-170 -252.333 -170 -415h293l-366 -430l-367 430h268c1.33301 208.667 76 387 224 535s325.333 221.667 532 221z" />
    <glyph glyph-name="uniE002" unicode="&#xe002;" horiz-adv-x="1943" 
d="M1616 725c0 -208.667 -73.668 -387 -221.001 -535s-325.666 -221.667 -534.999 -221c-209.333 0 -388 73.667 -536 221c-148 148 -222 326.667 -222 536s74 388 222 536s326 221.667 534 221c132.667 0 257 -32.333 373 -97l-76 -151c-92.667 52 -191 78 -295 78
c-164 0 -302.667 -57 -416 -171s-170 -253 -170 -417s56.667 -303.333 170 -418s252 -172 416 -172s302.333 57.333 415 172s169 254 169 418h-295l367 430l366 -430h-266z" />
    <glyph glyph-name="uniFB00" unicode="&#xfb00;" horiz-adv-x="1349" 
d="M1220 1309c-38.667 0 -73.3281 -12.6689 -103.995 -38.002s-46.334 -68.666 -47.001 -129.999v-156h238v-174h-238v-811h-199v811h-448v-811h-199v811h-182v174h182v166c0 105.333 30.667 188 92 248s138.666 90 231.999 90c58.667 0 97 -7 115 -21v-172
c-20.667 8 -50.334 12 -89.001 12c-39.333 0 -74.333 -12.333 -105 -37c-30.667 -25.333 -46 -68.666 -46 -129.999v-156h448v166c0 105.333 30.667 188 92 248s138.666 90 231.999 90c58.667 0 97 -7 115 -21v-172c-20.667 8.66699 -50.334 13 -89.001 13z" />
    <glyph glyph-name="fi" unicode="&#xfb01;" horiz-adv-x="1236" 
d="M840 1362c0 38 13.3311 70.6689 39.998 98.002s59.334 41 98.001 41s71.334 -13.333 98.001 -40s40 -59.334 40 -98.001s-13.667 -71.334 -41 -98.001s-60 -40 -98 -40s-70.333 13.333 -97 40s-40 59 -40 97zM546.998 1489c58.667 0 97.001 -7 115.001 -21v-172
c-20.667 8 -50.334 12 -89.001 12c-39.333 0 -74.333 -12 -105 -36c-30.667 -24.667 -46 -67.667 -46 -129v-158h651v-985h-190v811h-461v-811h-199v811h-182v174h182v166c0 105.333 30.667 188 92 248c62 60 139.333 90 232 90z" />
    <glyph glyph-name="fl" unicode="&#xfb02;" horiz-adv-x="1232" 
d="M573 1309c-39.333 0 -74.3311 -12.668 -104.998 -38.001s-46 -68.666 -46 -129.999v-156h455v498h192v-1483h-192v811h-455v-811h-199v811h-182v174h182v166c0 105.333 30.667 188 92 248s138.666 90 231.999 90c58.667 0 97 -7 115 -21v-172
c-20.667 8.66699 -50.334 13 -89.001 13z" />
    <glyph glyph-name="uniFB03" unicode="&#xfb03;" horiz-adv-x="1884" 
d="M1487 1362c0 38 13.3311 70.6689 39.998 98.002s59.334 41 98.001 41s71.334 -13.333 98.001 -40s40 -59.334 40 -98.001s-13.667 -71.334 -41 -98.001s-60 -40 -98 -40s-70.333 13.333 -97 40s-40 59 -40 97zM222.998 985.002l0.00585938 165.998
c0 105.333 30.667 188 92 248s138.666 90 231.999 90c58.667 0 97 -7 115 -21v-172c-20.667 8 -50.334 12 -89.001 12c-39.333 0 -74.333 -12.333 -105 -37c-30.667 -25.333 -46 -68.666 -46 -129.999v-156h448v166c0 105.333 30.667 188 92 248s138.666 90 231.999 90
c58.667 0 97 -7 115 -21v-172c-20.667 8 -50.334 12 -89.001 12s-73.334 -12.333 -104.001 -37c-30.667 -25.333 -46.334 -68.666 -47.001 -129.999v-156h651v-985h-190v811h-461v-811h-199v811h-448v-811h-199v811h-182v174h182z" />
    <glyph glyph-name="uniFB04" unicode="&#xfb04;" horiz-adv-x="1884" 
d="M223 985l0.00585938 165.998c0 105.333 30.667 188 92 248s138.666 90 231.999 90c58.667 0 97 -7 115 -21v-172c-20.667 8 -50.334 12 -89.001 12c-39.333 0 -74.333 -12.333 -105 -37c-30.667 -25.333 -46 -68.666 -46 -129.999v-156h448v166
c0 105.333 30.667 188 92 248s138.666 90 231.999 90c58.667 0 97 -7 115 -21v-172c-20.667 8 -50.334 12 -89.001 12s-73.334 -12.333 -104.001 -37c-30.667 -25.333 -46.334 -68.666 -47.001 -129.999v-156h461v498h190v-1483h-190v811h-461v-811h-199v811h-448v-811h-199
v811h-182v174h182z" />
    <glyph glyph-name="uniFEFF" unicode="&#xfeff;" horiz-adv-x="0" 
 />
    <glyph glyph-name="zero.numr" horiz-adv-x="872" 
d="M123 953c0 114 24 204.001 72 270.001c55.333 79.333 135.666 119 240.999 119s186 -39.667 242 -119c48 -64.667 72 -154.334 72 -269.001s-24 -204.667 -72 -270c-56 -79.333 -136.667 -119 -242 -119s-185.666 39.667 -240.999 119c-48 65.333 -72 155 -72 269z
M283 953.001c-0.666992 -168.667 50.333 -253 153 -253s154 84.333 154 253s-51.333 253 -154 253s-153.667 -84.333 -153 -253z" />
    <glyph glyph-name="one.numr" horiz-adv-x="620" 
d="M436 580h-157v501h-177v107c49.333 1.33301 91.333 15.333 126 42s55.667 59 63 97h145v-747z" />
    <glyph glyph-name="two.numr" horiz-adv-x="796" 
d="M131 1102c0 66.667 24.668 123.332 74.001 169.999c48.667 46.667 113.667 70 195 70s146.666 -23.333 195.999 -70c49.333 -45.333 74 -100.666 74 -165.999c0 -90 -48 -165 -144 -225l-147 -93c-36.667 -24.667 -58 -49.667 -64 -75h359v-133h-549v26
c0 126.667 58 225.667 174 297l123 76c58.667 35.333 88 78.333 88 129c0 28.667 -10 53 -30 73c-20 19.333 -47.333 29 -82 29s-65 -13 -91 -39s-32 -70.333 -18 -133h-152c-4 20.667 -6 42 -6 64z" />
    <glyph glyph-name="three.numr" horiz-adv-x="843" 
d="M150 1194v133.001h555v-129l-205 -164c62.667 -5.33301 115 -27.333 157 -66s63 -92 63 -160s-27.333 -125.667 -82 -173c-55.333 -48 -125.666 -72 -210.999 -72c-85.333 -0.666992 -154 19.666 -206 60.999s-84.667 91.333 -98 150l137 55
c6.66699 -39.333 24.667 -71 54 -95s64.666 -36 105.999 -36s75.333 10.667 102 32c26 21.333 39 50 39 86s-13.667 63.333 -41 82c-28 18.667 -56 28 -84 28s-51.667 -2.66699 -71 -8l-60 114l195 162h-350z" />
    <glyph glyph-name="four.numr" horiz-adv-x="913" 
d="M502 860v285l-228 -285h228zM123 727v150l362 450h174v-467h132v-133h-132v-147h-157v147h-379z" />
    <glyph glyph-name="five.numr" horiz-adv-x="776" 
d="M410 698c38.667 0 70.9971 10.999 96.9971 32.999c25.333 22 38 53 38 93s-12.667 71.333 -38 94c-26 22.667 -61.667 33.334 -107 32.001c-45.333 0 -86.666 -18.333 -123.999 -55l-131 49l101 383h418v-135h-316l-47 -176c34 38 86.667 57 158 57
c71.333 -0.666992 130.333 -23 177 -67s69.667 -103.333 69 -178c0 -74.667 -26.667 -137.334 -80 -188.001c-52.667 -50.667 -119.667 -75.667 -201 -75s-148.666 19.667 -201.999 57s-86.333 81.333 -99 132l135 61c9.33301 -35.333 27.333 -63.666 54 -84.999
s59.334 -32 98.001 -32z" />
    <glyph glyph-name="six.numr" horiz-adv-x="856" 
d="M293 827c0 -39.333 14 -70.667 42 -94s60.667 -35 98 -35s70 11.667 98 35s42 54.666 42 93.999s-14 71 -42 95s-60.667 35.333 -98 34c-37.333 0 -70 -11.667 -98 -35s-42 -54.666 -42 -93.999zM733 830.999c0 -79.333 -28.666 -143.669 -85.999 -193.002
s-128.333 -73.666 -213 -72.999c-84.667 0 -157.667 29.333 -219 88c-61.333 58 -92 147.667 -92 269s37 222 111 302c74.667 80 170 119.667 286 119c73.333 0.666992 132 -12 176 -38l-37 -117c-39.333 17.333 -87 26 -143 26s-106.667 -18.333 -152 -55s-73 -90 -83 -160
c18 26 43.667 47.333 77 64s69.666 24.667 108.999 24c80.667 -0.666992 145 -23.667 193 -69s72.333 -107.666 73 -186.999z" />
    <glyph glyph-name="seven.numr" horiz-adv-x="854" 
d="M731 1327l-0.000976562 -141.001c-51.333 -36 -101.333 -86 -150 -150c-94 -124 -149 -276 -165 -456h-168c16.667 187.333 80 358.333 190 513c24.667 34.667 45.334 59.334 62.001 74.001l26 25h-403v135h608z" />
    <glyph glyph-name="eight.numr" horiz-adv-x="839" 
d="M420 565c-92.667 0.666992 -165.331 21.668 -217.998 63.001s-79 94 -79 158c0 37.333 12.333 72 37 104s58.667 56.333 102 73c-35.333 15.333 -63.333 37.666 -84 66.999s-31 61.333 -31 96c0 62.667 25.667 114 77 154s116.666 60.333 195.999 61
c80 0 145.333 -20 196 -60s76 -91.667 76 -155c0 -34 -10 -66 -30 -96s-48 -52.333 -84 -67c44 -16.667 78 -41 102 -73s36.333 -66.667 37 -104c0 -64 -26.333 -116.667 -79 -158s-125.334 -62.333 -218.001 -63zM420.003 696.001c44 0 78 9.33203 102 27.999
s35.667 43.334 35 74.001c0 30.667 -12 55.334 -36 74.001c-23.333 18.667 -57 28.334 -101 29.001c-44 0 -78 -9.66699 -102 -29c-24 -18.667 -36 -43.334 -36 -74.001s12 -55.334 36 -74.001s58 -28 102 -28zM420.003 1024c35.333 0 63.666 8.99902 84.999 26.999
s32 41 32 69s-10.667 51 -32 69c-21.333 16.667 -49.666 25 -84.999 25s-63.666 -8.66699 -84.999 -26s-32 -40 -32 -68c0 -29.333 10.667 -52.666 32 -69.999s49.666 -26 84.999 -26z" />
    <glyph glyph-name="nine.numr" horiz-adv-x="851" 
d="M559 1075c0 39.333 -13.668 71 -41.001 95s-60.333 36 -99 36c-38 0 -71 -11.667 -99 -35s-42 -55.333 -42 -96s14 -72.667 42 -96c26.667 -23.333 59.334 -35 98.001 -35s72 12 100 36c27.333 24 41 55.667 41 95zM341.999 694c57.333 0 108.668 17.334 154.001 52.001
s71.666 87.667 78.999 159c-18 -26 -43.667 -47 -77 -63s-69.666 -24.333 -108.999 -25c-78 0 -141.667 23.333 -191 70c-49.333 47.333 -74.333 109.666 -75 186.999c0 77.333 28.667 141 86 191s128.333 75 213 75s157 -29.667 217 -89s90 -151 90 -275
c-0.666992 -124 -37 -224 -109 -300s-166.667 -114.333 -284 -115c-73.333 0 -132 13 -176 39l37 121c39.333 -18 87.666 -27 144.999 -27z" />
    <glyph glyph-name="zero.dnom" horiz-adv-x="872" 
d="M123 374c0 114 24 203.667 72 269c55.333 79.333 135.666 119 240.999 119s186 -39.667 242 -119c48 -65.333 72 -155 72 -269s-24 -204 -72 -270c-56 -78.667 -136.667 -118 -242 -118s-185.666 39.333 -240.999 118c-48 66 -72 156 -72 270zM283 374
c-0.666992 -168.667 50.333 -253 153 -253s154 84.333 154 253s-51.333 253 -154 253s-153.667 -84.333 -153 -253z" />
    <glyph glyph-name="one.dnom" horiz-adv-x="620" 
d="M436 0l-157 -0.000976562v502h-177v106c49.333 1.33301 91.333 15.333 126 42s55.667 59.334 63 98.001h145v-748z" />
    <glyph glyph-name="two.dnom" horiz-adv-x="796" 
d="M131 522c0 66.667 24.668 123.333 74.001 170c48.667 46.667 113.667 70 195 70s146.666 -23 195.999 -69s74 -101.667 74 -167c0 -90 -48 -165 -144 -225l-147 -92c-36.667 -24.667 -58 -50 -64 -76h359v-133h-549v27c0 126.667 58 225.667 174 297l123 75
c58.667 35.333 88 78.333 88 129c0 28.667 -10 53 -30 73s-47.333 30 -82 30s-65 -13.333 -91 -40s-32 -70.667 -18 -132h-152c-4 20.667 -6 41.667 -6 63z" />
    <glyph glyph-name="three.dnom" horiz-adv-x="843" 
d="M150 616l0.000976562 134h555v-129l-205 -164c62.667 -6 115 -28.333 157 -67s63 -92 63 -160s-27.333 -125.667 -82 -173c-55.333 -47.333 -125.666 -71 -210.999 -71s-154 20.333 -206 61s-84.667 90.667 -98 150l137 55c6.66699 -39.333 24.667 -71 54 -95
s64.666 -36 105.999 -36s75.333 10.667 102 32c26 20.667 39 49 39 85s-13.667 63.333 -41 82c-42.667 30 -94.334 36.667 -155.001 20l-60 115l195 161h-350z" />
    <glyph glyph-name="four.dnom" horiz-adv-x="913" 
d="M502 281v284l-228 -284h228zM123 147v150l362 451h174v-467h132v-134h-132v-147h-157v147h-379z" />
    <glyph glyph-name="five.dnom" horiz-adv-x="827" 
d="M410 119c38.667 0 70.9971 11 96.9971 33c25.333 22 38 53 38 93s-12.667 71 -38 93c-26 22 -61.667 33 -107 33s-86.666 -18.667 -123.999 -56l-131 50l101 383h418v-136h-316l-47 -176c34 38.667 86.667 58 158 58s130.333 -22.333 177 -67
s69.667 -104.334 69 -179.001c0 -74.667 -26.667 -137 -80 -187c-52.667 -50 -119.667 -75 -201 -75s-148.666 18.667 -201.999 56c-52.667 37.333 -85.667 81.333 -99 132l135 62c9.33301 -35.333 27.333 -63.666 54 -84.999s59.334 -32 98.001 -32z" />
    <glyph glyph-name="six.dnom" horiz-adv-x="856" 
d="M293 248c0 -39.333 14 -70.666 42 -93.999s60.667 -35 98 -35s70 11.667 98 35s42 54.666 42 93.999s-14 70.666 -42 93.999s-60.667 35 -98 35s-70 -11.667 -98 -35s-42 -54.666 -42 -93.999zM516 635c-56 0 -106.666 -18.333 -151.999 -55s-73 -90 -83 -160
c18 26.667 43.667 48 77 64s69.666 24 108.999 24c80.667 0 145 -23 193 -69s72.333 -108.333 73 -187c0 -78.667 -28.667 -143 -86 -193c-57.333 -48.667 -128.333 -73 -213 -73s-157.667 29.333 -219 88s-92 148.667 -92 270c-0.666992 121.333 36.333 221.333 111 300
c74.667 80 170 120 286 120c73.333 0 132 -13 176 -39l-37 -117c-39.333 18 -87 27 -143 27z" />
    <glyph glyph-name="seven.dnom" horiz-adv-x="854" 
d="M731 748l-0.00195312 -142.001c-53.333 -36.667 -104 -87 -152 -151c-93.333 -124 -147.666 -275.667 -162.999 -455h-168c16.667 187.333 80 358.333 190 513c24.667 34.667 45.334 60.334 62.001 77.001l26 22h-403v136h608z" />
    <glyph glyph-name="eight.dnom" horiz-adv-x="839" 
d="M420 -14c-92.667 0 -165.331 20.667 -217.998 62s-79 94.333 -79 159c0 36.667 12.333 71 37 103s58.667 56.333 102 73c-35.333 15.333 -63.333 38 -84 68s-31 62 -31 96c0 62.667 25.667 114 77 154c51.333 40.667 116.666 61 195.999 61c80 0 145.333 -20 196 -60
s76 -91.667 76 -155c0 -34 -10 -66 -30 -96s-48 -52.667 -84 -68c44 -16.667 78 -41 102 -73s36.333 -66.333 37 -103c0 -64.667 -26.333 -117.667 -79 -159s-125.334 -62 -218.001 -62zM420.003 117c44 -0.666992 78 8.33301 102 27s35.667 43.334 35 74.001
c0 30.667 -12 55.667 -36 75c-23.333 19.333 -57 29 -101 29s-78 -9.66699 -102 -29s-36 -44.333 -36 -75s12 -55.334 36 -74.001c24 -18 58 -27 102 -27zM420.003 444c35.333 0 63.666 9.00098 84.999 27.001s32 41.333 32 70s-10.667 51.667 -32 69
s-49.666 25.666 -84.999 24.999c-35.333 0 -63.666 -8.66699 -84.999 -26c-21.333 -18 -32 -41 -32 -69s10.667 -51 32 -69s49.666 -27 84.999 -27z" />
    <glyph glyph-name="nine.dnom" horiz-adv-x="851" 
d="M559 500c0 39.333 -13.667 71 -41 95s-60.333 36 -99 36c-38 0 -71 -11.667 -99 -35s-42 -55.333 -42 -96s13.667 -73 41 -97c27.333 -23.333 60.333 -35 99 -35s72 12.333 100 37c27.333 24 41 55.667 41 95zM123 498c0 78.667 28.6689 142.667 86.002 192
s128.333 74 213 74s157 -29.333 217 -88s90 -150 90 -274c-0.666992 -124 -37 -224.667 -109 -302c-72 -76.667 -166.667 -114.667 -284 -114c-73.333 0 -132 13 -176 39l37 120c39.333 -18 87.666 -27 144.999 -27s108.666 17.667 153.999 53
c45.333 34.667 71.666 87.667 78.999 159c-18 -26 -43.667 -47.333 -77 -64s-69.666 -24.667 -108.999 -24c-78 0 -141.667 23.333 -191 70s-74.333 108.667 -75 186z" />
    <glyph glyph-name="space.frac" horiz-adv-x="102" 
 />
    <glyph glyph-name="a.ordn" horiz-adv-x="876" 
d="M395 735c122.667 0 184.331 63.666 184.998 190.999v30l-195 -30c-64 -9.33301 -96 -41.666 -96 -96.999c0.666992 -26 10.334 -48.333 29.001 -67s44.334 -27.667 77.001 -27zM370.997 611.999c-70.667 0 -127.67 20.6689 -171.003 62.002s-65 90.666 -65 147.999
c-0.666992 57.333 19 104.666 59 141.999s90.667 60 152 68l180 25c36 5.33301 54 23.333 54 54s-11.667 57 -35 79s-57.666 33 -102.999 33s-80.666 -12.333 -105.999 -37s-40.333 -56.667 -45 -96l-141 32c6.66699 64 36.334 118 89.001 162s124 66 214 66
s159 -24.333 207 -73s71.667 -110.334 71 -185.001v-347c0 -53.333 2.66699 -90.666 8 -111.999h-145c-5.33301 22 -8 52 -8 90c-44 -74 -115.667 -111 -215 -111z" />
    <glyph glyph-name="b.ordn" horiz-adv-x="1011" 
d="M719 983c0 71.333 -17.332 127.001 -51.999 167.001c-34 40 -80.333 60 -139 60s-106.334 -20.333 -143.001 -61s-55 -96.334 -55 -167.001s18.333 -126.667 55 -168s83.667 -62 141 -62s104 20.667 140 62c35.333 42 53 98.333 53 169zM330.001 633.001
l-149.999 0.000976562v1038h152v-434c16.667 31.333 45 57.666 85 78.999s86 32 138 32c101.333 0 180 -34 236 -102c55.333 -68 83 -155.667 83 -263c0 -106.667 -29.333 -194.667 -88 -264c-58.667 -70 -137.334 -105 -236.001 -105s-172 38.333 -220 115v-96z" />
    <glyph glyph-name="c.ordn" horiz-adv-x="946" 
d="M489 1208c-54.667 0 -101.331 -20.3311 -139.998 -60.998s-58 -96.334 -58 -167.001s19.333 -126 58 -166c38 -40 84.333 -60 139 -60s96.667 13.333 126 40s49.333 57.667 60 93l137 -53c-20.667 -60 -58.334 -112 -113.001 -156s-128 -66 -220 -66
s-171.667 35.333 -239 106s-101 158.667 -101 264c0 106 33.333 193.667 100 263c66.667 70 146.667 105 240 105s167 -22.333 221 -67s89.333 -98.334 106 -161.001l-137 -53c-26.667 92.667 -86.334 139 -179.001 139z" />
    <glyph glyph-name="d.ordn" horiz-adv-x="1013" 
d="M825 1671l0.00195312 -911c0 -56 2 -98.333 6 -127h-147c-5.33301 44 -8 75.333 -8 94c-16.667 -31.333 -43.334 -58 -80.001 -80s-79 -33 -127 -33c-100 0 -180.333 34.667 -241 104s-91 156.333 -91 261c0 104 30.667 191 92 261
c61.333 70.667 143.666 106 246.999 106s169.333 -35.667 198 -107v432h151zM676.002 984c0 69.333 -17.333 124 -52 164s-80.667 60 -138 60s-104 -20.667 -140 -62c-35.333 -41.333 -53 -96.333 -53 -165c0 -68 17.333 -123.667 52 -167c34.667 -42.667 81 -64 139 -64
s104.667 21.667 140 65c34.667 44 52 100.333 52 169z" />
    <glyph glyph-name="e.ordn" horiz-adv-x="944" 
d="M809 987l-2 -41.001l-2 -8h-514c1.33301 -56 20.666 -102 57.999 -138s83.333 -54.333 138 -55c93.333 0 154.333 43 183 129l131 -43c-19.333 -64 -56.666 -116.333 -111.999 -157c-55.333 -41.333 -127 -62 -215 -62s-166.333 34 -235 102s-103 156.333 -103 265
c0 109.333 33.333 198.333 100 267c66.667 69.333 148.667 104 246 104s176.333 -32.667 237 -98c60 -65.333 90 -153.666 90 -264.999zM295 1055h355.998c-1.33301 47.333 -17.666 86.333 -48.999 117s-73.666 46 -126.999 46s-96 -16 -128 -48
c-32 -32.667 -49.333 -71 -52 -115z" />
    <glyph glyph-name="f.ordn" horiz-adv-x="716" 
d="M580 1192h-164.001v-561h-156v561h-125v137h125v103c0 76 22 136 66 180s101.333 65.667 172 65c44 0 72 -4.66699 84 -14v-133c-16.667 5.33301 -38 8 -64 8s-49.667 -8.66699 -71 -26s-31.666 -46.333 -30.999 -87v-96h164v-137z" />
    <glyph glyph-name="g.ordn" horiz-adv-x="952" 
d="M295 1002c0 -62.667 17 -112.667 51 -150s79.333 -56.333 136 -57c56.667 0 102 19 136 57c34.667 37.333 52 87.333 52 150s-17.333 112.667 -52 150s-80 56 -136 56c-55.333 0 -100.333 -18.667 -135 -56s-52 -87.333 -52 -150zM463 473
c135.333 0 203.002 71.668 203.002 215.001v82c-36 -69.333 -102.667 -104 -200 -104s-176.333 31.667 -237 95c-60 63.333 -90 143.666 -90 240.999s29.667 178 89 242c59.333 64.667 138.666 97 237.999 97s166.666 -34.667 201.999 -104v90h149v-635
c0 -101.333 -28.333 -185.333 -85 -252s-145.667 -100 -267 -100c-88.667 0 -163 24 -223 72s-95 109.333 -105 184l146 35c5.33301 -46.667 24.333 -84.667 57 -114s73.667 -44 123 -44z" />
    <glyph glyph-name="h.ordn" horiz-adv-x="968" 
d="M334 633l-153.999 -0.000976562v1038h154v-416c46.667 62 112.667 93 198 93s149.333 -25.667 192 -77s64 -117.333 64 -198v-440h-153v414c0 108 -50.667 161.667 -152 161c-44.667 0 -80.334 -15.667 -107.001 -47s-40.667 -71.666 -42 -120.999v-407z" />
    <glyph glyph-name="i.ordn" horiz-adv-x="569" 
d="M182 1579c0 28.667 10 53.333 30 74s44.333 31 73 31s53 -10.667 73 -32c20 -20 29.667 -44.333 29 -73c0 -28.667 -10 -53 -30 -73c-20.667 -20 -45 -30 -73 -30s-52 10 -72 30s-30 44.333 -30 73zM360 632.999h-151v694h151v-694z" />
    <glyph glyph-name="j.ordn" horiz-adv-x="608" 
d="M254 1581c0 28.667 10 53.334 30 74.001s44 31 72 31s52.333 -10.333 73 -31c20 -20.667 30 -45.334 30 -74.001s-10 -53 -30 -73s-44.333 -30 -73 -30c-28 0 -52 10 -72 30s-30 44.333 -30 73zM281 569l-0.000976562 758h153v-768c0 -66 -18 -119 -54 -159
s-85 -60 -147 -60c-39.333 0 -69.333 3.33301 -90 10v127c16.667 -2.66699 32.334 -4 47.001 -4c60.667 0 91 32 91 96z" />
    <glyph glyph-name="k.ordn" horiz-adv-x="880" 
d="M332 633h-152v1038h152v-635l280 291h207l-289 -293l295 -401h-190l-213 293l-90 -92v-201z" />
    <glyph glyph-name="l.ordn" horiz-adv-x="514" 
d="M334 633h-154v1038h154v-1038z" />
    <glyph glyph-name="m.ordn" horiz-adv-x="1394" 
d="M332 633l-152.001 0.000976562v694h146v-90c20.667 35.333 50 62.666 88 81.999s78.333 29 121 29c104 0 172.667 -41.667 206 -125c50.667 83.333 127.334 125 230.001 125c66.667 0 124 -22.667 172 -68s71.667 -111 71 -197v-450h-149v428
c0 46 -11.667 82.333 -35 109c-24 26.667 -58.667 40 -104 40s-82 -15.333 -110 -46s-42 -69 -42 -115v-416h-151v428c0 100 -46.667 149.667 -140 149c-44.667 0 -81 -15.333 -109 -46s-42 -69.667 -42 -117v-414z" />
    <glyph glyph-name="n.ordn" horiz-adv-x="968" 
d="M334 1034l0.000976562 -400.999h-154v694h150v-94c45.333 76.667 111.666 115 198.999 115s152.333 -25.667 195 -77s64 -117.333 64 -198v-440h-153v414c0 108 -50.667 161.667 -152 161c-46 0 -82.333 -16.333 -109 -49s-40 -74.334 -40 -125.001z" />
    <glyph glyph-name="o.ordn" horiz-adv-x="991" 
d="M496 1350c104 0 189.667 -34.666 257 -103.999s101 -157.666 101 -264.999c0 -106.667 -33.667 -194.667 -101 -264c-67.333 -70 -153 -105 -257 -105s-189.667 34.667 -257 104s-101.333 157.666 -102 264.999s33 195.666 101 264.999s154 104 258 104zM291 981.001
c-0.666992 -72.667 19 -129.334 59 -170.001s88.333 -61 145 -61s104.667 20.333 144 61s59 97.334 59 170.001s-19.333 129 -58 169s-86.667 60 -144 60s-106 -20 -146 -60s-59.667 -96.333 -59 -169z" />
    <glyph glyph-name="p.ordn" horiz-adv-x="1011" 
d="M721 980c0 66.667 -17.665 121.333 -52.998 164c-34.667 42.667 -81.334 64 -140.001 64s-106.334 -21 -143.001 -63s-55 -96.333 -55 -163s18.333 -122 55 -166c36.667 -42.667 83.667 -64 141 -64s104.333 21 141 63c36 42.667 54 97.667 54 165zM332.002 359.999
l-151.999 -0.000976562v967h150v-100c18 34 46.667 62 86 84s85.666 32.667 138.999 32c100 0 178.333 -34 235 -102c56 -68 84 -154.667 84 -260s-29.667 -192.666 -89 -261.999c-59.333 -70 -138.333 -105 -237 -105s-170.667 34.333 -216 103v-357z" />
    <glyph glyph-name="q.ordn" horiz-adv-x="976" 
d="M680 982c0 68 -17.999 122.667 -53.999 164s-82.667 62 -140 62s-104 -20.667 -140 -62c-35.333 -41.333 -53 -96 -53 -164c0 -67.333 17.667 -123 53 -167c35.333 -43.333 81.666 -65 138.999 -65s104.333 21.667 141 65c36 44 54 99.667 54 167zM829.001 360
l-151 -0.000976562v361c-40 -71.333 -109.333 -107 -208 -107s-178.667 35.333 -240 106s-92.333 157.667 -93 261c0 102.667 30 189 90 259s139.333 105.333 238 106c56 0 102.333 -11.667 139 -35s62.667 -50.666 78 -81.999v98h147v-967z" />
    <glyph glyph-name="r.ordn" horiz-adv-x="589" 
d="M485 1180c-122.667 0 -184 -69.667 -184 -209v-338h-154v694h150v-115c36.667 83.333 103.667 125 201 125c12 0 27.667 -1.33301 47 -4v-159c-20.667 4 -40.667 6 -60 6z" />
    <glyph glyph-name="s.ordn" horiz-adv-x="821" 
d="M414 735c38.667 0 68.333 8.66699 89 26c20 17.333 29.667 37.333 29 60c0 42 -27.667 69.333 -83 82l-111 25c-56 12 -100 36 -132 72s-48 81.333 -48 136s24.333 104 73 148c49.333 44 112.666 66 189.999 66s137 -20.667 179 -62s67.333 -85 76 -131l-131 -41
c-4 27.333 -16.667 52.333 -38 75s-50.666 34 -87.999 34s-66 -8.66699 -86 -26s-30 -36.666 -30 -57.999c0 -40.667 24.667 -66.667 74 -78l108 -23c64.667 -13.333 113.667 -38.333 147 -75s50 -82.334 50 -137.001s-23 -104.667 -69 -150c-46 -44 -111.667 -66 -197 -66
s-151.333 22 -198 66c-47.333 44 -74.333 91 -81 141l137 41c2.66699 -35.333 17 -65 43 -89s58.333 -36 97 -36z" />
    <glyph glyph-name="t.ordn" horiz-adv-x="663" 
d="M395 1542v-215h148v-137h-148v-338c0 -60 30.667 -90 92 -90c19.333 0 38 2 56 6v-129c-23.333 -9.33301 -61 -14 -113 -14s-96.333 18 -133 54s-55 85.333 -55 148v363h-129v137h37c36 0 62.667 10 80 30s26 46.333 26 79v106h139z" />
    <glyph glyph-name="u.ordn" horiz-adv-x="901" 
d="M399 612c-79.333 0 -142.999 26.333 -190.999 79s-71.667 118.667 -71 198v438h154v-412c0 -48.667 12.333 -88.334 37 -119.001c24 -30.667 60.667 -46 110 -46s87.333 15 114 45s40 69.333 40 118v414h153v-567c0 -57.333 3 -99.666 9 -126.999h-148
c-4 16.667 -6 44 -6 82c-18 -32.667 -45.333 -58 -82 -76s-76.334 -27 -119.001 -27z" />
    <glyph glyph-name="v.ordn" horiz-adv-x="827" 
d="M766 1327l-274 -694h-154l-283 694h170l191 -512l186 512h164z" />
    <glyph glyph-name="w.ordn" horiz-adv-x="1234" 
d="M539 1327h157l172 -496l144 496h157l-223 -694h-155l-177 510l-174 -510h-159l-226 694h164l148 -496z" />
    <glyph glyph-name="x.ordn" horiz-adv-x="845" 
d="M76 633l254 352.002l-250 342h184l160 -231l158 231h178l-246 -340l254 -354h-182l-168 241c-4 -6.66699 -31.333 -47.334 -82 -122.001s-78.667 -114.334 -84 -119.001h-176z" />
    <glyph glyph-name="y.ordn" horiz-adv-x="856" 
d="M350 348h-166l170 365l-299 614h176l205 -455l197 455h162z" />
    <glyph glyph-name="z.ordn" horiz-adv-x="837" 
d="M700 633h-563v135l365 424h-357v135h549v-131l-366 -428h372v-135z" />
    <glyph glyph-name="space.tf" 
 />
    <glyph glyph-name="numbersign.tf" 
d="M479 819l-65 -307h237l66 307h-238zM1130 985v-166h-233l-66 -307h199v-166h-235l-74 -346h-180l73 346h-237l-74 -346h-180l74 346h-181v166h217l66 307h-182v166h217l74 342h180l-74 -342h238l73 342h181l-74 -342h198z" />
    <glyph glyph-name="dollar.tf" 
d="M332 963c0 -96.667 60.667 -157.668 182 -183.001v379c-57.333 -10.667 -102 -33.667 -134 -69s-48 -77.666 -48 -126.999zM858 356.999c0 46 -15.667 85.999 -47 119.999s-78.333 58.667 -141 74v-383c62.667 10.667 109.667 33.334 141 68.001s47 75 47 121z
M670 -213.002l-155.998 -0.00292969v205c-128 13.333 -229.333 58 -304 134s-117.334 162.333 -128.001 259l188 61c5.33301 -69.333 28.666 -130 69.999 -182s99.333 -84 174 -96v414l-49 10c-104 22 -185 64 -243 126s-87 140.667 -87 236
c0.666992 96 36.334 179.333 107.001 250s161.334 113 272.001 127v209h156v-211c110.667 -13.333 195 -50.666 253 -111.999s97 -131.666 117 -210.999l-178 -66c-6.66699 44 -26.334 86.333 -59.001 127s-77 69.334 -133 86.001v-408l28 -6
c109.333 -22 195.666 -66.333 258.999 -133s95 -146 95 -238s-33.333 -174 -100 -246c-68 -72 -162 -115.333 -282 -130v-205z" />
    <glyph glyph-name="percent.tf" 
d="M829 -16c-75.333 0 -140.332 26.666 -194.999 79.999s-82.334 118.333 -83.001 195c0 76 27.667 140.667 83 194c56 52.667 121.333 79 196 79s140 -26.667 196 -80s84 -117.666 84 -192.999c0 -76.667 -28 -141.667 -84 -195s-121.667 -80 -197 -80zM830.001 382.999
c-34.667 0 -64 -11.667 -88 -35s-35.667 -53 -35 -89c-0.666992 -36 11 -66 35 -90s53.333 -36 88 -36s64.334 12 89.001 36c23.333 24 35 54 35 90s-11.667 65.667 -35 89c-24.667 23.333 -54.334 35 -89.001 35zM315.001 787.999
c-75.333 0 -140.332 27.001 -194.999 81.001s-82.334 119 -83.001 195c0 76 27.667 140.667 83 194c56 53.333 121.333 79.666 196 78.999c74.667 0 140 -26.667 196 -80c56 -52.667 84 -117 84 -193s-28 -141 -84 -195s-121.667 -81 -197 -81zM316.002 1188
c-34.667 0 -64 -11.667 -88 -35s-35.667 -53 -35 -89c-0.666992 -36 11 -66 35 -90s53.333 -36 88 -36s64 12 88 36s36 54 36 90s-12 65.667 -36 89s-53.333 35 -88 35zM1077 1106v-188l-987 -670v184z" />
    <glyph glyph-name="plus.tf" 
d="M106 670h383v399h168v-399h385v-162h-385v-404h-168v404h-383v162z" />
    <glyph glyph-name="comma.tf" 
d="M391 146c0 45.333 16.667 84 50 116c33.333 31.333 75.666 47 126.999 47s95.333 -19.667 132 -59s55.334 -94.666 56.001 -165.999c0 -140.667 -36.333 -249.667 -109 -327s-153 -121.333 -241 -132v123c57.333 12 104 42.667 140 92s54.667 103.333 56 162
c-16.667 -8 -33.667 -12 -51 -12c-45.333 0 -83.333 14.667 -114 44s-46 66.666 -46 111.999z" />
    <glyph glyph-name="period.tf" 
d="M573 -12c-47.333 0 -86.334 15.666 -117.001 46.999s-46 70 -46 116s15.667 85 47 117s70.333 47.667 117 47c46.667 0 85.334 -16 116.001 -48c31.333 -32.667 47 -71.667 47 -117s-15.667 -83.666 -47 -114.999s-70.333 -47 -117 -47z" />
    <glyph glyph-name="zero.tf" 
d="M70 664c0 216 35.333 378.333 106 487c91.333 138 223.666 207 396.999 207s306 -69 398 -207c70.667 -108.667 106 -271 106 -487s-35.333 -378.667 -106 -488c-91.333 -138 -223.666 -207 -396.999 -207s-306 69 -398 207c-70.667 109.333 -106 272 -106 488zM573 147
c55.333 0 102.333 11.999 141 35.999s68.334 52.667 89.001 86c48.667 78.667 73.667 209 75 391s-23.667 314.667 -75 398c-20.667 33.333 -50.334 62 -89.001 86s-85.334 36 -140.001 36s-101.667 -12 -141 -36c-38.667 -24 -68.334 -52.667 -89.001 -86
c-50.667 -81.333 -76 -212.666 -76 -393.999s25.333 -313 76 -395c20.667 -33.333 50.334 -62 89.001 -86s85.334 -36 140.001 -36z" />
    <glyph glyph-name="one.tf" 
d="M215 180h334v756h-322v141c90 1.33301 166 25 228 71c61.333 46 99.333 105.667 114 179h176v-1147h320v-180h-850v180z" />
    <glyph glyph-name="two.tf" 
d="M123 928c0 118.667 41.665 220.002 124.998 304.002s194.333 126 333 126c139.333 0 249 -39.333 329 -118s120 -175.334 120 -290.001c0 -168 -83.333 -304.333 -250 -409l-262 -168c-94 -60 -148 -122.333 -162 -187h682v-186h-929c2.66699 112 28 210.333 76 295
c48.667 84.667 128.334 162.334 239.001 233.001l221 144c121.333 78 182 170 182 276c0 65.333 -21.667 120.666 -65 165.999c-44 45.333 -106.667 68 -188 68s-143.666 -25.333 -186.999 -76c-44 -50.667 -65.667 -116.334 -65 -197.001c0 -12 1.33301 -31.667 4 -59
l-201 24c-1.33301 12 -2 30 -2 54z" />
    <glyph glyph-name="three.tf" 
d="M104 1143v184.003h902v-180l-379 -350c107.333 -0.666992 202.333 -36.334 285 -107.001s124 -167.334 124 -290.001s-43 -225.334 -129 -308.001c-86 -83.333 -202.667 -125 -350 -125s-265 40.667 -353 122s-135.667 180 -143 296l197 45
c4 -86 33.667 -155.333 89 -208s125.333 -79 210 -79s152 23.667 202 71c50 48 75 109.333 75 184s-26.667 133 -80 175s-117 63.333 -191 64c-40 -0.666992 -79 -7.66699 -117 -21l-98 166l391 361h-635z" />
    <glyph glyph-name="four.tf" 
d="M727 485v650l-467 -650h467zM76 299v231l569 797h277v-842h206v-186h-206v-299h-195v299h-651z" />
    <glyph glyph-name="five.tf" 
d="M1006 1327v-184h-568l-98 -381c60 65.333 153.333 98 280 98s231.667 -39.667 315 -119c84 -79.333 126 -185 126 -317s-45 -241 -135 -327c-89.333 -86.667 -204.666 -130 -345.999 -130c-141.333 0.666992 -257.333 39 -348 115s-140.667 168.667 -150 278l192 58
c5.33301 -82 36 -148.333 92 -199s124.667 -76 206 -76s149.333 24.667 204 74s82 116 82 200c0 83.333 -27.333 149 -82 197s-127.334 72 -218.001 72s-166.667 -32 -228 -96l-197 78l172 659h701z" />
    <glyph glyph-name="six.tf" 
d="M311 424c0 -84.667 28.667 -152.667 86 -204s125.333 -77 204 -77s146 25.333 202 76s84 118.667 84 204s-28 153.333 -84 204c-56 50 -124.333 75 -205 75s-148.667 -25.333 -204 -76s-83 -118 -83 -202zM633 874c134 0 243.667 -40.667 329 -122s128 -190.333 128 -327
c0 -137.333 -48.667 -247.666 -146 -330.999s-215 -125 -353 -125c-138.667 0 -259 51.667 -361 155s-152.667 256.666 -152 459.999c0 240 64 429 192 567c128.667 138 292.667 207 492 207c122 0 217.667 -24.667 287 -74l-62 -164c-65.333 38 -144.333 57.333 -237 58
c-135.333 0 -245 -44 -329 -132s-130 -201.667 -138 -341c30 48.667 75.333 89 136 121s132 48 214 48z" />
    <glyph glyph-name="seven.tf" 
d="M1077 1327v-192.001c-344 -276 -537.667 -654.333 -581 -1135h-207c21.333 282.667 104 540.334 248 773.001c62 102 134.667 194.667 218 278c30.667 31.333 54.667 54.333 72 69l29 23h-788v184h1009z" />
    <glyph glyph-name="eight.tf" 
d="M573 -31c-148.667 0 -265.999 35.9961 -351.999 107.996s-129 163 -129 273c0 78 23.667 146 71 204s107.666 99.333 180.999 124c-62.667 23.333 -114.667 63.333 -156 120c-40.667 56.667 -61 120.334 -61 191.001c0 108 42.333 196.333 127 265
c85.333 69.333 192 104 320 104s234.333 -34.667 319 -104s127 -157.666 127 -264.999c0 -69.333 -20.667 -132.666 -62 -189.999s-93 -97.666 -155 -120.999c74 -23.333 134.333 -64.333 181 -123s70.334 -127 71.001 -205c0.666992 -110.667 -42.333 -202 -129 -274
s-204.334 -107.667 -353.001 -107zM573.001 142.996c86 -0.666992 154 20.333 204 63s75 96.667 75 162s-25 119.333 -75 162s-118 64 -204 64s-153.667 -21.667 -203 -65s-74.333 -97 -75 -161c0.666992 -64 25.667 -117.667 75 -161c49.333 -42.667 117 -64 203 -64z
M573.001 763.996c70.667 0 129.666 19.666 176.999 58.999c46.667 39.333 70 90.333 70 153s-22.667 114 -68 154c-45.333 41.333 -105 62 -179 62s-133.667 -20.667 -179 -62s-67.333 -92.666 -66 -153.999c0 -62 23 -113 69 -153c46.667 -39.333 105.334 -59 176.001 -59z
" />
    <glyph glyph-name="nine.tf" 
d="M831 901c0 83.333 -28.667 151.001 -86 203.001c-56.667 52 -123.667 78 -201 78s-144.333 -25.667 -201 -77s-85 -119.333 -85 -204s28 -152.334 84 -203.001s123.333 -76 202 -76s146 26 202 78c56 50.667 84.333 117.667 85 201zM397 150.001
c151.333 0 265.002 42.999 341.002 128.999s116 199 120 339c-26 -48 -68.667 -88 -128 -120s-131.333 -47.667 -216 -47c-122.667 -0.666992 -229.667 39 -321 119s-137 188.333 -137 325s48 248 144 334s213 129 351 129s257.667 -52 359 -156
s151.666 -255.333 150.999 -454c0 -248.667 -55.667 -440.667 -167 -576s-277 -203 -497 -203c-52 0.666992 -108 8.33398 -168 23.001s-106.333 33 -139 55l66 166c69.333 -42 149.666 -63 240.999 -63z" />
    <glyph glyph-name="colon.tf" 
d="M416 133c0 44 15 81.333 45 112s67 46 111 46s81 -15.333 111 -46c30.667 -30.667 46 -68 46 -112c0 -44.667 -15.333 -81.667 -46 -111s-68 -44 -112 -44c-44.667 0 -81.667 14.667 -111 44c-29.333 30 -44 67 -44 111zM416 844c0 44 15 81.333 45 112s67 45.667 111 45
c44 0 81 -15.333 111 -46c30.667 -30 46 -67 46 -111s-15.333 -81 -46 -111s-68 -45 -112 -45c-44.667 0 -81.667 15 -111 45s-44 67 -44 111z" />
    <glyph glyph-name="semicolon.tf" 
d="M543 -4c-30 0 -59.001 13.334 -87.001 40.001s-42 60.667 -42 102c0 42.667 15.333 78.667 46 108s69.334 43.666 116.001 42.999s87 -19 121 -55c33.333 -36 50.333 -86.667 51 -152c0 -130 -33.333 -230.333 -100 -301s-140 -111.667 -220 -123v115
c50.667 10.667 92.667 38.667 126 84s51.333 95 54 149c-13.333 -6.66699 -35 -10 -65 -10zM417.999 844.001c0 44 15 81.333 45 112s67 45.667 111 45c44 0 81 -15.333 111 -46c30.667 -30 46 -67 46 -111s-15.333 -81 -46 -111s-68 -45 -112 -45
c-44.667 0 -81.667 15 -111 45s-44 67 -44 111z" />
    <glyph glyph-name="less.tf" 
d="M152 500v174l843 422v-195l-635 -313l635 -314v-194z" />
    <glyph glyph-name="equal.tf" 
d="M1049 309h-949v162h949v-162zM1049 709h-949v157h949v-157z" />
    <glyph glyph-name="greater.tf" 
d="M995 674v-174l-843 -420v194l639 314l-639 313v195z" />
    <glyph glyph-name="cent.tf" 
d="M319 672c0.666992 -79.333 19 -145.667 55 -199s83.333 -89.333 142 -108v612c-58.667 -19.333 -106 -55 -142 -107s-54.333 -118 -55 -198zM672 -0.000976562h-156v193c-114.667 20.667 -208 75 -280 163s-107.667 193.333 -107 316c0 122.667 36 227.667 108 315
s165 141.333 279 162v180h156v-176c96.667 -10.667 174.667 -43 234 -97s99.333 -117.333 120 -190l-166 -67c-12 43.333 -33.333 82.333 -64 117s-72 57.667 -124 69v-629c102.667 20.667 168.667 81.667 198 183l164 -68c-23.333 -69.333 -66 -131.333 -128 -186
s-140 -87 -234 -97v-188z" />
    <glyph glyph-name="sterling.tf" 
d="M123 735l142.999 -0.000976562c-40.667 90 -61 170.667 -61 242c-0.666992 110 37 201 113 273s171.333 108 286 108c204.667 0 334.667 -79.333 390 -238c14.667 -39.333 23.334 -81.666 26.001 -126.999l-201 -35c-1.33301 74 -20.666 129.667 -57.999 167
c-36.667 38 -85.667 57 -147 57s-111.333 -18 -150 -54s-58 -85.667 -58 -149c0 -62.667 22.333 -144 67 -244h377v-176h-324c2.66699 -24.667 4 -43 4 -55c0 -70.667 -17 -134.667 -51 -192s-81.667 -102 -143 -134h350c65.333 0 114.666 20.667 147.999 62
s49.666 93 48.999 155l192 -28c0 -108.667 -30.333 -197 -91 -265s-143.667 -102 -249 -102h-624v195c68 28.667 122.333 69 163 121s61.334 107 62.001 165c0 30 -2.66699 56 -8 78h-205v176z" />
    <glyph glyph-name="currency.tf" 
d="M315 488c0 -78.667 25.668 -143.333 77.001 -194s114.666 -75.667 189.999 -75c76 0 138.667 25.333 188 76c49.333 50 74 114.333 74 193s-25 143.334 -75 194.001s-112.333 76 -187 76s-138 -25.333 -190 -76c-51.333 -50.667 -77 -115.334 -77 -194.001z
M145.001 491.001c0 88.667 25.334 170.667 76.001 246l-153 158l122 121l154 -160c74 48 152.667 72 236 72s159.666 -21.333 228.999 -64l147 152l123 -121l-143 -150c56 -78 84 -164 84 -258s-27.333 -177 -82 -249l141 -146l-121 -121l-143 148
c-70.667 -45.333 -149 -68 -235 -68s-166.667 25.333 -242 76l-150 -156l-120 121l149 156c-48 73.333 -72 154.333 -72 243z" />
    <glyph glyph-name="yen.tf" 
d="M1028 317h-344v-317h-199v317h-346v148h346v164h-346v145h240l-350 553h233l322 -534l305 534h229l-334 -553h244v-145h-344v-164h344v-148z" />
    <glyph glyph-name="section.tf" horiz-adv-x="1142" 
d="M356 596c0 -75.333 43 -134.666 129 -177.999l203 -111c24.667 11.333 47 32.333 67 63s29.667 63.667 29 99c0 74.667 -43 134 -129 178l-202 111c-24.667 -10.667 -47 -31.334 -67 -62.001s-30 -64 -30 -100zM971 518c0 -69.333 -17.666 -127.335 -52.999 -174.002
s-74.333 -78.667 -117 -96c56 -35.333 99.667 -79.333 131 -132s47 -107 47 -163c0 -109.333 -40.667 -198.333 -122 -267c-81.333 -69.333 -182 -104 -302 -104c-120.667 0 -215 34 -283 102s-103.333 159 -106 273l180 37c0 -77.333 18.667 -138.666 56 -183.999
s90.666 -68 159.999 -68s123.333 16.667 162 50s58 80 58 140c0 76.667 -39.333 135.667 -118 177l-211 110c-90 45.333 -159.333 93.666 -208 144.999s-73 112.333 -73 183s18 129.334 54 176.001s75.333 77.334 118 92.001c-57.333 35.333 -101.666 79.333 -132.999 132
s-47 107.667 -47 165c0 109.333 40.667 198.333 122 267s181.666 103 300.999 103s214 -35.333 284 -106s105.333 -160 106 -268l-182 -37c-0.666992 78 -19.667 139 -57 183s-90 66.333 -158 67c-68 0 -122 -17.333 -162 -52c-39.333 -34.667 -59.333 -81 -60 -139
c0 -76.667 40.333 -134.667 121 -174l209 -110c91.333 -48 161.333 -97.333 210 -148s73 -110.667 73 -180z" />
    <glyph glyph-name="logicalnot.tf" 
d="M1006 305h-172v400h-777v167h949v-567z" />
    <glyph glyph-name="plusminus.tf" 
d="M127 266h895v-162h-895v162zM127 791h362v278h168v-278h365v-158h-365v-275h-168v275h-362v158z" />
    <glyph glyph-name="multiply.tf" 
d="M920 113l-349 358l-344 -356l-114 114l346 361l-344 356l116 117l342 -356l342 356l117 -115l-346 -358l348 -361z" />
    <glyph glyph-name="divide.tf" 
d="M438 225c0 35.333 13.332 66 39.999 92s57.667 39 93 39s66.333 -13 93 -39s39.334 -56.667 38.001 -92c0 -35.333 -12.667 -66.333 -38 -93s-56 -40 -92 -40s-67.333 13.333 -94 40s-40 57.667 -40 93zM103.999 504v170h936v-170h-936zM437.999 952
c0 35.333 13.332 66 39.999 92s57.667 39 93 39s66.333 -13 93 -39s39.334 -56.667 38.001 -92c0 -35.333 -12.667 -66.333 -38 -93s-56 -40 -92 -40s-67.333 13.333 -94 40s-40 57.667 -40 93z" />
    <glyph glyph-name="florin.tf" 
d="M295 815l0.00195312 170h260l47 232c19.333 98 60.333 172 123 222c62 50 127.667 75 197 75s126 -7 170 -21v-170c-34 9.33301 -72.333 14 -115 14s-81.334 -12.333 -116.001 -37s-59.667 -75 -75 -151l-32 -164h264v-170h-299l-168 -842
c-19.333 -98 -60.333 -172 -123 -222s-129.334 -75 -200.001 -75s-128.334 7 -173.001 21v170c34 -9.33301 72.333 -14 115 -14c106.667 0 172.334 62.667 197.001 188l153 774h-225z" />
    <glyph glyph-name="uni2007.tf" 
 />
    <glyph glyph-name="uni2008.tf" 
 />
    <glyph glyph-name="perthousand.tf" 
d="M866 332c-31.333 0 -58 -10.667 -80 -32c-21.333 -21.333 -32 -48.333 -32 -81s10.667 -59.667 32 -81s48 -32 80 -32c31.333 0 57.333 10.667 78 32s31 48.333 31 81s-10.333 59.667 -31 81s-46.667 32 -78 32zM516 332c-31.333 0 -58 -10.667 -80 -32
s-33 -48.333 -33 -81s11 -59.667 33 -81s48.667 -32 80 -32s57.333 10.667 78 32s31 48.333 31 81s-10.333 59.667 -31 81s-46.667 32 -78 32zM270 219c0 66.667 24.333 123.667 73 171s106.667 71 174 71s125 -26 173 -78c48 52 106 78 174 78s126.333 -23.667 175 -71
s73 -104.333 73 -171s-24.333 -123.667 -73 -171s-107.667 -71 -177 -71s-126.666 26 -171.999 78c-45.333 -52 -102.333 -78 -171 -78s-127.334 23.667 -176.001 71s-73 104.333 -73 171zM35 1098c0 66.667 24.332 123.668 72.999 171.001s106.334 71 173.001 71
s124.334 -24 173.001 -72c48 -46.667 72 -103.334 72 -170.001s-24 -123.667 -72 -171s-105.667 -71 -173 -71c-66.667 0 -124.334 23.667 -173.001 71s-73 104.333 -73 171zM167.999 1098c0 -32.667 11 -59.667 33 -81s48.667 -32 80 -32s57 10.667 77 32
s30.333 48.333 31 81c0 32.667 -10.333 59.667 -31 81c-21.333 20.667 -47.333 31 -78 31s-57 -10.667 -79 -32s-33 -48 -33 -80zM1081 1294v-188l-987 -770v184z" />
    <glyph glyph-name="Euro.tf" 
d="M236 665c0 41.333 1.33301 69 4 83h-152v159h182c46.667 143.333 129 254.333 247 333s247.333 118 388 118c78 0 151.667 -11.667 221 -35l-47 -168c-57.333 16.667 -115.333 25 -174 25c-95.333 0 -181 -23.333 -257 -70s-132.333 -114.334 -169 -203.001h527l-50 -159
h-516c-4 -22 -6 -51 -6 -87s2 -63.667 6 -83h482l-50 -164h-389c38 -86 94.333 -151.333 169 -196s159 -66.667 253 -66c62.667 0 120.667 8 174 24l47 -168c-69.333 -23.333 -143 -35 -221 -35c-138 0 -266 38.333 -384 115s-200.333 185.334 -247 326.001h-186v164h152
c-2.66699 16.667 -4 45.667 -4 87z" />
    <glyph glyph-name="minus.tf" 
d="M1006 508h-867v162h867v-162z" />
    <glyph glyph-name="approxequal.tf" 
d="M784 219c-64 0 -132.002 20.667 -204.002 62l-97 53c-44 23.333 -86.333 35 -127 35c-70.667 0 -132.667 -31 -186 -93l-109 97c80.667 116 178.334 174 293.001 174c62.667 0 133 -21.333 211 -64l94 -51c48 -27.333 96 -41 144 -41c66.667 0 125.334 30 176.001 90
l104 -92c-79.333 -113.333 -179 -170 -299 -170zM783.998 616c-64 0 -132.001 20.667 -204.001 62l-97 53c-44 23.333 -86.333 35 -127 35c-70.667 0 -132.667 -30.667 -186 -92l-109 96c80.667 116 178.334 174 293.001 174c62.667 0 133 -21 211 -63l94 -52
c48 -27.333 100.667 -41 158 -41s111.333 30.333 162 91l104 -93c-79.333 -113.333 -179 -170 -299 -170z" />
    <glyph glyph-name="notequal.tf" 
d="M1047 309h-558l-151 -205h-197l152 205h-195v162h314l174 238h-488v157h604l150 203h197l-150 -203h148v-157h-265l-174 -238h439v-162z" />
    <glyph glyph-name="lessequal.tf" 
d="M152 623v174l843 299v-172l-628 -213l628 -213v-172zM152 266h843v-162h-843v162z" />
    <glyph glyph-name="greaterequal.tf" 
d="M995 797v-174l-843 -297v172l628 213l-628 213v172zM152 266h843v-162h-843v162z" />
    <glyph glyph-name="parenleft.case" horiz-adv-x="608" 
d="M113 721c0 348 127.666 649.666 382.999 904.999l112 -100c-109.333 -120 -191.666 -244 -246.999 -372s-83 -272.333 -83 -433c0 -161.333 28 -305.666 84 -432.999c54.667 -127.333 136.667 -251.333 246 -372l-112 -100c-255.333 255.333 -383 557 -383 905z" />
    <glyph glyph-name="parenright.case" horiz-adv-x="608" 
d="M496 721c0 -348 -127.667 -649.666 -383 -904.999l-113 100c109.333 120 191.666 244 246.999 372s83 272.333 83 433c0 161.333 -27.667 305.666 -83 432.999s-137.666 251.333 -246.999 372l113 100c255.333 -255.333 383 -557 383 -905z" />
    <glyph glyph-name="hyphen.case" horiz-adv-x="739" 
d="M647 606h-555v168h555v-168z" />
    <glyph glyph-name="bracketleft.case" horiz-adv-x="589" 
d="M580 -184h-396v1822h396v-155h-228v-1514h228v-153z" />
    <glyph glyph-name="bracketright.case" horiz-adv-x="589" 
d="M406 -184h-396v153h228v1514h-228v155h396v-1822z" />
    <glyph glyph-name="braceleft.case" horiz-adv-x="722" 
d="M92 637l-0.000976562 176.001c65.333 0 119.333 16.667 162 50c42 33.333 63 85.666 63 156.999v237c0 254 123 381 369 381h27v-153h-27c-74 0 -126 -16.667 -156 -50s-45 -88.333 -45 -165v-293c0 -68 -18.667 -124 -56 -168s-89.666 -72 -156.999 -84
c66.667 -12 118.667 -40 156 -84s56.333 -100 57 -168v-289c0 -76.667 15 -131.667 45 -165s82 -50 156 -50h27v-153h-27c-246 0 -369 127 -369 381v233c0 70.667 -21 123 -63 157c-42.667 33.333 -96.667 50 -162 50z" />
    <glyph glyph-name="braceright.case" horiz-adv-x="722" 
d="M631 813l0.00195312 -176.001c-64.667 0 -118.334 -16.667 -161.001 -50s-64 -85.666 -64 -156.999v-233c0 -254 -123 -381 -369 -381h-27v153h27c74 0 126 16.667 156 50s45 88.333 45 165v289c0 68 18.667 124 56 168s89.666 72 156.999 84c-66.667 12 -119 40 -157 84
c-37.333 44 -56 100 -56 168v293c0 76.667 -15 131.667 -45 165s-82 50 -156 50h-27v153h27c246 0 369 -127 369 -381v-237c0 -70.667 21 -123 63 -157c42.667 -33.333 96.667 -50 162 -50z" />
    <glyph glyph-name="exclamdown.case" horiz-adv-x="636" 
d="M184 1325c0 36.667 12.998 68.334 38.998 95.001s57.333 40 94 40s68.334 -13.333 95.001 -40s40.334 -58.334 41.001 -95.001c0 -36.667 -13.333 -68 -40 -94c-26 -26 -57.667 -39 -95 -39s-69 13 -95 39s-39 57.333 -39 94zM386.998 1034l51 -1034h-241l53 1034h137z
" />
    <glyph glyph-name="guillemotleft.case" horiz-adv-x="964" 
d="M924 305h-191l-272 391l272 391h191l-269 -391zM524 305h-190l-273 391l273 391h190l-268 -391z" />
    <glyph glyph-name="uni00AD.case" horiz-adv-x="739" 
d="M647 641h-555v168h555v-168z" />
    <glyph glyph-name="guillemotright.case" horiz-adv-x="964" 
d="M231 305h-190l268 391l-268 391h190l273 -391zM631 305h-191l269 391l-269 391h191l272 -391z" />
    <glyph glyph-name="questiondown.case" horiz-adv-x="1044" 
d="M686 1331c0 -36.667 -13 -68.334 -39 -95.001s-57.333 -40 -94 -40s-68.334 13.333 -95.001 40s-40 58.334 -40 95.001s13.333 68 40 94s58.334 39 95.001 39s68 -13 94 -39s39 -57.333 39 -94zM645 969c0 -136.667 -56.666 -243.334 -169.999 -320.001l-90 -61
c-72.667 -49.333 -109 -116.333 -109 -201c0 -65.333 21.333 -120.666 64 -165.999c42.667 -44.667 104 -67 184 -67c80.667 0 143 26 187 78s65.667 113.333 65 184c0 40.667 -4.66699 74 -14 100l199 -24c8 -28.667 12 -69 12 -121s-15 -108.667 -45 -170
c-30.667 -61.333 -81.334 -114.666 -152.001 -159.999s-156 -68 -256 -68c-136 0 -244.667 41 -326 123s-122 178.333 -122 289c0 143.333 69.667 262 209 356l94 64c60 40.667 90 106 90 196c0 16.667 -0.666992 29.667 -2 39h180c1.33301 -16.667 2 -40.334 2 -71.001z
" />
    <glyph glyph-name="endash.case" horiz-adv-x="1273" 
d="M1161 606h-1048v168h1048v-168z" />
    <glyph glyph-name="emdash.case" horiz-adv-x="2217" 
d="M2085 606h-1952v168h1952v-168z" />
    <glyph glyph-name="guilsinglleft.case" horiz-adv-x="565" 
d="M524 305h-190l-273 391l273 391h190l-268 -391z" />
    <glyph glyph-name="guilsinglright.case" horiz-adv-x="565" 
d="M231 305h-190l268 391l-268 391h190l273 -391z" />
    <glyph glyph-name="G.ss01" horiz-adv-x="1570" 
d="M821 -31c-124 0 -240.67 28.6689 -350.003 86.002c-108.667 57.333 -199 144.666 -271 261.999s-108 254 -108 410c0 116.667 20.667 223.667 62 321c77.333 180 210.333 308 399 384c86 34 175.333 51 268 51c161.333 0 300 -41.667 416 -125s192.333 -195.333 229 -336
l-186 -64c-30 110.667 -84.667 195 -164 253s-177.666 87 -294.999 87c-146 0 -269.667 -49.333 -371 -148s-152.333 -239.334 -153 -422.001c0 -182.667 51.333 -324.667 154 -426c102 -100 221.667 -150 359 -150s247.333 34.333 330 103s130.667 155 144 259h-586v180
h789c1.33301 -10.667 2 -27.667 2 -51c0.666992 -194 -57.666 -355 -174.999 -483s-281.666 -191.667 -492.999 -191z" />
    <glyph glyph-name="a.ss02" horiz-adv-x="1193" 
d="M854 133l-0.00195312 17c-26 -50.667 -65.333 -92.667 -118 -126s-115 -50.333 -187 -51c-140.667 0 -253.667 50.333 -339 151s-128 224 -128 370c0 145.333 43.667 268 131 368s199.333 150 336 150c80.667 0 146.334 -16 197.001 -48s85.334 -71.333 104.001 -118v139
h190v-803c0 -60 3.66699 -120.667 11 -182h-187c-6.66699 38 -10 82.333 -10 133zM568.998 842c-87.333 0 -157.669 -31.333 -211.002 -94s-79.666 -145.667 -78.999 -249s26.334 -188.333 77.001 -255s120 -100 208 -100s158 33.333 210 100s78 151.667 78 255
s-25.333 186.333 -76 249s-119.667 94 -207 94z" />
    <glyph glyph-name="agrave.ss02" horiz-adv-x="1193" 
d="M487 1112l-258 299h242l176 -299h-160zM854 133l-0.00195312 17c-26 -50.667 -65.333 -92.667 -118 -126s-115 -50.333 -187 -51c-140.667 0 -253.667 50.333 -339 151s-128 224 -128 370c0 145.333 43.667 268 131 368s199.333 150 336 150
c80.667 0 146.334 -16 197.001 -48s85.334 -71.333 104.001 -118v139h190v-803c0 -60 3.66699 -120.667 11 -182h-187c-6.66699 38 -10 82.333 -10 133zM568.998 842c-87.333 0 -157.669 -31.333 -211.002 -94s-79.666 -145.667 -78.999 -249s26.334 -188.333 77.001 -255
s120 -100 208 -100s158 33.333 210 100s78 151.667 78 255s-25.333 186.333 -76 249s-119.667 94 -207 94z" />
    <glyph glyph-name="aacute.ss02" horiz-adv-x="1193" 
d="M856 1411l-258 -299h-162l178 299h242zM854 133l-0.00195312 17c-26 -50.667 -65.333 -92.667 -118 -126s-115 -50.333 -187 -51c-140.667 0 -253.667 50.333 -339 151s-128 224 -128 370c0 145.333 43.667 268 131 368s199.333 150 336 150
c80.667 0 146.334 -16 197.001 -48s85.334 -71.333 104.001 -118v139h190v-803c0 -60 3.66699 -120.667 11 -182h-187c-6.66699 38 -10 82.333 -10 133zM568.998 842c-87.333 0 -157.669 -31.333 -211.002 -94s-79.666 -145.667 -78.999 -249s26.334 -188.333 77.001 -255
s120 -100 208 -100s158 33.333 210 100s78 151.667 78 255s-25.333 186.333 -76 249s-119.667 94 -207 94z" />
    <glyph glyph-name="acircumflex.ss02" horiz-adv-x="1193" 
d="M438 1116h-178l213 285h219l213 -285h-180l-143 166zM854 133l-0.00195312 17c-26 -50.667 -65.333 -92.667 -118 -126s-115 -50.333 -187 -51c-140.667 0 -253.667 50.333 -339 151s-128 224 -128 370c0 145.333 43.667 268 131 368s199.333 150 336 150
c80.667 0 146.334 -16 197.001 -48s85.334 -71.333 104.001 -118v139h190v-803c0 -60 3.66699 -120.667 11 -182h-187c-6.66699 38 -10 82.333 -10 133zM568.998 842c-87.333 0 -157.669 -31.333 -211.002 -94s-79.666 -145.667 -78.999 -249s26.334 -188.333 77.001 -255
s120 -100 208 -100s158 33.333 210 100s78 151.667 78 255s-25.333 186.333 -76 249s-119.667 94 -207 94z" />
    <glyph glyph-name="atilde.ss02" horiz-adv-x="1193" 
d="M893 1386l0.000976562 -30c0 -72.667 -18.333 -128 -55 -166s-80.334 -57 -131.001 -57s-100 15 -148 45l-29 18c-31.333 19.333 -56.333 29 -75 29c-39.333 0 -59.333 -29.333 -60 -88h-147v30c0 72.667 18.667 128 56 166s82 57 134 57s101.333 -14.667 148 -44l28 -19
c31.333 -19.333 56 -29 74 -29c39.333 0 59.333 29.333 60 88h145zM854.001 133l-0.00195312 17c-26 -50.667 -65.333 -92.667 -118 -126s-115 -50.333 -187 -51c-140.667 0 -253.667 50.333 -339 151s-128 224 -128 370c0 145.333 43.667 268 131 368s199.333 150 336 150
c80.667 0 146.334 -16 197.001 -48s85.334 -71.333 104.001 -118v139h190v-803c0 -60 3.66699 -120.667 11 -182h-187c-6.66699 38 -10 82.333 -10 133zM568.999 842c-87.333 0 -157.669 -31.333 -211.002 -94s-79.666 -145.667 -78.999 -249s26.334 -188.333 77.001 -255
s120 -100 208 -100s158 33.333 210 100s78 151.667 78 255s-25.333 186.333 -76 249s-119.667 94 -207 94z" />
    <glyph glyph-name="adieresis.ss02" horiz-adv-x="1193" 
d="M649 1271c0 33.333 11.333 61.666 34 84.999s50.667 35 84 35s61.666 -11.667 84.999 -35s35 -51.666 35 -84.999s-11.667 -61.333 -35 -84s-51.666 -34 -84.999 -34s-61.333 11.333 -84 34s-34 50.667 -34 84zM266 1271c0 33.333 11.333 61.666 34 84.999
s50.667 35 84 35s61.666 -11.667 84.999 -35s35 -51.666 35 -84.999s-11.667 -61.333 -35 -84s-51.666 -34 -84.999 -34s-61.333 11.333 -84 34s-34 50.667 -34 84zM854 133l-0.00195312 17c-26 -50.667 -65.333 -92.667 -118 -126s-115 -50.333 -187 -51
c-140.667 0 -253.667 50.333 -339 151s-128 224 -128 370c0 145.333 43.667 268 131 368s199.333 150 336 150c80.667 0 146.334 -16 197.001 -48s85.334 -71.333 104.001 -118v139h190v-803c0 -60 3.66699 -120.667 11 -182h-187c-6.66699 38 -10 82.333 -10 133z
M568.998 842c-87.333 0 -157.669 -31.333 -211.002 -94s-79.666 -145.667 -78.999 -249s26.334 -188.333 77.001 -255s120 -100 208 -100s158 33.333 210 100s78 151.667 78 255s-25.333 186.333 -76 249s-119.667 94 -207 94z" />
    <glyph glyph-name="aring.ss02" horiz-adv-x="1193" 
d="M659 1313c-0.666992 27.333 -10.333 51.002 -29 71.002s-42 29.667 -70 29c-28 0 -51.333 -10 -70 -30c-18.667 -20.667 -28 -44.334 -28 -71.001s9.33301 -49.667 28 -69s42 -29 70 -29s51.667 9.66699 71 29c18.667 19.333 28 42.666 28 69.999zM791.001 1314
c0 -62 -22.667 -115 -68 -159c-45.333 -43.333 -99 -65 -161 -65s-115.667 22 -161 66c-44.667 44 -67 96.667 -67 158c0 62 22.333 115 67 159c45.333 43.333 99 65 161 65s115.667 -22 161 -66s68 -96.667 68 -158zM854.001 133.002l-0.00195312 17
c-26 -50.667 -65.333 -92.667 -118 -126s-115 -50.333 -187 -51c-140.667 0 -253.667 50.333 -339 151s-128 224 -128 370c0 145.333 43.667 268 131 368s199.333 150 336 150c80.667 0 146.334 -16 197.001 -48s85.334 -71.333 104.001 -118v139h190v-803
c0 -60 3.66699 -120.667 11 -182h-187c-6.66699 38 -10 82.333 -10 133zM568.999 842.002c-87.333 0 -157.669 -31.333 -211.002 -94s-79.666 -145.667 -78.999 -249s26.334 -188.333 77.001 -255s120 -100 208 -100s158 33.333 210 100s78 151.667 78 255
s-25.333 186.333 -76 249s-119.667 94 -207 94z" />
    <glyph glyph-name="r.ss03" horiz-adv-x="675" 
d="M358 851c0 40 14 74 42 102s62 42 102 42s74.333 -14 103 -42c28 -28 42 -62 42 -102s-14 -74 -42 -102s-62 -42 -102 -42s-74.333 14 -103 42c-28 28 -42 62 -42 102zM356 985v-985h-192v985h192z" />
    <glyph glyph-name="ampersand.ss04" horiz-adv-x="1386" 
d="M793 498l0.000976562 182.003h563v-182h-176v-21c0 -144.667 -46.667 -265.334 -140 -362.001s-219.666 -145 -378.999 -145s-287 39.667 -383 119c-96 80 -144.333 182.667 -145 308c0 100 29 184.333 87 253s128.667 115.667 212 141c-68 24.667 -123 63.667 -165 117
c-41.333 54 -62 120.667 -62 200c0 105.333 40.667 194 122 266c80.667 72 187.667 108.333 321 109c133.333 0 236.666 -38 309.999 -114s114.333 -170 123 -282l-196 -34c-4.66699 79.333 -28.334 141 -71.001 185s-98.667 65.667 -168 65s-126.333 -20.334 -171 -59.001
c-43.333 -38.667 -65 -89 -65 -151s23 -112 69 -150c46.667 -37.333 97.334 -56 152.001 -56h26v-185c-82 0 -155.667 -23.333 -221 -70s-98 -119.334 -98 -218.001c0 -70.667 28.333 -132 85 -184s134.667 -77.333 234 -76c99.333 0 177.666 29 234.999 87
c56.667 58 85 136.667 85 236v21h-184z" />
    <glyph glyph-name="one.ss05" horiz-adv-x="952" 
d="M92 180h334v756h-322v141c90 1.33301 166 25 228 71c61.333 46 99.333 105.667 114 179h177v-1147h319v-180h-850v180z" />
    <glyph glyph-name="registered.ss06" horiz-adv-x="878" 
d="M403 1014v-133h-106v401h170c38 0 70.667 -13.333 98 -40s41 -57.667 41 -93c0 -50.667 -24.667 -89 -74 -115l74 -153h-110l-62 133h-31zM403 1100h41c35.333 0 53.333 16.333 54 49c0 30 -18 45 -54 45h-41v-94zM152 1077c0 -82 27.333 -151.333 82 -208
s122.667 -85 204 -85c80.667 0 149 28.333 205 85s84 126 84 208s-28 151.333 -84 208s-124.333 85 -205 85c-81.333 0 -149.333 -28.333 -204 -85s-82 -126 -82 -208zM51 1077c0 106.667 37.999 198 113.999 274c75.333 75.333 166.333 113 273 113
s198.334 -38 275.001 -114s115 -167 115 -273s-38.667 -197 -116 -273c-76 -76 -167.333 -114 -274 -114s-198 38 -274 114s-113.667 167 -113 273z" />
    <glyph glyph-name="caron.alt" horiz-adv-x="415" 
d="M344 1452l-131 -367h-141l57 367h215z" />
    <glyph glyph-name="commaaccent" horiz-adv-x="397" 
d="M72 1348c0 32 12 58 36 78s53 30 87 30s64.333 -12.333 91 -37s40 -62 40 -112c0 -74 -23.667 -130.667 -71 -170s-101.666 -59.333 -162.999 -60v82c34 0 64 10.333 90 31s40.333 43 43 67c-8 -8 -25.333 -12 -52 -12s-50.334 9 -71.001 27c-20 18 -30 43.333 -30 76z
" />
    <glyph glyph-name="commaturn" horiz-adv-x="352" 
d="M305 1201c0 -32 -11.667 -58 -35 -78c-23.333 -19.333 -52 -29 -86 -29s-64.667 12.667 -92 38s-41 67.333 -41 126s24 109.334 72 152.001c48 41.333 102 62.333 162 63v-82c-34 0 -64 -10.333 -90 -31s-40.333 -43.334 -43 -68.001c8 8 25.333 12 52 12s50 -9 70 -27
c20 -18.667 30.333 -44 31 -76z" />
    <glyph glyph-name="dieresis.narrow" horiz-adv-x="602" 
d="M336 1272c0 31.333 10.665 57.667 31.998 79c21.333 20.667 47.333 31 78 31s56.334 -10.667 77.001 -32c21.333 -21.333 32 -47 32 -77c0 -30.667 -10.667 -56.667 -32 -78s-47.666 -32 -78.999 -32c-32 0 -58 10.333 -78 31s-30 46.667 -30 78zM46.998 1272
c0 31.333 10.668 57.667 32.001 79c21.333 20.667 47 31 77 31c30.667 0 56.667 -10.667 78 -32s32 -47 32 -77c0 -30.667 -10.667 -56.667 -32 -78s-47.333 -32 -78 -32s-56.334 10.333 -77.001 31c-21.333 20.667 -32 46.667 -32 78z" />
    <glyph glyph-name="dieresis.uc.narrow" horiz-adv-x="634" 
d="M365 1676c0 30.667 10.333 56.666 31 77.999c21.333 21.333 47.333 32 78 32s56.667 -10.333 78 -31s32 -46.667 32 -78s-10.667 -57.666 -32 -78.999s-47 -32 -77 -32s-56 10.667 -78 32c-21.333 21.333 -32 47.333 -32 78zM51 1677c0 31.333 10.667 57.334 32 78.001
s47.333 31 78 31s56.667 -10.667 78 -32c20.667 -21.333 31 -47.333 31 -78s-10.667 -56.667 -32 -78s-47.333 -32 -78 -32c-30 0 -55.667 10.667 -77 32s-32 47.666 -32 78.999z" />
    <glyph glyph-name="grave.uc" horiz-adv-x="559" 
d="M319 1554l-282 244h264l209 -244h-191z" />
    <glyph glyph-name="dieresis.uc" horiz-adv-x="833" 
d="M532 1677c0 34 11.667 62.667 35 86s52 35 86 35s62.667 -11.667 86 -35s35 -52 35 -86s-11.667 -62.667 -35 -86s-52 -35 -86 -35s-62.667 11.667 -86 35s-35 52 -35 86zM59 1677c0 34 11.667 62.667 35 86s52 35 86 35s62.667 -11.667 86 -35s35 -52 35 -86
s-11.667 -62.667 -35 -86s-52 -35 -86 -35s-62.667 11.667 -86 35s-35 52 -35 86z" />
    <glyph glyph-name="macron.uc" horiz-adv-x="702" 
d="M651 1595h-600v170h600v-170z" />
    <glyph glyph-name="acute.uc" horiz-adv-x="559" 
d="M522 1798l-280 -244h-193l207 244h266z" />
    <glyph glyph-name="circumflex.uc" horiz-adv-x="825" 
d="M246 1554h-187l230 244h246l239 -244h-188l-174 132z" />
    <glyph glyph-name="caron.uc" horiz-adv-x="825" 
d="M59 1798h187l166 -131l174 131h188l-239 -244h-246z" />
    <glyph glyph-name="breve.uc" horiz-adv-x="759" 
d="M381 1544c-96.667 0 -173.334 26.332 -230.001 78.999s-87.334 114.334 -92.001 185.001h166c2.66699 -28 16.667 -54 42 -78s63.333 -36 114 -36s88.334 12 113.001 36s38.334 50 41.001 78h165c-4 -72 -34 -134 -90 -186s-132.333 -78 -229 -78z" />
    <glyph glyph-name="dotaccent.uc" horiz-adv-x="362" 
d="M51 1675c0 35.333 12.667 66 38 92s55.666 39 90.999 39s66 -13 92 -39s39 -56.667 39 -92s-13 -65.666 -39 -90.999s-56.667 -38 -92 -38s-65.666 12.667 -90.999 38s-38 55.666 -38 90.999z" />
    <glyph glyph-name="ring.uc" horiz-adv-x="559" 
d="M375 1738c0 26.667 -9.66895 49.332 -29.002 67.999s-42.333 27.667 -69 27c-26 0 -48.333 -9.33301 -67 -28c-18.667 -19.333 -28 -42.333 -28 -69s9.33301 -49 28 -67s41.334 -27 68.001 -27s49.334 9.33301 68.001 28c19.333 18.667 29 41.334 29 68.001zM50.998 1738
c0 61.333 22.667 114 68 158s99 66 161 66c61.333 0 114.666 -22 159.999 -66s68 -96.667 68 -158c0 -62 -22.667 -115 -68 -159s-98.666 -66 -159.999 -66s-115 22 -161 66c-45.333 44 -68 97 -68 159z" />
    <glyph glyph-name="tilde.uc" horiz-adv-x="763" 
d="M715 1804l0.00195312 -31.999c-0.666992 -74 -19 -130.333 -55 -169c-36 -39.333 -81.667 -59 -137 -59s-105.333 15.667 -150 47l-31 21c-31.333 19.333 -56.666 28.666 -75.999 27.999c-48 0 -71.667 -30 -71 -90h-140v33c-0.666992 74 17.666 130.333 54.999 169
s82.666 58 135.999 58s105.666 -15.667 156.999 -47l31 -18c32.667 -19.333 58.667 -29 78 -29c44 0 66 24 66 72v16h137z" />
    <glyph glyph-name="hungarumlaut.uc" horiz-adv-x="751" 
d="M700 1798l-217 -244h-143l145 244h215zM391 1798l-196 -244h-144l125 244h215z" />
    <glyph glyph-name="caron.alt.uc" horiz-adv-x="415" 
d="M360 1452l-139 -389h-149l61 389h227z" />
    <glyph glyph-name="undercommaaccent" horiz-adv-x="356" 
d="M51 -183c0 32 12.001 58.332 36.001 78.999c24 20 53 30 87 30s64.333 -12.333 91 -37s40 -62 40 -112c0 -74 -23.667 -130.667 -71 -170s-101.333 -59.333 -162 -60v82c34 0 64 10.333 90 31s40.333 43.334 43 68.001c-12 -8 -30.333 -12 -55 -12
s-47.334 8.66699 -68.001 26c-20.667 18 -31 43 -31 75z" />
    </font>
</defs>
</svg>
